<svg width="56" height="44" viewBox="0 0 56 44" fill="none" xmlns="http://www.w3.org/2000/svg">
<g opacity="0.6">
<path d="M32.9486 6.07491C29.4214 5.95225 26.0594 4.81283 22.854 3.56647C19.6485 2.32011 16.4714 0.938922 13.0268 0.278487C10.8122 -0.146767 8.2794 -0.206576 6.49532 0.981498C4.7781 2.12446 4.22342 4.09766 3.92506 5.92843C3.70066 7.30607 3.57048 8.75568 4.18391 10.0456C4.61094 10.9407 5.36874 11.6934 5.89302 12.551C7.71662 15.5349 6.42744 19.2147 4.45087 22.1306C3.52387 23.4991 2.44846 24.8013 1.73321 26.2565C1.01795 27.7116 0.686667 29.3787 1.31277 30.8628C1.93329 32.3327 3.41142 33.4386 5.01314 34.2156C8.26623 35.7925 12.0993 36.2436 15.8372 36.5021C24.1112 37.0682 32.4298 36.8229 40.7257 36.5776C43.7959 36.4864 46.8798 36.3946 49.8999 35.9187C51.5771 35.6546 53.309 35.2359 54.5267 34.2253C56.0722 32.9419 56.4557 30.7695 55.4198 29.1602C53.6823 26.4617 48.8787 25.7912 47.6639 22.895C46.9958 21.3009 47.6822 19.5249 48.6537 18.0464C50.7372 14.875 54.2304 12.0923 54.4143 8.46677C54.5409 5.97658 52.8617 3.48335 50.2651 2.3049C47.5439 1.06868 43.7701 1.22479 41.7626 3.26793C39.6953 5.37291 36.0623 6.18287 32.9486 6.07491Z" fill="#FF87C3"/>
<path d="M32.9486 6.07491C29.4214 5.95225 26.0594 4.81283 22.854 3.56647C19.6485 2.32011 16.4714 0.938922 13.0268 0.278487C10.8122 -0.146767 8.2794 -0.206576 6.49532 0.981498C4.7781 2.12446 4.22342 4.09766 3.92506 5.92843C3.70066 7.30607 3.57048 8.75568 4.18391 10.0456C4.61094 10.9407 5.36874 11.6934 5.89302 12.551C7.71662 15.5349 6.42744 19.2147 4.45087 22.1306C3.52387 23.4991 2.44846 24.8013 1.73321 26.2565C1.01795 27.7116 0.686667 29.3787 1.31277 30.8628C1.93329 32.3327 3.41142 33.4386 5.01314 34.2156C8.26623 35.7925 12.0993 36.2436 15.8372 36.5021C24.1112 37.0682 32.4298 36.8229 40.7257 36.5776C43.7959 36.4864 46.8798 36.3946 49.8999 35.9187C51.5771 35.6546 53.309 35.2359 54.5267 34.2253C56.0722 32.9419 56.4557 30.7695 55.4198 29.1602C53.6823 26.4617 48.8787 25.7912 47.6639 22.895C46.9958 21.3009 47.6822 19.5249 48.6537 18.0464C50.7372 14.875 54.2304 12.0923 54.4143 8.46677C54.5409 5.97658 52.8617 3.48335 50.2651 2.3049C47.5439 1.06868 43.7701 1.22479 41.7626 3.26793C39.6953 5.37291 36.0623 6.18287 32.9486 6.07491Z" fill="url(#paint0_linear)"/>
</g>
<path d="M32.6009 18.4251L36.0906 16.7682L41.6953 15.3185L43.5988 18.4251L39.5803 21.0139H35.1389L32.6009 18.4251Z" fill="black" fill-opacity="0.1"/>
<path d="M37.6379 18.2443L36.359 16.7276C36.4052 16.2027 36.3763 15.6854 36.2737 15.2015C36.1625 14.6963 35.9733 14.1788 35.653 13.8494C34.8441 13.0145 40.6939 11.3371 40.6939 11.3371C40.6758 11.722 40.6734 12.105 40.6866 12.4845C40.7169 13.4095 40.8511 14.6312 41.3217 15.095C42.1215 15.884 37.6379 18.2443 37.6379 18.2443Z" fill="black" fill-opacity="0.1"/>
<path d="M39.9656 18.4607L39.18 17.9698L38.3944 17.2824L36.1359 14.5329L36.4305 16.1041L36.3323 16.595L35.645 17.2824L35.8413 19.6391L37.4125 20.621L39.18 19.5409L39.9656 18.4607Z" fill="black" fill-opacity="0.1"/>
<ellipse cx="36.5287" cy="10.1141" rx="4.51699" ry="4.4188" fill="black" fill-opacity="0.1"/>
<g opacity="0.1">
<mask id="path-6-inside-1" fill="white">
<path d="M40.4566 11.1943C40.357 10.9689 40.3564 10.7544 40.3584 10.5069C40.3604 10.2594 40.1881 10.0435 39.957 9.97416C39.4947 9.84116 38.8239 10.8533 38.4927 10.8015C38.144 10.6788 38.4652 9.90175 38.264 9.58698C38.1051 9.33742 37.7869 9.26758 37.5398 9.11148C37.0129 8.77821 37.0288 8.2452 36.7848 7.74094C36.5283 7.21203 35.9879 7.36814 35.5177 7.68035C35.1606 7.91758 34.8533 8.23544 34.4718 8.42492C34.1415 8.58873 33.7705 8.6483 33.4044 8.65703C32.9586 8.66781 32.4735 8.58616 32.1672 8.25239C31.9311 7.99564 31.846 7.61924 31.8948 7.26646C31.8863 7.2906 31.8788 7.31473 31.8714 7.33887C31.7518 7.74299 31.8216 8.21798 32.101 8.52506C32.4073 8.85883 32.8924 8.93997 33.3382 8.9297C33.7047 8.92097 34.0753 8.8614 34.406 8.69759C34.7885 8.5076 35.0958 8.19025 35.452 7.95302C35.9221 7.64081 36.463 7.4847 36.719 8.01361C36.9631 8.51787 36.9476 9.05088 37.4741 9.38415C37.7231 9.5382 38.0394 9.61009 38.1988 9.85965C38.2963 10.0159 37.9174 10.8752 38.264 10.9979C39.3764 11.1044 39.5034 10.0793 39.9656 10.2123C40.1967 10.2791 40.1645 10.6527 40.162 10.8997C40.1595 11.1467 40.1616 11.2634 40.2602 11.4889C40.6432 11.4709 41.11 11.4844 41.221 11.1044C41.2363 11.0498 41.2434 10.9932 41.242 10.9365C41.0801 11.2245 40.8012 11.1784 40.4566 11.1943Z"/>
</mask>
<path d="M40.4566 11.1943C40.357 10.9689 40.3564 10.7544 40.3584 10.5069C40.3604 10.2594 40.1881 10.0435 39.957 9.97416C39.4947 9.84116 38.8239 10.8533 38.4927 10.8015C38.144 10.6788 38.4652 9.90175 38.264 9.58698C38.1051 9.33742 37.7869 9.26758 37.5398 9.11148C37.0129 8.77821 37.0288 8.2452 36.7848 7.74094C36.5283 7.21203 35.9879 7.36814 35.5177 7.68035C35.1606 7.91758 34.8533 8.23544 34.4718 8.42492C34.1415 8.58873 33.7705 8.6483 33.4044 8.65703C32.9586 8.66781 32.4735 8.58616 32.1672 8.25239C31.9311 7.99564 31.846 7.61924 31.8948 7.26646C31.8863 7.2906 31.8788 7.31473 31.8714 7.33887C31.7518 7.74299 31.8216 8.21798 32.101 8.52506C32.4073 8.85883 32.8924 8.93997 33.3382 8.9297C33.7047 8.92097 34.0753 8.8614 34.406 8.69759C34.7885 8.5076 35.0958 8.19025 35.452 7.95302C35.9221 7.64081 36.463 7.4847 36.719 8.01361C36.9631 8.51787 36.9476 9.05088 37.4741 9.38415C37.7231 9.5382 38.0394 9.61009 38.1988 9.85965C38.2963 10.0159 37.9174 10.8752 38.264 10.9979C39.3764 11.1044 39.5034 10.0793 39.9656 10.2123C40.1967 10.2791 40.1645 10.6527 40.162 10.8997C40.1595 11.1467 40.1616 11.2634 40.2602 11.4889C40.6432 11.4709 41.11 11.4844 41.221 11.1044C41.2363 11.0498 41.2434 10.9932 41.242 10.9365C41.0801 11.2245 40.8012 11.1784 40.4566 11.1943Z" fill="black" fill-opacity="0.1"/>
<path d="M40.4566 11.1943L39.5419 11.5985L39.8187 12.2248L40.5027 12.1932L40.4566 11.1943ZM39.957 9.97416L40.2443 9.01626L40.2335 9.01315L39.957 9.97416ZM38.4927 10.8015L38.1606 11.7448L38.2474 11.7753L38.3382 11.7895L38.4927 10.8015ZM38.264 9.58698L37.4205 10.124L37.4215 10.1256L38.264 9.58698ZM37.5398 9.11148L37.0053 9.95664L37.0057 9.95684L37.5398 9.11148ZM36.7848 7.74094L37.6849 7.3053L37.6845 7.30458L36.7848 7.74094ZM35.5177 7.68035L34.9645 6.84728L34.9644 6.8474L35.5177 7.68035ZM34.4718 8.42492L34.9161 9.32076L34.9166 9.32055L34.4718 8.42492ZM33.4044 8.65703L33.3806 7.65731L33.3802 7.65732L33.4044 8.65703ZM32.1672 8.25239L32.904 7.57624L32.9033 7.57553L32.1672 8.25239ZM31.8948 7.26646L32.8853 7.40352L30.9512 6.93542L31.8948 7.26646ZM31.8714 7.33887L30.916 7.04313L30.9124 7.05523L31.8714 7.33887ZM32.101 8.52506L31.3613 9.19807L31.3642 9.2012L32.101 8.52506ZM33.3382 8.9297L33.3612 9.92943L33.362 9.92941L33.3382 8.9297ZM34.406 8.69759L34.8499 9.5937L34.8509 9.5932L34.406 8.69759ZM35.452 7.95302L34.8988 7.11995L34.8975 7.12078L35.452 7.95302ZM36.719 8.01361L37.6192 7.57797L37.6191 7.57793L36.719 8.01361ZM37.4741 9.38415L36.9392 10.2291L36.948 10.2346L37.4741 9.38415ZM38.1988 9.85965L39.0473 9.33037L39.0416 9.32141L38.1988 9.85965ZM38.264 10.9979L37.9303 11.9406L38.0463 11.9816L38.1687 11.9933L38.264 10.9979ZM39.9656 10.2123L40.2431 9.25161L40.2421 9.25132L39.9656 10.2123ZM40.2602 11.4889L39.344 11.8897L39.6198 12.52L40.3071 12.4878L40.2602 11.4889ZM41.221 11.1044L42.1809 11.3849L42.1839 11.3743L41.221 11.1044ZM41.242 10.9365L42.2416 10.9113L42.1503 7.27858L40.3702 10.4466L41.242 10.9365ZM41.3713 10.7901C41.371 10.7896 41.367 10.7829 41.3634 10.75C41.3584 10.7042 41.3573 10.6455 41.3583 10.515L39.3584 10.4989C39.3565 10.7305 39.3442 11.1511 39.5419 11.5985L41.3713 10.7901ZM41.3583 10.515C41.3642 9.79288 40.8718 9.20456 40.2443 9.01632L39.6696 10.932C39.5043 10.8824 39.3566 10.7259 39.3584 10.4989L41.3583 10.515ZM40.2335 9.01315C39.724 8.86656 39.2927 9.06789 39.0869 9.1845C38.8593 9.31339 38.6559 9.48523 38.523 9.59975C38.3562 9.74342 38.2796 9.81419 38.205 9.86881C38.1731 9.89222 38.1844 9.87969 38.2283 9.86034C38.2641 9.84457 38.4224 9.77838 38.6471 9.8135L38.3382 11.7895C38.6457 11.8376 38.8975 11.7511 39.0351 11.6904C39.1809 11.6261 39.3026 11.544 39.3873 11.4819C39.5462 11.3655 39.7282 11.2013 39.8284 11.115C39.9623 10.9996 40.034 10.9466 40.0726 10.9247C40.1329 10.8906 39.9588 11.0153 39.6804 10.9352L40.2335 9.01315ZM38.8247 9.85824C38.9737 9.9107 39.1028 10.0083 39.1936 10.1305C39.2752 10.2402 39.3031 10.3385 39.3123 10.3781C39.3253 10.4342 39.3159 10.4444 39.322 10.3127C39.3255 10.2368 39.3403 10.0321 39.3352 9.86181C39.3322 9.76613 39.3231 9.64436 39.2948 9.51326C39.2665 9.38246 39.2135 9.21559 39.1066 9.04838L37.4215 10.1256C37.3201 9.96707 37.3337 9.8455 37.3361 9.92276C37.3381 9.99051 37.3322 10.0467 37.3241 10.2198C37.3187 10.337 37.3069 10.5842 37.3641 10.8303C37.4295 11.1125 37.6312 11.5584 38.1606 11.7448L38.8247 9.85824ZM39.1076 9.04993C38.8857 8.70142 38.5772 8.52154 38.3985 8.4281C38.3147 8.38424 38.2127 8.33677 38.1699 8.31611C38.1106 8.28749 38.0861 8.27376 38.074 8.26611L37.0057 9.95684C37.1171 10.0272 37.225 10.0808 37.2999 10.117C37.3912 10.1611 37.425 10.176 37.4715 10.2003C37.5535 10.2432 37.4835 10.223 37.4205 10.124L39.1076 9.04993ZM38.0743 8.26631C38.0546 8.25382 38.0355 8.24964 37.9884 8.12837C37.9556 8.04383 37.9332 7.96718 37.8825 7.81132C37.838 7.67466 37.7764 7.49438 37.6849 7.3053L35.8847 8.17658C35.9152 8.23963 35.9431 8.31508 35.9808 8.43059C36.0121 8.52691 36.0645 8.69889 36.124 8.85229C36.2617 9.20691 36.4981 9.63587 37.0053 9.95664L38.0743 8.26631ZM37.6845 7.30458C37.55 7.02721 37.3436 6.77272 37.0485 6.60059C36.7546 6.4292 36.4464 6.38246 36.1786 6.39662C35.6849 6.42271 35.2506 6.65733 34.9645 6.84728L36.0709 8.51341C36.1495 8.46122 36.2145 8.42681 36.2622 8.40695C36.313 8.3858 36.318 8.39204 36.2841 8.39383C36.2422 8.39605 36.1467 8.38994 36.0409 8.32828C35.9339 8.26588 35.8913 8.19022 35.885 8.1773L37.6845 7.30458ZM34.9644 6.8474C34.7421 6.99507 34.523 7.17674 34.3864 7.28399C34.2262 7.40977 34.1209 7.48266 34.0269 7.5293L34.9166 9.32055C35.2042 9.1777 35.4433 8.99693 35.6214 8.8571C35.8231 8.69873 35.9362 8.60286 36.071 8.5133L34.9644 6.8474ZM34.0274 7.52909C33.8747 7.60483 33.6635 7.65056 33.3806 7.65731L33.4282 9.65674C33.8775 9.64603 34.4084 9.57263 34.9161 9.32076L34.0274 7.52909ZM33.3802 7.65732C33.2203 7.66119 33.0942 7.64666 33.0052 7.62154C32.9632 7.60966 32.9369 7.59749 32.9221 7.58907C32.9084 7.58126 32.9043 7.5766 32.904 7.57624L31.4304 8.92853C32.0396 9.5923 32.9055 9.66939 33.4286 9.65673L33.3802 7.65732ZM32.9033 7.57553C32.9102 7.58302 32.9005 7.57631 32.8914 7.54154C32.8821 7.50598 32.8779 7.45693 32.8853 7.40352L30.9042 7.12941C30.8243 7.70698 30.9491 8.40502 31.4311 8.92925L32.9033 7.57553ZM30.9512 6.93542C30.9355 6.97997 30.9227 7.02177 30.9161 7.04316L32.8266 7.63458C32.835 7.6077 32.8371 7.60123 32.8384 7.59751L30.9512 6.93542ZM30.9124 7.05523C30.715 7.72274 30.8002 8.58136 31.3613 9.19807L32.8406 7.85205C32.8462 7.85817 32.8301 7.84336 32.8207 7.79101C32.8112 7.73814 32.8144 7.67621 32.8303 7.62251L30.9124 7.05523ZM31.3642 9.2012C31.9736 9.86527 32.8401 9.94144 33.3612 9.92943L33.3151 7.92996C33.1544 7.93367 33.0279 7.9191 32.9387 7.89394C32.8966 7.88205 32.8703 7.86989 32.8556 7.86151C32.842 7.85375 32.838 7.84916 32.8377 7.84891L31.3642 9.2012ZM33.362 9.92941C33.812 9.9187 34.3421 9.84521 34.8499 9.59369L33.9622 7.80149C33.8085 7.87759 33.5975 7.92324 33.3144 7.92998L33.362 9.92941ZM34.8509 9.5932C35.1386 9.45029 35.3777 9.26984 35.5562 9.12972C35.7584 8.97104 35.8712 8.87528 36.0064 8.78525L34.8975 7.12078C34.6766 7.26799 34.4576 7.44952 34.3215 7.55632C34.1618 7.68168 34.056 7.7549 33.9612 7.80199L34.8509 9.5932ZM36.0051 8.78608C36.0836 8.73394 36.1487 8.69953 36.1964 8.67966C36.2473 8.65851 36.2523 8.66472 36.2186 8.6665C36.1768 8.66871 36.0812 8.66264 35.9753 8.60089C35.8681 8.53836 35.8253 8.46247 35.8189 8.44928L37.6191 7.57793C37.4847 7.30029 37.2783 7.04557 36.983 6.87332C36.689 6.70184 36.3808 6.65514 36.1131 6.66929C35.6194 6.69536 35.185 6.92989 34.8988 7.11995L36.0051 8.78608ZM35.8189 8.44925C35.8495 8.51242 35.8775 8.58797 35.9152 8.70353C35.9466 8.79993 35.999 8.97181 36.0586 9.12517C36.1962 9.47951 36.4325 9.90831 36.9392 10.2291L38.009 8.53921C37.9892 8.52672 37.97 8.52238 37.9228 8.40083C37.8899 8.31625 37.8675 8.2395 37.8167 8.08372C37.7722 7.9471 37.7106 7.76693 37.6192 7.57797L35.8189 8.44925ZM36.948 10.2346C37.0573 10.3022 37.1632 10.3543 37.2365 10.3895C37.3245 10.4318 37.3607 10.4481 37.4046 10.4712C37.4842 10.513 37.4172 10.4937 37.356 10.3979L39.0416 9.32141C38.821 8.97603 38.5161 8.79598 38.3355 8.70099C38.2493 8.65567 38.1498 8.60945 38.1034 8.58716C38.0424 8.5578 38.0154 8.54312 38.0002 8.53371L36.948 10.2346ZM37.3503 10.3889C37.2669 10.2552 37.2383 10.1342 37.2274 10.0728C37.2157 10.0074 37.2152 9.95875 37.2154 9.93927C37.2157 9.90358 37.2195 9.89284 37.2135 9.9311C37.2082 9.96477 37.2005 10.0053 37.1882 10.0707C37.1771 10.1296 37.1626 10.2065 37.1501 10.2862C37.1285 10.4235 37.0936 10.6754 37.132 10.9358C37.1725 11.2112 37.3433 11.7327 37.9303 11.9406L38.5978 10.0552C38.7729 10.1172 38.9144 10.2366 39.0052 10.3768C39.0849 10.5 39.105 10.6066 39.1106 10.6447C39.1195 10.7045 39.1082 10.7089 39.1259 10.5965C39.133 10.5513 39.1419 10.5029 39.1535 10.4415C39.1639 10.3866 39.1782 10.312 39.1893 10.2412C39.1997 10.1751 39.2143 10.0706 39.2153 9.95753C39.2158 9.89935 39.2132 9.81612 39.1962 9.72088C39.1799 9.62968 39.1429 9.48367 39.0472 9.3304L37.3503 10.3889ZM38.1687 11.9933C38.6108 12.0357 39.0026 11.9673 39.3448 11.8132C39.6758 11.6641 39.9091 11.4574 40.0622 11.3058C40.1315 11.2372 40.2066 11.1566 40.2392 11.1226C40.2858 11.074 40.2947 11.0677 40.2874 11.0736C40.2502 11.1035 40.011 11.266 39.6891 11.1733L40.2421 9.25132C39.689 9.09218 39.2607 9.33294 39.0349 9.51431C38.9334 9.5959 38.8481 9.68361 38.7956 9.73846C38.7291 9.8078 38.7001 9.83997 38.655 9.88459C38.5796 9.95929 38.5437 9.9805 38.5236 9.98954C38.5147 9.99357 38.4735 10.0134 38.3593 10.0024L38.1687 11.9933ZM39.6881 11.1731C39.5907 11.1449 39.4965 11.0967 39.4135 11.0299C39.3324 10.9646 39.2769 10.8937 39.2404 10.8338C39.2048 10.7755 39.1862 10.7261 39.1767 10.6963C39.1672 10.6663 39.1639 10.6463 39.1632 10.6413C39.1622 10.6352 39.1647 10.6497 39.1649 10.7009C39.1649 10.7243 39.1646 10.7501 39.1639 10.7823C39.1634 10.8107 39.1624 10.8524 39.162 10.8896L41.1619 10.9098C41.1624 10.8611 41.1766 10.5747 41.1396 10.3355C41.1072 10.1257 40.9596 9.45858 40.2431 9.25161L39.6881 11.1731ZM39.162 10.8896C39.1609 11.0012 39.1582 11.1676 39.1831 11.343C39.2112 11.5411 39.2676 11.715 39.344 11.8897L41.1764 11.0881C41.1638 11.0593 41.1603 11.0478 41.1603 11.0477C41.1603 11.0477 41.1605 11.0482 41.1607 11.0492C41.161 11.0503 41.1613 11.0516 41.1617 11.0532C41.1624 11.0566 41.1629 11.0596 41.1632 11.0618C41.1638 11.0658 41.1627 11.0606 41.162 11.0361C41.1612 11.0086 41.1613 10.9729 41.1619 10.9098L39.162 10.8896ZM40.3071 12.4878C40.4237 12.4823 40.7854 12.4805 41.0941 12.4002C41.4622 12.3046 41.9896 12.0395 42.1809 11.3849L40.2612 10.8238C40.2744 10.7785 40.2971 10.7259 40.3328 10.6727C40.3685 10.6194 40.4102 10.5759 40.452 10.5423C40.4928 10.5096 40.529 10.49 40.553 10.479C40.5765 10.4683 40.5908 10.4646 40.5911 10.4645C40.5914 10.4645 40.5832 10.4665 40.5636 10.4693C40.5442 10.472 40.5185 10.4748 40.484 10.4773C40.4493 10.4798 40.411 10.4817 40.3647 10.4837C40.3251 10.4853 40.2631 10.4876 40.2133 10.49L40.3071 12.4878ZM42.1839 11.3743C42.2262 11.2236 42.2456 11.0675 42.2416 10.9113L40.2423 10.9616C40.2412 10.9189 40.2465 10.8761 40.2582 10.8344L42.1839 11.3743ZM40.3702 10.4466C40.3987 10.3958 40.4539 10.3249 40.5422 10.2657C40.6258 10.2095 40.6981 10.1915 40.7228 10.1866C40.7398 10.1832 40.7347 10.1863 40.6707 10.1883C40.6395 10.1893 40.6095 10.1897 40.5625 10.1907C40.5196 10.1915 40.467 10.1927 40.4104 10.1953L40.5027 12.1932C40.59 12.1892 40.6054 12.1913 40.7332 12.1873C40.8235 12.1845 40.9628 12.1781 41.1129 12.1482C41.2706 12.1169 41.4644 12.0554 41.6566 11.9264C41.8535 11.7943 42.0043 11.6212 42.1138 11.4263L40.3702 10.4466Z" fill="black" fill-opacity="0.1" mask="url(#path-6-inside-1)"/>
</g>
<path d="M35.5062 7.82002C35.1437 8.05299 34.8318 8.36462 34.4445 8.5512C34.1094 8.71205 33.7327 8.77055 33.3612 8.77912C32.9062 8.78921 32.4163 8.70953 32.1054 8.38176C31.8198 8.07921 31.7516 7.61378 31.8724 7.21692C31.9932 6.82007 32.2829 6.49079 32.6231 6.25227C32.9633 6.01376 33.3581 5.84887 33.5836 5.50748C33.7029 5.32696 33.7605 5.11416 33.8596 4.92204C34.1766 4.30734 34.8894 3.97453 35.5784 3.93318C36.2675 3.89183 36.9505 4.09656 37.6066 4.31844C38.2628 4.54031 38.9241 4.78437 39.6166 4.83026C39.925 4.84942 40.2455 4.83026 40.5317 4.94674C40.9164 5.10256 41.1686 5.47521 41.3405 5.85441C41.5331 6.28203 41.6529 6.74897 41.6327 7.21591C41.5902 8.21284 40.93 9.1911 41.2202 10.1462C41.297 10.4008 41.4411 10.662 41.3643 10.9167C41.252 11.2883 40.7713 11.373 40.3825 11.3907C40.2814 11.1693 40.3355 10.9132 40.3375 10.6701C40.3396 10.427 40.2496 10.1401 40.015 10.0746C39.5459 9.94396 39.2223 10.8163 38.7613 10.659C38.4099 10.5385 38.5009 10.0035 38.2967 9.69435C38.1354 9.44928 37.8119 9.3807 37.5611 9.22741C37.0268 8.90014 37.043 8.37672 36.7948 7.88154C36.5329 7.36013 35.9834 7.51343 35.5062 7.82002Z" fill="black" fill-opacity="0.1"/>
<path d="M38.2534 10.2383L38.4934 9.665C38.6482 9.29519 39.1239 9.19245 39.4175 9.4654C39.6501 9.6816 39.664 10.0452 39.4487 10.2785L39.0894 10.6677C38.9106 10.8615 38.6131 10.932 38.3853 10.7991C38.1902 10.6855 38.1662 10.4466 38.2534 10.2383Z" fill="black" fill-opacity="0.1"/>
<path d="M35.7432 18.068L36.0378 19.7373L36.7251 20.1301L37.4125 20.4247C37.4125 20.4247 38.1981 20.0319 38.8854 19.5409C39.1979 19.3177 39.4291 19.0946 39.5885 18.9175L39.8674 18.5589C39.8674 18.5589 39.7797 18.705 39.5885 18.9175L39.18 19.4427L37.5107 20.5229L37.4125 20.621L36.7251 20.2283L35.9396 19.8355L35.7432 18.068Z" fill="black" fill-opacity="0.15"/>
<path d="M30.1461 21.603V19.4427L34.3685 16.9878L36.4306 16.5951L35.645 17.2824L35.9396 19.7373L37.4125 20.6211L39.18 19.4427L40.3584 17.8716L41.4385 15.3185L43.0097 16.0059L44.5808 16.5951L46.1519 16.9878L48.3122 17.8716L49.8834 20.6211L50.4725 24.0579L46.1519 24.8435L45.0718 28.4767V30.0478V31.7172L45.6609 33.8775L46.6429 35.0558V37.4125V43.8934H30.9316L31.4717 36.0378L31.7172 30.7352V27.593L31.4717 26.3164L31.2262 25.0399L30.1461 21.603Z" fill="black" fill-opacity="0.1"/>
<rect y="29.8514" width="55.3823" height="14.1402" fill="black" fill-opacity="0.1"/>
<path d="M28.1821 22.9777L30.2442 20.2283L30.4406 22.2904L31.128 23.7633V25.5308L31.5208 27.102L30.146 27.9857L23.6651 30.7352L15.7113 28.3785V26.3164L23.6651 27.102L25.9236 25.138L28.1821 22.9777Z" fill="black" fill-opacity="0.1"/>
<path d="M30.5602 19.0499L30.0479 19.3523V21.5694L30.5602 23.0811L30.8676 24.0889L31.4824 26.7092L31.9947 26.3061L32.4045 25.9029L30.8676 19.0499H30.5602Z" fill="black" fill-opacity="0.1"/>
<path d="M16.416 26.434C16.416 26.434 11.8887 24.1037 12.3811 26.2179C12.8736 28.3322 16.2691 28.5403 16.2691 28.5403L16.416 26.434Z" fill="black" fill-opacity="0.1"/>
<path d="M42.0277 34.4666C42.0277 34.4666 37.8408 36.5273 39.7168 37.0494C41.5928 37.5716 43.0096 35.4486 43.0096 35.4486L42.0277 34.4666Z" fill="black" fill-opacity="0.1"/>
<path d="M46.1702 22.0903L45.9555 24.9357L49.6869 24.2627L50.3743 23.7718L49.8833 21.7097L49.3923 19.6476C49.3923 19.6476 48.8526 17.9159 47.5266 17.6836C46.2007 17.4514 46.1702 22.0903 46.1702 22.0903Z" fill="black" fill-opacity="0.1"/>
<path d="M45.9555 24.7453C45.1699 24.7453 43.5988 29.8514 43.5988 29.8514L44.5808 29.9496L45.1699 29.655C45.1699 29.655 47.2815 24.9775 45.9555 24.7453Z" fill="black" fill-opacity="0.1"/>
<path d="M49.8833 23.5669L47.8212 24.2543L46.1519 24.5489V24.9417L45.5627 29.3605L43.8934 31.9135L41.9295 34.4666L43.0097 35.5468L46.1519 32.5027L48.4104 29.8514L49.8833 23.5669Z" fill="black" fill-opacity="0.1"/>
<path d="M46.3666 22.0903L46.1519 24.9357L49.8833 24.2627L50.5707 23.7718L50.0797 21.7097L49.5888 19.6476C49.5888 19.6476 49.049 17.9159 47.723 17.6836C46.3971 17.4514 46.3666 22.0903 46.3666 22.0903Z" fill="black" fill-opacity="0.1"/>
<rect x="11.9799" y="22.2679" width="0.589173" height="4.71339" transform="rotate(-27.5 11.9799 22.2679)" fill="black"/>
<path d="M33.1901 18.4251L36.6798 16.7682L42.2845 15.3185L44.188 18.4251L40.1695 21.0139H35.728L33.1901 18.4251Z" fill="#FFB0B1"/>
<path d="M38.227 18.2443L36.9481 16.7276C36.9944 16.2027 36.9655 15.6854 36.8629 15.2015C36.7516 14.6963 36.5625 14.1788 36.2422 13.8494C35.4333 13.0145 41.2831 11.3371 41.2831 11.3371C41.265 11.722 41.2625 12.105 41.2757 12.4845C41.3061 13.4095 41.4403 14.6312 41.9109 15.095C42.7107 15.884 38.227 18.2443 38.227 18.2443Z" fill="#FFB0B1"/>
<path d="M40.5547 18.4607L39.7692 17.9698L38.9836 17.2824L36.7251 14.5329L37.0197 16.1041L36.9215 16.595L36.2341 17.2824L36.4305 19.6391L38.0017 20.621L39.7692 19.5409L40.5547 18.4607Z" fill="black" fill-opacity="0.1"/>
<ellipse cx="37.1179" cy="10.1141" rx="4.51699" ry="4.4188" fill="#FFB0B1"/>
<g opacity="0.1">
<mask id="path-26-inside-2" fill="white">
<path d="M41.0457 11.1943C40.9461 10.9689 40.9456 10.7544 40.9476 10.5069C40.9495 10.2594 40.7772 10.0435 40.5461 9.97416C40.0839 9.84116 39.4131 10.8533 39.0818 10.8015C38.7332 10.6788 39.0544 9.90175 38.8532 9.58698C38.6943 9.33742 38.3761 9.26758 38.129 9.11148C37.6021 8.77821 37.618 8.2452 37.3739 7.74094C37.1174 7.21203 36.577 7.36814 36.1069 7.68035C35.7498 7.91758 35.4425 8.23544 35.0609 8.42492C34.7307 8.58873 34.3597 8.6483 33.9936 8.65703C33.5478 8.66781 33.0627 8.58616 32.7564 8.25239C32.5203 7.99564 32.4351 7.61924 32.4839 7.26646C32.4755 7.2906 32.468 7.31473 32.4605 7.33887C32.341 7.74299 32.4107 8.21798 32.6901 8.52506C32.9965 8.85883 33.4816 8.93997 33.9273 8.9297C34.2939 8.92097 34.6645 8.8614 34.9952 8.69759C35.3777 8.5076 35.685 8.19025 36.0411 7.95302C36.5113 7.64081 37.0522 7.4847 37.3082 8.01361C37.5523 8.51787 37.5368 9.05088 38.0633 9.38415C38.3123 9.5382 38.6286 9.61009 38.788 9.85965C38.8854 10.0159 38.5065 10.8752 38.8532 10.9979C39.9656 11.1044 40.0926 10.0793 40.5548 10.2123C40.7859 10.2791 40.7537 10.6527 40.7512 10.8997C40.7487 11.1467 40.7507 11.2634 40.8494 11.4889C41.2324 11.4709 41.6991 11.4844 41.8102 11.1044C41.8255 11.0498 41.8326 10.9932 41.8311 10.9365C41.6693 11.2245 41.3904 11.1784 41.0457 11.1943Z"/>
</mask>
<path d="M41.0457 11.1943C40.9461 10.9689 40.9456 10.7544 40.9476 10.5069C40.9495 10.2594 40.7772 10.0435 40.5461 9.97416C40.0839 9.84116 39.4131 10.8533 39.0818 10.8015C38.7332 10.6788 39.0544 9.90175 38.8532 9.58698C38.6943 9.33742 38.3761 9.26758 38.129 9.11148C37.6021 8.77821 37.618 8.2452 37.3739 7.74094C37.1174 7.21203 36.577 7.36814 36.1069 7.68035C35.7498 7.91758 35.4425 8.23544 35.0609 8.42492C34.7307 8.58873 34.3597 8.6483 33.9936 8.65703C33.5478 8.66781 33.0627 8.58616 32.7564 8.25239C32.5203 7.99564 32.4351 7.61924 32.4839 7.26646C32.4755 7.2906 32.468 7.31473 32.4605 7.33887C32.341 7.74299 32.4107 8.21798 32.6901 8.52506C32.9965 8.85883 33.4816 8.93997 33.9273 8.9297C34.2939 8.92097 34.6645 8.8614 34.9952 8.69759C35.3777 8.5076 35.685 8.19025 36.0411 7.95302C36.5113 7.64081 37.0522 7.4847 37.3082 8.01361C37.5523 8.51787 37.5368 9.05088 38.0633 9.38415C38.3123 9.5382 38.6286 9.61009 38.788 9.85965C38.8854 10.0159 38.5065 10.8752 38.8532 10.9979C39.9656 11.1044 40.0926 10.0793 40.5548 10.2123C40.7859 10.2791 40.7537 10.6527 40.7512 10.8997C40.7487 11.1467 40.7507 11.2634 40.8494 11.4889C41.2324 11.4709 41.6991 11.4844 41.8102 11.1044C41.8255 11.0498 41.8326 10.9932 41.8311 10.9365C41.6693 11.2245 41.3904 11.1784 41.0457 11.1943Z" fill="black"/>
<path d="M41.0457 11.1943L40.1311 11.5985L40.4078 12.2248L41.0919 12.1932L41.0457 11.1943ZM40.5461 9.97416L40.8335 9.01626L40.8226 9.01315L40.5461 9.97416ZM39.0818 10.8015L38.7498 11.7448L38.8365 11.7753L38.9274 11.7895L39.0818 10.8015ZM38.8532 9.58698L38.0096 10.124L38.0106 10.1256L38.8532 9.58698ZM38.129 9.11148L37.5945 9.95664L37.5948 9.95684L38.129 9.11148ZM37.3739 7.74094L38.2741 7.3053L38.2737 7.30458L37.3739 7.74094ZM36.1069 7.68035L35.5537 6.84728L35.5535 6.8474L36.1069 7.68035ZM35.0609 8.42492L35.5053 9.32076L35.5057 9.32055L35.0609 8.42492ZM33.9936 8.65703L33.9697 7.65731L33.9694 7.65732L33.9936 8.65703ZM32.7564 8.25239L33.4932 7.57624L33.4925 7.57553L32.7564 8.25239ZM32.4839 7.26646L33.4745 7.40352L31.5403 6.93542L32.4839 7.26646ZM32.4605 7.33887L31.5052 7.04313L31.5016 7.05523L32.4605 7.33887ZM32.6901 8.52506L31.9505 9.19807L31.9534 9.2012L32.6901 8.52506ZM33.9273 8.9297L33.9504 9.92943L33.9511 9.92941L33.9273 8.9297ZM34.9952 8.69759L35.439 9.5937L35.44 9.5932L34.9952 8.69759ZM36.0411 7.95302L35.4879 7.11995L35.4867 7.12078L36.0411 7.95302ZM37.3082 8.01361L38.2083 7.57797L38.2083 7.57793L37.3082 8.01361ZM38.0633 9.38415L37.5284 10.2291L37.5372 10.2346L38.0633 9.38415ZM38.788 9.85965L39.6365 9.33037L39.6307 9.32141L38.788 9.85965ZM38.8532 10.9979L38.5195 11.9406L38.6354 11.9816L38.7579 11.9933L38.8532 10.9979ZM40.5548 10.2123L40.8323 9.25161L40.8313 9.25132L40.5548 10.2123ZM40.8494 11.4889L39.9332 11.8897L40.2089 12.52L40.8962 12.4878L40.8494 11.4889ZM41.8102 11.1044L42.7701 11.3849L42.7731 11.3743L41.8102 11.1044ZM41.8311 10.9365L42.8308 10.9113L42.7395 7.27858L40.9593 10.4466L41.8311 10.9365ZM41.9604 10.7901C41.9602 10.7896 41.9562 10.7829 41.9526 10.75C41.9476 10.7042 41.9465 10.6455 41.9475 10.515L39.9476 10.4989C39.9457 10.7305 39.9334 11.1511 40.1311 11.5985L41.9604 10.7901ZM41.9475 10.515C41.9533 9.79288 41.461 9.20456 40.8334 9.01632L40.2588 10.932C40.0935 10.8824 39.9458 10.7259 39.9476 10.4989L41.9475 10.515ZM40.8226 9.01315C40.3132 8.86656 39.8819 9.06789 39.6761 9.1845C39.4485 9.31339 39.2451 9.48523 39.1122 9.59975C38.9454 9.74342 38.8687 9.81419 38.7942 9.86881C38.7623 9.89222 38.7736 9.87969 38.8175 9.86034C38.8533 9.84457 39.0116 9.77838 39.2363 9.8135L38.9274 11.7895C39.2349 11.8376 39.4866 11.7511 39.6243 11.6904C39.7701 11.6261 39.8918 11.544 39.9765 11.4819C40.1354 11.3655 40.3174 11.2013 40.4176 11.115C40.5515 10.9996 40.6232 10.9466 40.6618 10.9247C40.7221 10.8906 40.548 11.0153 40.2696 10.9352L40.8226 9.01315ZM39.4139 9.85824C39.5629 9.9107 39.692 10.0083 39.7828 10.1305C39.8643 10.2402 39.8922 10.3385 39.9014 10.3781C39.9144 10.4342 39.905 10.4444 39.9112 10.3127C39.9147 10.2368 39.9295 10.0321 39.9243 9.86181C39.9214 9.76613 39.9123 9.64436 39.8839 9.51326C39.8557 9.38246 39.8027 9.21559 39.6958 9.04838L38.0106 10.1256C37.9093 9.96707 37.9229 9.8455 37.9253 9.92276C37.9273 9.99051 37.9214 10.0467 37.9133 10.2198C37.9079 10.337 37.8961 10.5842 37.9532 10.8303C38.0187 11.1125 38.2204 11.5584 38.7498 11.7448L39.4139 9.85824ZM39.6968 9.04993C39.4749 8.70142 39.1663 8.52154 38.9877 8.4281C38.9039 8.38424 38.8018 8.33677 38.7591 8.31611C38.6998 8.28749 38.6753 8.27376 38.6632 8.26611L37.5948 9.95684C37.7062 10.0272 37.8142 10.0808 37.889 10.117C37.9804 10.1611 38.0142 10.176 38.0606 10.2003C38.1426 10.2432 38.0726 10.223 38.0096 10.124L39.6968 9.04993ZM38.6635 8.26631C38.6438 8.25382 38.6247 8.24964 38.5776 8.12837C38.5448 8.04383 38.5224 7.96718 38.4716 7.81132C38.4271 7.67466 38.3656 7.49438 38.2741 7.3053L36.4738 8.17658C36.5043 8.23963 36.5323 8.31508 36.5699 8.43059C36.6013 8.52691 36.6536 8.69889 36.7132 8.85229C36.8509 9.20691 37.0873 9.63587 37.5945 9.95664L38.6635 8.26631ZM38.2737 7.30458C38.1392 7.02721 37.9328 6.77272 37.6376 6.60059C37.3437 6.4292 37.0356 6.38246 36.7678 6.39662C36.2741 6.42271 35.8398 6.65733 35.5537 6.84728L36.66 8.51341C36.7386 8.46122 36.8037 8.42681 36.8514 8.40695C36.9022 8.3858 36.9072 8.39204 36.8733 8.39383C36.8314 8.39605 36.7358 8.38994 36.6301 8.32828C36.5231 8.26588 36.4804 8.19022 36.4742 8.1773L38.2737 7.30458ZM35.5535 6.8474C35.3312 6.99507 35.1121 7.17674 34.9755 7.28399C34.8153 7.40977 34.71 7.48266 34.6161 7.5293L35.5057 9.32055C35.7934 9.1777 36.0325 8.99693 36.2106 8.8571C36.4123 8.69873 36.5254 8.60286 36.6602 8.5133L35.5535 6.8474ZM34.6165 7.52909C34.4639 7.60483 34.2527 7.65056 33.9697 7.65731L34.0174 9.65674C34.4667 9.64603 34.9976 9.57263 35.5053 9.32076L34.6165 7.52909ZM33.9694 7.65732C33.8095 7.66119 33.6834 7.64666 33.5944 7.62154C33.5523 7.60966 33.5261 7.59749 33.5113 7.58907C33.4976 7.58126 33.4935 7.5766 33.4932 7.57624L32.0196 8.92853C32.6288 9.5923 33.4947 9.66939 34.0178 9.65673L33.9694 7.65732ZM33.4925 7.57553C33.4994 7.58302 33.4897 7.57631 33.4806 7.54154C33.4712 7.50598 33.4671 7.45693 33.4745 7.40352L31.4934 7.12941C31.4135 7.70698 31.5382 8.40502 32.0203 8.92925L33.4925 7.57553ZM31.5403 6.93542C31.5247 6.97997 31.5119 7.02177 31.5053 7.04316L33.4158 7.63458C33.4241 7.6077 33.4263 7.60123 33.4276 7.59751L31.5403 6.93542ZM31.5016 7.05523C31.3042 7.72274 31.3894 8.58136 31.9505 9.19807L33.4298 7.85205C33.4354 7.85817 33.4193 7.84336 33.4099 7.79101C33.4004 7.73814 33.4036 7.67621 33.4195 7.62251L31.5016 7.05523ZM31.9534 9.2012C32.5628 9.86527 33.4293 9.94144 33.9504 9.92943L33.9043 7.92996C33.7435 7.93367 33.6171 7.9191 33.5279 7.89394C33.4857 7.88205 33.4595 7.86989 33.4448 7.86151C33.4311 7.85375 33.4271 7.84916 33.4269 7.84891L31.9534 9.2012ZM33.9511 9.92941C34.4012 9.9187 34.9312 9.84521 35.439 9.59369L34.5513 7.80149C34.3977 7.87759 34.1866 7.92324 33.9035 7.92998L33.9511 9.92941ZM35.44 9.5932C35.7278 9.45029 35.9668 9.26984 36.1454 9.12972C36.3476 8.97104 36.4604 8.87528 36.5955 8.78525L35.4867 7.12078C35.2657 7.26799 35.0468 7.44952 34.9107 7.55632C34.751 7.68168 34.6451 7.7549 34.5503 7.80199L35.44 9.5932ZM36.5943 8.78608C36.6728 8.73394 36.7379 8.69953 36.7856 8.67966C36.8365 8.65851 36.8415 8.66472 36.8077 8.6665C36.7659 8.66871 36.6703 8.66264 36.5645 8.60089C36.4573 8.53836 36.4145 8.46247 36.4081 8.44928L38.2083 7.57793C38.0739 7.30029 37.8675 7.04557 37.5722 6.87332C37.2782 6.70184 36.97 6.65514 36.7022 6.66929C36.2086 6.69536 35.7742 6.92989 35.4879 7.11995L36.5943 8.78608ZM36.4081 8.44925C36.4387 8.51242 36.4667 8.58797 36.5043 8.70353C36.5358 8.79993 36.5881 8.97181 36.6477 9.12517C36.7854 9.47951 37.0217 9.90831 37.5284 10.2291L38.5981 8.53921C38.5784 8.52672 38.5592 8.52238 38.5119 8.40083C38.4791 8.31625 38.4567 8.2395 38.4059 8.08372C38.3613 7.9471 38.2998 7.76693 38.2083 7.57797L36.4081 8.44925ZM37.5372 10.2346C37.6465 10.3022 37.7524 10.3543 37.8257 10.3895C37.9137 10.4318 37.9499 10.4481 37.9938 10.4712C38.0734 10.513 38.0064 10.4937 37.9452 10.3979L39.6307 9.32141C39.4102 8.97603 39.1053 8.79598 38.9247 8.70099C38.8385 8.65567 38.7389 8.60945 38.6926 8.58716C38.6316 8.5578 38.6046 8.54312 38.5893 8.53371L37.5372 10.2346ZM37.9395 10.3889C37.8561 10.2552 37.8275 10.1342 37.8165 10.0728C37.8049 10.0074 37.8044 9.95875 37.8046 9.93927C37.8049 9.90358 37.8086 9.89284 37.8026 9.9311C37.7973 9.96477 37.7897 10.0053 37.7774 10.0707C37.7663 10.1296 37.7518 10.2065 37.7392 10.2862C37.7177 10.4235 37.6828 10.6754 37.7211 10.9358C37.7616 11.2112 37.9325 11.7327 38.5195 11.9406L39.1869 10.0552C39.362 10.1172 39.5036 10.2366 39.5944 10.3768C39.6741 10.5 39.6942 10.6066 39.6998 10.6447C39.7086 10.7045 39.6974 10.7089 39.715 10.5965C39.7221 10.5513 39.7311 10.5029 39.7427 10.4415C39.7531 10.3866 39.7673 10.312 39.7784 10.2412C39.7888 10.1751 39.8035 10.0706 39.8045 9.95753C39.805 9.89935 39.8024 9.81612 39.7853 9.72088C39.769 9.62968 39.732 9.48367 39.6364 9.3304L37.9395 10.3889ZM38.7579 11.9933C39.2 12.0357 39.5918 11.9673 39.9339 11.8132C40.265 11.6641 40.4983 11.4574 40.6514 11.3058C40.7206 11.2372 40.7958 11.1566 40.8284 11.1226C40.875 11.074 40.8839 11.0677 40.8766 11.0736C40.8393 11.1035 40.6002 11.266 40.2782 11.1733L40.8313 9.25132C40.2782 9.09218 39.8499 9.33294 39.6241 9.51431C39.5225 9.5959 39.4373 9.68361 39.3847 9.73846C39.3183 9.8078 39.2893 9.83997 39.2442 9.88459C39.1687 9.95929 39.1329 9.9805 39.1128 9.98954C39.1038 9.99357 39.0626 10.0134 38.9485 10.0024L38.7579 11.9933ZM40.2773 11.1731C40.1799 11.1449 40.0856 11.0967 40.0027 11.0299C39.9216 10.9646 39.866 10.8937 39.8295 10.8338C39.794 10.7755 39.7753 10.7261 39.7659 10.6963C39.7564 10.6663 39.7531 10.6463 39.7523 10.6413C39.7514 10.6352 39.7539 10.6497 39.754 10.7009C39.7541 10.7243 39.7537 10.7501 39.7531 10.7823C39.7526 10.8107 39.7516 10.8524 39.7512 10.8896L41.7511 10.9098C41.7516 10.8611 41.7658 10.5747 41.7288 10.3355C41.6963 10.1257 41.5488 9.45858 40.8323 9.25161L40.2773 11.1731ZM39.7512 10.8896C39.7501 11.0012 39.7474 11.1676 39.7723 11.343C39.8004 11.5411 39.8568 11.715 39.9332 11.8897L41.7655 11.0881C41.7529 11.0593 41.7495 11.0478 41.7495 11.0477C41.7495 11.0477 41.7496 11.0482 41.7499 11.0492C41.7502 11.0503 41.7505 11.0516 41.7508 11.0532C41.7516 11.0566 41.7521 11.0596 41.7524 11.0618C41.753 11.0658 41.7519 11.0606 41.7512 11.0361C41.7504 11.0086 41.7505 10.9729 41.7511 10.9098L39.7512 10.8896ZM40.8962 12.4878C41.0129 12.4823 41.3746 12.4805 41.6833 12.4002C42.0514 12.3046 42.5787 12.0395 42.7701 11.3849L40.8504 10.8238C40.8636 10.7785 40.8863 10.7259 40.922 10.6727C40.9577 10.6194 40.9994 10.5759 41.0412 10.5423C41.082 10.5096 41.1182 10.49 41.1422 10.479C41.1657 10.4683 41.18 10.4646 41.1802 10.4645C41.1805 10.4645 41.1724 10.4665 41.1528 10.4693C41.1334 10.472 41.1076 10.4748 41.0732 10.4773C41.0385 10.4798 41.0002 10.4817 40.9539 10.4837C40.9143 10.4853 40.8523 10.4876 40.8025 10.49L40.8962 12.4878ZM42.7731 11.3743C42.8154 11.2236 42.8347 11.0675 42.8308 10.9113L40.8314 10.9616C40.8304 10.9189 40.8357 10.8761 40.8473 10.8344L42.7731 11.3743ZM40.9593 10.4466C40.9879 10.3958 41.0431 10.3249 41.1314 10.2657C41.215 10.2095 41.2872 10.1915 41.3119 10.1866C41.329 10.1832 41.3238 10.1863 41.2599 10.1883C41.2287 10.1893 41.1987 10.1897 41.1517 10.1907C41.1087 10.1915 41.0561 10.1927 40.9996 10.1953L41.0919 12.1932C41.1792 12.1892 41.1946 12.1913 41.3223 12.1873C41.4127 12.1845 41.552 12.1781 41.702 12.1482C41.8598 12.1169 42.0536 12.0554 42.2458 11.9264C42.4427 11.7943 42.5935 11.6212 42.7029 11.4263L40.9593 10.4466Z" fill="black" mask="url(#path-26-inside-2)"/>
</g>
<path d="M36.0953 7.82002C35.7329 8.05299 35.4209 8.36462 35.0337 8.5512C34.6985 8.71205 34.3219 8.77055 33.9504 8.77912C33.4954 8.78921 33.0055 8.70953 32.6946 8.38176C32.409 8.07921 32.3407 7.61378 32.4616 7.21692C32.5824 6.82007 32.872 6.49079 33.2123 6.25227C33.5525 6.01376 33.9473 5.84887 34.1728 5.50748C34.2921 5.32696 34.3497 5.11416 34.4488 4.92204C34.7658 4.30734 35.4786 3.97453 36.1676 3.93318C36.8567 3.89183 37.5396 4.09656 38.1958 4.31844C38.852 4.54031 39.5132 4.78437 40.2058 4.83026C40.5142 4.84942 40.8347 4.83026 41.1208 4.94674C41.5055 5.10256 41.7578 5.47521 41.9297 5.85441C42.1223 6.28203 42.2421 6.74897 42.2219 7.21591C42.1794 8.21284 41.5192 9.1911 41.8094 10.1462C41.8862 10.4008 42.0303 10.662 41.9534 10.9167C41.8412 11.2883 41.3605 11.373 40.9717 11.3907C40.8706 11.1693 40.9247 10.9132 40.9267 10.6701C40.9287 10.427 40.8387 10.1401 40.6042 10.0746C40.135 9.94396 39.8115 10.8163 39.3505 10.659C38.9991 10.5385 39.0901 10.0035 38.8859 9.69435C38.7246 9.44928 38.4011 9.3807 38.1503 9.22741C37.616 8.90014 37.6321 8.37672 37.3839 7.88154C37.1221 7.36013 36.5725 7.51343 36.0953 7.82002Z" fill="#575A89"/>
<path d="M38.8426 10.2383L39.0826 9.665C39.2374 9.29519 39.7131 9.19245 40.0067 9.4654C40.2393 9.6816 40.2532 10.0452 40.0378 10.2785L39.6786 10.6677C39.4997 10.8615 39.2023 10.932 38.9744 10.7991C38.7794 10.6855 38.7554 10.4466 38.8426 10.2383Z" fill="#575A89"/>
<path d="M36.3323 18.068L36.6269 19.7373L37.3143 20.1301L38.0017 20.4247C38.0017 20.4247 38.7872 20.0319 39.4746 19.5409C39.787 19.3177 40.0183 19.0946 40.1777 18.9175L40.4565 18.5589C40.4565 18.5589 40.3689 18.705 40.1777 18.9175L39.7692 19.4427L38.0999 20.5229L38.0017 20.621L37.3143 20.2283L36.5287 19.8355L36.3323 18.068Z" fill="black" fill-opacity="0.15"/>
<path d="M30.7352 21.603V19.4427L34.9576 16.9878L37.0197 16.5951L36.2341 17.2824L36.5287 19.7373L38.0016 20.6211L39.7692 19.4427L40.9475 17.8716L42.0277 15.3185L43.5988 16.0059L45.1699 16.5951L46.741 16.9878L48.9013 17.8716L50.4725 20.6211L51.0616 24.0579L46.741 24.8435L45.6609 28.4767V30.0478V31.7172L46.2501 33.8775L47.232 35.0558V37.4125V43.8934H31.5207L32.0608 36.0378L32.3063 30.7352V27.593L32.0608 26.3164L31.8153 25.0399L30.7352 21.603Z" fill="#FFCCBB"/>
<rect x="0.589172" y="29.8514" width="55.3823" height="14.1402" fill="#C4C4C4"/>
<path d="M28.7713 22.9777L30.8334 20.2283L31.0298 22.2904L31.7172 23.7633V25.5308L32.11 27.102L30.7352 27.9857L24.2543 30.7352L16.3005 28.3785V26.3164L24.2543 27.102L26.5128 25.138L28.7713 22.9777Z" fill="#FFB0B1"/>
<path d="M31.1493 19.0499L30.637 19.3523V21.5694L31.1493 23.0811L31.4567 24.0889L32.0715 26.7092L32.5839 26.3061L32.9937 25.9029L31.4567 19.0499H31.1493Z" fill="#FDD5C7"/>
<path d="M17.0052 26.434C17.0052 26.434 12.4778 24.1037 12.9703 26.2179C13.4627 28.3322 16.8582 28.5403 16.8582 28.5403L17.0052 26.434Z" fill="#FFB0B1"/>
<path d="M42.6169 34.4666C42.6169 34.4666 38.43 36.5273 40.306 37.0494C42.182 37.5716 43.5988 35.4486 43.5988 35.4486L42.6169 34.4666Z" fill="#FFB0B1"/>
<path d="M46.7594 22.0903L46.5447 24.9357L50.2761 24.2627L50.9635 23.7718L50.4725 21.7097L49.9815 19.6476C49.9815 19.6476 49.4418 17.9159 48.1158 17.6836C46.7898 17.4514 46.7594 22.0903 46.7594 22.0903Z" fill="black" fill-opacity="0.1"/>
<path d="M46.5447 24.7453C45.7591 24.7453 44.188 29.8514 44.188 29.8514L45.1699 29.9496L45.7591 29.655C45.7591 29.655 47.8706 24.9775 46.5447 24.7453Z" fill="black" fill-opacity="0.1"/>
<path d="M50.4725 23.5669L48.4104 24.2543L46.7411 24.5489V24.9417L46.1519 29.3605L44.4826 31.9135L42.5187 34.4666L43.5988 35.5468L46.7411 32.5027L48.9996 29.8514L50.4725 23.5669Z" fill="#FFB0B1"/>
<path d="M46.9558 22.0903L46.7411 24.9357L50.4725 24.2627L51.1599 23.7718L50.6689 21.7097L50.1779 19.6476C50.1779 19.6476 49.6382 17.9159 48.3122 17.6836C46.9863 17.4514 46.9558 22.0903 46.9558 22.0903Z" fill="#FFCCBB"/>
<path opacity="0.6" d="M17.1706 28.7315C16.7929 28.7184 16.4329 28.597 16.0896 28.4641C15.7463 28.3312 15.4061 28.184 15.0372 28.1136C14.8001 28.0683 14.5288 28.0619 14.3378 28.1885C14.1539 28.3104 14.0945 28.5207 14.0625 28.7159C14.0385 28.8627 14.0246 29.0173 14.0903 29.1548C14.136 29.2502 14.2171 29.3304 14.2733 29.4218C14.4686 29.7399 14.3305 30.1322 14.1189 30.443C14.0196 30.5889 13.9044 30.7277 13.8278 30.8828C13.7512 31.0379 13.7158 31.2156 13.7828 31.3738C13.8493 31.5305 14.0075 31.6484 14.1791 31.7312C14.5274 31.8993 14.9379 31.9474 15.3382 31.9749C16.2242 32.0353 17.115 32.0091 18.0034 31.983C18.3322 31.9733 18.6625 31.9635 18.9859 31.9127C19.1655 31.8846 19.3509 31.84 19.4813 31.7322C19.6468 31.5954 19.6879 31.3639 19.577 31.1923C19.3909 30.9047 18.8765 30.8332 18.7464 30.5245C18.6749 30.3545 18.7484 30.1652 18.8524 30.0076C19.0755 29.6696 19.4496 29.3729 19.4693 28.9865C19.4829 28.721 19.303 28.4552 19.025 28.3296C18.7336 28.1978 18.3294 28.2145 18.1145 28.4323C17.8931 28.6567 17.504 28.743 17.1706 28.7315Z" fill="#FF87C3"/>
<path d="M28.7713 22.6832L30.0478 21.0139H30.3424L32.0117 27.0038L31.2261 27.593L30.2442 28.2803L28.7713 28.6731L27.1019 24.3525L28.7713 22.6832Z" fill="#5F5FFD"/>
<path d="M30.0479 21.0139H30.4406L32.11 27.0038L31.8154 27.2002L30.0479 21.0139Z" fill="#3A3F3F"/>
<path d="M27.2983 23.3705H27.6911L29.3604 29.3605L29.0659 29.5569L27.2983 23.3705Z" fill="#3A3F3F"/>
<path d="M36.6443 22.2067C36.5925 22.0886 36.5179 21.9815 36.4245 21.8916C36.331 21.8013 36.2208 21.7296 36.0998 21.6803C35.9744 21.629 35.8399 21.6027 35.7041 21.603C35.5136 21.603 35.3277 21.6544 35.1661 21.7515C35.1275 21.7747 35.0908 21.8002 35.056 21.828C35.0212 21.8002 34.9845 21.7747 34.9458 21.7515C34.7843 21.6544 34.5984 21.603 34.4079 21.603C34.2707 21.603 34.1378 21.6289 34.0122 21.6803C33.8908 21.7298 33.7814 21.801 33.6875 21.8916C33.594 21.9814 33.5193 22.0885 33.4676 22.2067C33.4139 22.3297 33.3865 22.4602 33.3865 22.5946C33.3865 22.7213 33.4128 22.8534 33.4649 22.9878C33.5086 23.1001 33.5712 23.2166 33.6512 23.3342C33.778 23.5203 33.9523 23.7144 34.1687 23.9112C34.5273 24.2374 34.8825 24.4628 34.8975 24.4719L34.9891 24.5298C35.0297 24.5553 35.0819 24.5553 35.1225 24.5298L35.2141 24.4719C35.2291 24.4624 35.5839 24.2374 35.9429 23.9112C36.1593 23.7144 36.3336 23.5203 36.4604 23.3342C36.5404 23.2166 36.6034 23.1001 36.6467 22.9878C36.6988 22.8534 36.7251 22.7213 36.7251 22.5946C36.7255 22.4602 36.6981 22.3297 36.6443 22.2067Z" fill="#F34747"/>
<line x1="15.7113" y1="22.9241" x2="46.5447" y2="22.9241" stroke="black" stroke-width="0.5" stroke-dasharray="3 3"/>
<defs>
<linearGradient id="paint0_linear" x1="28.491" y1="0" x2="28.491" y2="36.8474" gradientUnits="userSpaceOnUse">
<stop stop-color="#FFBFBF"/>
<stop offset="0.588542" stop-color="white" stop-opacity="0"/>
</linearGradient>
</defs>
</svg>
