<svg width="56" height="44" viewBox="0 0 56 44" fill="none" xmlns="http://www.w3.org/2000/svg">
<g opacity="0.6">
<path d="M23.0514 6.07491C26.5786 5.95225 29.9406 4.81283 33.146 3.56647C36.3515 2.32011 39.5286 0.938922 42.9732 0.278487C45.1878 -0.146767 47.7206 -0.206576 49.5047 0.981498C51.2219 2.12446 51.7766 4.09766 52.0749 5.92843C52.2993 7.30607 52.4295 8.75568 51.8161 10.0456C51.3891 10.9407 50.6313 11.6934 50.107 12.551C48.2834 15.5349 49.5726 19.2147 51.5491 22.1306C52.4761 23.4991 53.5515 24.8013 54.2668 26.2565C54.982 27.7116 55.3133 29.3787 54.6872 30.8628C54.0667 32.3327 52.5886 33.4386 50.9869 34.2156C47.7338 35.7925 43.9007 36.2436 40.1628 36.5021C31.8888 37.0682 23.5702 36.8229 15.2743 36.5776C12.2041 36.4864 9.1202 36.3946 6.10013 35.9187C4.42293 35.6546 2.69103 35.2359 1.47327 34.2253C-0.0722237 32.9419 -0.455685 30.7695 0.580219 29.1602C2.3177 26.4617 7.12135 25.7912 8.33606 22.895C9.0042 21.3009 8.31783 19.5249 7.34626 18.0464C5.2628 14.875 1.7696 12.0923 1.58572 8.46677C1.45909 5.97658 3.13831 3.48335 5.73491 2.3049C8.45611 1.06868 12.2299 1.22479 14.2374 3.26793C16.3047 5.37291 19.9377 6.18287 23.0514 6.07491Z" fill="#FF87C3"/>
<path d="M23.0514 6.07491C26.5786 5.95225 29.9406 4.81283 33.146 3.56647C36.3515 2.32011 39.5286 0.938922 42.9732 0.278487C45.1878 -0.146767 47.7206 -0.206576 49.5047 0.981498C51.2219 2.12446 51.7766 4.09766 52.0749 5.92843C52.2993 7.30607 52.4295 8.75568 51.8161 10.0456C51.3891 10.9407 50.6313 11.6934 50.107 12.551C48.2834 15.5349 49.5726 19.2147 51.5491 22.1306C52.4761 23.4991 53.5515 24.8013 54.2668 26.2565C54.982 27.7116 55.3133 29.3787 54.6872 30.8628C54.0667 32.3327 52.5886 33.4386 50.9869 34.2156C47.7338 35.7925 43.9007 36.2436 40.1628 36.5021C31.8888 37.0682 23.5702 36.8229 15.2743 36.5776C12.2041 36.4864 9.1202 36.3946 6.10013 35.9187C4.42293 35.6546 2.69103 35.2359 1.47327 34.2253C-0.0722237 32.9419 -0.455685 30.7695 0.580219 29.1602C2.3177 26.4617 7.12135 25.7912 8.33606 22.895C9.0042 21.3009 8.31783 19.5249 7.34626 18.0464C5.2628 14.875 1.7696 12.0923 1.58572 8.46677C1.45909 5.97658 3.13831 3.48335 5.73491 2.3049C8.45611 1.06868 12.2299 1.22479 14.2374 3.26793C16.3047 5.37291 19.9377 6.18287 23.0514 6.07491Z" fill="url(#paint0_linear)"/>
</g>
<path d="M23.3991 18.4251L19.9094 16.7682L14.3047 15.3185L12.4012 18.4251L16.4197 21.0139H20.8611L23.3991 18.4251Z" fill="black" fill-opacity="0.1"/>
<path d="M18.3621 18.2443L19.641 16.7276C19.5948 16.2027 19.6237 15.6854 19.7263 15.2015C19.8375 14.6963 20.0267 14.1788 20.347 13.8494C21.1559 13.0145 15.3061 11.3371 15.3061 11.3371C15.3242 11.722 15.3266 12.105 15.3134 12.4845C15.2831 13.4095 15.1489 14.6312 14.6783 15.095C13.8785 15.884 18.3621 18.2443 18.3621 18.2443Z" fill="black" fill-opacity="0.1"/>
<path d="M16.0344 18.4607L16.82 17.9698L17.6056 17.2824L19.8641 14.5329L19.5695 16.1041L19.6677 16.595L20.355 17.2824L20.1587 19.6391L18.5875 20.621L16.82 19.5409L16.0344 18.4607Z" fill="black" fill-opacity="0.1"/>
<ellipse rx="4.51699" ry="4.4188" transform="matrix(-1 0 0 1 19.4713 10.1141)" fill="black" fill-opacity="0.1"/>
<g opacity="0.1">
<mask id="path-6-inside-1" fill="white">
<path d="M15.5434 11.1943C15.643 10.9689 15.6436 10.7544 15.6416 10.5069C15.6396 10.2594 15.8119 10.0435 16.043 9.97416C16.5053 9.84116 17.1761 10.8533 17.5073 10.8015C17.856 10.6788 17.5348 9.90175 17.736 9.58698C17.8949 9.33742 18.2131 9.26758 18.4602 9.11148C18.9871 8.77821 18.9712 8.2452 19.2152 7.74094C19.4717 7.21203 20.0121 7.36814 20.4823 7.68035C20.8394 7.91758 21.1467 8.23544 21.5282 8.42492C21.8585 8.58873 22.2295 8.6483 22.5956 8.65703C23.0414 8.66781 23.5265 8.58616 23.8328 8.25239C24.0689 7.99564 24.154 7.61924 24.1052 7.26646C24.1137 7.2906 24.1212 7.31473 24.1286 7.33887C24.2482 7.74299 24.1784 8.21798 23.899 8.52506C23.5927 8.85883 23.1076 8.93997 22.6618 8.9297C22.2953 8.92097 21.9247 8.8614 21.594 8.69759C21.2115 8.5076 20.9042 8.19025 20.548 7.95302C20.0779 7.64081 19.537 7.4847 19.281 8.01361C19.0369 8.51787 19.0524 9.05088 18.5259 9.38415C18.2769 9.5382 17.9606 9.61009 17.8012 9.85965C17.7037 10.0159 18.0826 10.8752 17.736 10.9979C16.6236 11.1044 16.4966 10.0793 16.0344 10.2123C15.8033 10.2791 15.8355 10.6527 15.838 10.8997C15.8405 11.1467 15.8384 11.2634 15.7398 11.4889C15.3568 11.4709 14.89 11.4844 14.779 11.1044C14.7637 11.0498 14.7566 10.9932 14.758 10.9365C14.9199 11.2245 15.1988 11.1784 15.5434 11.1943Z"/>
</mask>
<path d="M15.5434 11.1943C15.643 10.9689 15.6436 10.7544 15.6416 10.5069C15.6396 10.2594 15.8119 10.0435 16.043 9.97416C16.5053 9.84116 17.1761 10.8533 17.5073 10.8015C17.856 10.6788 17.5348 9.90175 17.736 9.58698C17.8949 9.33742 18.2131 9.26758 18.4602 9.11148C18.9871 8.77821 18.9712 8.2452 19.2152 7.74094C19.4717 7.21203 20.0121 7.36814 20.4823 7.68035C20.8394 7.91758 21.1467 8.23544 21.5282 8.42492C21.8585 8.58873 22.2295 8.6483 22.5956 8.65703C23.0414 8.66781 23.5265 8.58616 23.8328 8.25239C24.0689 7.99564 24.154 7.61924 24.1052 7.26646C24.1137 7.2906 24.1212 7.31473 24.1286 7.33887C24.2482 7.74299 24.1784 8.21798 23.899 8.52506C23.5927 8.85883 23.1076 8.93997 22.6618 8.9297C22.2953 8.92097 21.9247 8.8614 21.594 8.69759C21.2115 8.5076 20.9042 8.19025 20.548 7.95302C20.0779 7.64081 19.537 7.4847 19.281 8.01361C19.0369 8.51787 19.0524 9.05088 18.5259 9.38415C18.2769 9.5382 17.9606 9.61009 17.8012 9.85965C17.7037 10.0159 18.0826 10.8752 17.736 10.9979C16.6236 11.1044 16.4966 10.0793 16.0344 10.2123C15.8033 10.2791 15.8355 10.6527 15.838 10.8997C15.8405 11.1467 15.8384 11.2634 15.7398 11.4889C15.3568 11.4709 14.89 11.4844 14.779 11.1044C14.7637 11.0498 14.7566 10.9932 14.758 10.9365C14.9199 11.2245 15.1988 11.1784 15.5434 11.1943Z" fill="black" fill-opacity="0.1"/>
<path d="M15.5434 11.1943L16.4581 11.5985L16.1813 12.2248L15.4973 12.1932L15.5434 11.1943ZM16.043 9.97416L15.7557 9.01626L15.7665 9.01315L16.043 9.97416ZM17.5073 10.8015L17.8394 11.7448L17.7526 11.7753L17.6618 11.7895L17.5073 10.8015ZM17.736 9.58698L18.5795 10.124L18.5785 10.1256L17.736 9.58698ZM18.4602 9.11148L18.9947 9.95664L18.9943 9.95684L18.4602 9.11148ZM19.2152 7.74094L18.3151 7.3053L18.3155 7.30458L19.2152 7.74094ZM20.4823 7.68035L21.0355 6.84728L21.0356 6.8474L20.4823 7.68035ZM21.5282 8.42492L21.0839 9.32076L21.0834 9.32055L21.5282 8.42492ZM22.5956 8.65703L22.6194 7.65731L22.6198 7.65732L22.5956 8.65703ZM23.8328 8.25239L23.096 7.57624L23.0967 7.57553L23.8328 8.25239ZM24.1052 7.26646L23.1147 7.40352L25.0488 6.93542L24.1052 7.26646ZM24.1286 7.33887L25.084 7.04313L25.0876 7.05523L24.1286 7.33887ZM23.899 8.52506L24.6387 9.19807L24.6358 9.2012L23.899 8.52506ZM22.6618 8.9297L22.6388 9.92943L22.638 9.92941L22.6618 8.9297ZM21.594 8.69759L21.1501 9.5937L21.1491 9.5932L21.594 8.69759ZM20.548 7.95302L21.1012 7.11995L21.1025 7.12078L20.548 7.95302ZM19.281 8.01361L18.3808 7.57797L18.3809 7.57793L19.281 8.01361ZM18.5259 9.38415L19.0608 10.2291L19.052 10.2346L18.5259 9.38415ZM17.8012 9.85965L16.9527 9.33037L16.9584 9.32141L17.8012 9.85965ZM17.736 10.9979L18.0697 11.9406L17.9537 11.9816L17.8313 11.9933L17.736 10.9979ZM16.0344 10.2123L15.7569 9.25161L15.7579 9.25132L16.0344 10.2123ZM15.7398 11.4889L16.656 11.8897L16.3802 12.52L15.6929 12.4878L15.7398 11.4889ZM14.779 11.1044L13.8191 11.3849L13.8161 11.3743L14.779 11.1044ZM14.758 10.9365L13.7584 10.9113L13.8497 7.27858L15.6298 10.4466L14.758 10.9365ZM14.6287 10.7901C14.629 10.7896 14.633 10.7829 14.6366 10.75C14.6416 10.7042 14.6427 10.6455 14.6417 10.515L16.6416 10.4989C16.6435 10.7305 16.6558 11.1511 16.4581 11.5985L14.6287 10.7901ZM14.6417 10.515C14.6358 9.79288 15.1282 9.20456 15.7557 9.01632L16.3304 10.932C16.4957 10.8824 16.6434 10.7259 16.6416 10.4989L14.6417 10.515ZM15.7665 9.01315C16.276 8.86656 16.7073 9.06789 16.9131 9.1845C17.1407 9.31339 17.3441 9.48523 17.477 9.59975C17.6438 9.74342 17.7204 9.81419 17.795 9.86881C17.8269 9.89222 17.8156 9.87969 17.7717 9.86034C17.7359 9.84457 17.5776 9.77838 17.3529 9.8135L17.6618 11.7895C17.3543 11.8376 17.1025 11.7511 16.9649 11.6904C16.8191 11.6261 16.6974 11.544 16.6127 11.4819C16.4538 11.3655 16.2718 11.2013 16.1716 11.115C16.0377 10.9996 15.966 10.9466 15.9274 10.9247C15.8671 10.8906 16.0412 11.0153 16.3196 10.9352L15.7665 9.01315ZM17.1753 9.85824C17.0263 9.9107 16.8972 10.0083 16.8064 10.1305C16.7248 10.2402 16.6969 10.3385 16.6877 10.3781C16.6747 10.4342 16.6841 10.4444 16.678 10.3127C16.6745 10.2368 16.6597 10.0321 16.6648 9.86181C16.6678 9.76613 16.6769 9.64436 16.7052 9.51326C16.7335 9.38246 16.7865 9.21559 16.8934 9.04838L18.5785 10.1256C18.6799 9.96707 18.6663 9.8455 18.6639 9.92276C18.6619 9.99051 18.6678 10.0467 18.6759 10.2198C18.6813 10.337 18.6931 10.5842 18.6359 10.8303C18.5705 11.1125 18.3688 11.5584 17.8394 11.7448L17.1753 9.85824ZM16.8924 9.04993C17.1143 8.70142 17.4228 8.52154 17.6015 8.4281C17.6853 8.38424 17.7873 8.33677 17.8301 8.31611C17.8894 8.28749 17.9139 8.27376 17.926 8.26611L18.9943 9.95684C18.8829 10.0272 18.775 10.0808 18.7001 10.117C18.6088 10.1611 18.575 10.176 18.5285 10.2003C18.4465 10.2432 18.5165 10.223 18.5795 10.124L16.8924 9.04993ZM17.9257 8.26631C17.9454 8.25382 17.9645 8.24964 18.0116 8.12837C18.0444 8.04383 18.0668 7.96718 18.1175 7.81132C18.162 7.67466 18.2236 7.49438 18.3151 7.3053L20.1153 8.17658C20.0848 8.23963 20.0569 8.31508 20.0192 8.43059C19.9879 8.52691 19.9355 8.69889 19.876 8.85229C19.7383 9.20691 19.5019 9.63587 18.9947 9.95664L17.9257 8.26631ZM18.3155 7.30458C18.45 7.02721 18.6564 6.77272 18.9515 6.60059C19.2454 6.4292 19.5536 6.38246 19.8214 6.39662C20.3151 6.42271 20.7494 6.65733 21.0355 6.84728L19.9291 8.51341C19.8505 8.46122 19.7855 8.42681 19.7378 8.40695C19.687 8.3858 19.682 8.39204 19.7159 8.39383C19.7578 8.39605 19.8533 8.38994 19.9591 8.32828C20.0661 8.26588 20.1087 8.19022 20.115 8.1773L18.3155 7.30458ZM21.0356 6.8474C21.2579 6.99507 21.477 7.17674 21.6136 7.28399C21.7738 7.40977 21.8791 7.48266 21.9731 7.5293L21.0834 9.32055C20.7958 9.1777 20.5567 8.99693 20.3786 8.8571C20.1769 8.69873 20.0638 8.60286 19.929 8.5133L21.0356 6.8474ZM21.9726 7.52909C22.1253 7.60483 22.3365 7.65056 22.6194 7.65731L22.5718 9.65674C22.1225 9.64603 21.5916 9.57263 21.0839 9.32076L21.9726 7.52909ZM22.6198 7.65732C22.7797 7.66119 22.9058 7.64666 22.9948 7.62154C23.0368 7.60966 23.0631 7.59749 23.0779 7.58907C23.0916 7.58126 23.0957 7.5766 23.096 7.57624L24.5696 8.92853C23.9604 9.5923 23.0945 9.66939 22.5714 9.65673L22.6198 7.65732ZM23.0967 7.57553C23.0898 7.58302 23.0995 7.57631 23.1086 7.54154C23.1179 7.50598 23.1221 7.45693 23.1147 7.40352L25.0958 7.12941C25.1757 7.70698 25.0509 8.40502 24.5689 8.92925L23.0967 7.57553ZM25.0488 6.93542C25.0645 6.97997 25.0773 7.02177 25.0839 7.04316L23.1734 7.63458C23.165 7.6077 23.1629 7.60123 23.1616 7.59751L25.0488 6.93542ZM25.0876 7.05523C25.285 7.72274 25.1998 8.58136 24.6387 9.19807L23.1594 7.85205C23.1538 7.85817 23.1699 7.84336 23.1793 7.79101C23.1888 7.73814 23.1856 7.67621 23.1697 7.62251L25.0876 7.05523ZM24.6358 9.2012C24.0264 9.86527 23.1599 9.94144 22.6388 9.92943L22.6849 7.92996C22.8456 7.93367 22.9721 7.9191 23.0613 7.89394C23.1034 7.88205 23.1297 7.86989 23.1444 7.86151C23.158 7.85375 23.162 7.84916 23.1623 7.84891L24.6358 9.2012ZM22.638 9.92941C22.188 9.9187 21.6579 9.84521 21.1501 9.59369L22.0378 7.80149C22.1915 7.87759 22.4025 7.92324 22.6856 7.92998L22.638 9.92941ZM21.1491 9.5932C20.8614 9.45029 20.6223 9.26984 20.4438 9.12972C20.2416 8.97104 20.1288 8.87528 19.9936 8.78525L21.1025 7.12078C21.3234 7.26799 21.5424 7.44952 21.6785 7.55632C21.8382 7.68168 21.944 7.7549 22.0388 7.80199L21.1491 9.5932ZM19.9949 8.78608C19.9164 8.73394 19.8513 8.69953 19.8036 8.67966C19.7527 8.65851 19.7477 8.66472 19.7814 8.6665C19.8232 8.66871 19.9188 8.66264 20.0247 8.60089C20.1319 8.53836 20.1747 8.46247 20.1811 8.44928L18.3809 7.57793C18.5153 7.30029 18.7217 7.04557 19.017 6.87332C19.311 6.70184 19.6192 6.65514 19.8869 6.66929C20.3806 6.69536 20.815 6.92989 21.1012 7.11995L19.9949 8.78608ZM20.1811 8.44925C20.1505 8.51242 20.1225 8.58797 20.0848 8.70353C20.0534 8.79993 20.001 8.97181 19.9414 9.12517C19.8038 9.47951 19.5675 9.90831 19.0608 10.2291L17.991 8.53921C18.0108 8.52672 18.03 8.52238 18.0772 8.40083C18.1101 8.31625 18.1325 8.2395 18.1833 8.08372C18.2278 7.9471 18.2894 7.76693 18.3808 7.57797L20.1811 8.44925ZM19.052 10.2346C18.9427 10.3022 18.8368 10.3543 18.7635 10.3895C18.6755 10.4318 18.6393 10.4481 18.5954 10.4712C18.5158 10.513 18.5828 10.4937 18.644 10.3979L16.9584 9.32141C17.179 8.97603 17.4839 8.79598 17.6645 8.70099C17.7507 8.65567 17.8502 8.60945 17.8966 8.58716C17.9576 8.5578 17.9846 8.54312 17.9998 8.53371L19.052 10.2346ZM18.6497 10.3889C18.7331 10.2552 18.7617 10.1342 18.7726 10.0728C18.7843 10.0074 18.7848 9.95875 18.7846 9.93927C18.7843 9.90358 18.7805 9.89284 18.7865 9.9311C18.7918 9.96477 18.7995 10.0053 18.8118 10.0707C18.8229 10.1296 18.8374 10.2065 18.8499 10.2862C18.8715 10.4235 18.9064 10.6754 18.868 10.9358C18.8275 11.2112 18.6567 11.7327 18.0697 11.9406L17.4022 10.0552C17.2271 10.1172 17.0856 10.2366 16.9948 10.3768C16.9151 10.5 16.895 10.6066 16.8894 10.6447C16.8805 10.7045 16.8918 10.7089 16.8741 10.5965C16.867 10.5513 16.8581 10.5029 16.8465 10.4415C16.8361 10.3866 16.8218 10.312 16.8107 10.2412C16.8003 10.1751 16.7857 10.0706 16.7847 9.95753C16.7842 9.89935 16.7868 9.81612 16.8038 9.72088C16.8201 9.62968 16.8571 9.48367 16.9528 9.3304L18.6497 10.3889ZM17.8313 11.9933C17.3892 12.0357 16.9974 11.9673 16.6552 11.8132C16.3242 11.6641 16.0909 11.4574 15.9378 11.3058C15.8685 11.2372 15.7934 11.1566 15.7608 11.1226C15.7142 11.074 15.7053 11.0677 15.7126 11.0736C15.7498 11.1035 15.989 11.266 16.3109 11.1733L15.7579 9.25132C16.311 9.09218 16.7393 9.33294 16.9651 9.51431C17.0666 9.5959 17.1519 9.68361 17.2044 9.73846C17.2709 9.8078 17.2999 9.83997 17.345 9.88459C17.4204 9.95929 17.4563 9.9805 17.4764 9.98954C17.4853 9.99357 17.5265 10.0134 17.6407 10.0024L17.8313 11.9933ZM16.3119 11.1731C16.4093 11.1449 16.5035 11.0967 16.5865 11.0299C16.6676 10.9646 16.7231 10.8937 16.7596 10.8338C16.7952 10.7755 16.8138 10.7261 16.8233 10.6963C16.8328 10.6663 16.8361 10.6463 16.8368 10.6413C16.8378 10.6352 16.8353 10.6497 16.8351 10.7009C16.8351 10.7243 16.8354 10.7501 16.8361 10.7823C16.8366 10.8107 16.8376 10.8524 16.838 10.8896L14.8381 10.9098C14.8376 10.8611 14.8234 10.5747 14.8604 10.3355C14.8928 10.1257 15.0404 9.45858 15.7569 9.25161L16.3119 11.1731ZM16.838 10.8896C16.8391 11.0012 16.8418 11.1676 16.8169 11.343C16.7888 11.5411 16.7324 11.715 16.656 11.8897L14.8236 11.0881C14.8362 11.0593 14.8397 11.0478 14.8397 11.0477C14.8397 11.0477 14.8395 11.0482 14.8393 11.0492C14.839 11.0503 14.8387 11.0516 14.8383 11.0532C14.8376 11.0566 14.8371 11.0596 14.8368 11.0618C14.8362 11.0658 14.8373 11.0606 14.838 11.0361C14.8388 11.0086 14.8387 10.9729 14.8381 10.9098L16.838 10.8896ZM15.6929 12.4878C15.5763 12.4823 15.2146 12.4805 14.9059 12.4002C14.5378 12.3046 14.0104 12.0395 13.8191 11.3849L15.7388 10.8238C15.7256 10.7785 15.7029 10.7259 15.6672 10.6727C15.6315 10.6194 15.5898 10.5759 15.548 10.5423C15.5072 10.5096 15.471 10.49 15.447 10.479C15.4235 10.4683 15.4092 10.4646 15.4089 10.4645C15.4086 10.4645 15.4168 10.4665 15.4364 10.4693C15.4558 10.472 15.4815 10.4748 15.516 10.4773C15.5507 10.4798 15.589 10.4817 15.6353 10.4837C15.6749 10.4853 15.7369 10.4876 15.7867 10.49L15.6929 12.4878ZM13.8161 11.3743C13.7738 11.2236 13.7544 11.0675 13.7584 10.9113L15.7577 10.9616C15.7588 10.9189 15.7535 10.8761 15.7418 10.8344L13.8161 11.3743ZM15.6298 10.4466C15.6013 10.3958 15.5461 10.3249 15.4578 10.2657C15.3742 10.2095 15.3019 10.1915 15.2772 10.1866C15.2602 10.1832 15.2653 10.1863 15.3293 10.1883C15.3605 10.1893 15.3905 10.1897 15.4375 10.1907C15.4804 10.1915 15.533 10.1927 15.5896 10.1953L15.4973 12.1932C15.41 12.1892 15.3946 12.1913 15.2668 12.1873C15.1765 12.1845 15.0372 12.1781 14.8871 12.1482C14.7294 12.1169 14.5356 12.0554 14.3434 11.9264C14.1465 11.7943 13.9957 11.6212 13.8862 11.4263L15.6298 10.4466Z" fill="black" fill-opacity="0.1" mask="url(#path-6-inside-1)"/>
</g>
<path d="M20.4938 7.82002C20.8563 8.05299 21.1682 8.36462 21.5555 8.5512C21.8906 8.71205 22.2673 8.77055 22.6388 8.77912C23.0938 8.78921 23.5837 8.70953 23.8946 8.38176C24.1802 8.07921 24.2484 7.61378 24.1276 7.21692C24.0068 6.82007 23.7171 6.49079 23.3769 6.25227C23.0367 6.01376 22.6419 5.84887 22.4164 5.50748C22.2971 5.32696 22.2395 5.11416 22.1404 4.92204C21.8234 4.30734 21.1106 3.97453 20.4216 3.93318C19.7325 3.89183 19.0495 4.09656 18.3934 4.31844C17.7372 4.54031 17.0759 4.78437 16.3834 4.83026C16.075 4.84942 15.7545 4.83026 15.4683 4.94674C15.0836 5.10256 14.8314 5.47521 14.6595 5.85441C14.4669 6.28203 14.3471 6.74897 14.3673 7.21591C14.4098 8.21284 15.07 9.1911 14.7798 10.1462C14.703 10.4008 14.5589 10.662 14.6357 10.9167C14.748 11.2883 15.2287 11.373 15.6175 11.3907C15.7186 11.1693 15.6645 10.9132 15.6625 10.6701C15.6604 10.427 15.7504 10.1401 15.985 10.0746C16.4541 9.94396 16.7777 10.8163 17.2387 10.659C17.5901 10.5385 17.4991 10.0035 17.7033 9.69435C17.8646 9.44928 18.1881 9.3807 18.4389 9.22741C18.9732 8.90014 18.957 8.37672 19.2052 7.88154C19.4671 7.36013 20.0166 7.51343 20.4938 7.82002Z" fill="black" fill-opacity="0.1"/>
<path d="M17.7466 10.2383L17.5066 9.665C17.3518 9.29519 16.8761 9.19245 16.5825 9.4654C16.3499 9.6816 16.336 10.0452 16.5513 10.2785L16.9106 10.6677C17.0894 10.8615 17.3869 10.932 17.6147 10.7991C17.8098 10.6855 17.8338 10.4466 17.7466 10.2383Z" fill="black" fill-opacity="0.1"/>
<path d="M20.2568 18.068L19.9622 19.7373L19.2749 20.1301L18.5875 20.4247C18.5875 20.4247 17.8019 20.0319 17.1146 19.5409C16.8021 19.3177 16.5709 19.0946 16.4115 18.9175L16.1326 18.5589C16.1326 18.5589 16.2203 18.705 16.4115 18.9175L16.82 19.4427L18.4893 20.5229L18.5875 20.621L19.2749 20.2283L20.0604 19.8355L20.2568 18.068Z" fill="black" fill-opacity="0.15"/>
<path d="M25.8539 21.603V19.4427L21.6315 16.9878L19.5694 16.5951L20.355 17.2824L20.0604 19.7373L18.5875 20.6211L16.82 19.4427L15.6416 17.8716L14.5615 15.3185L12.9903 16.0059L11.4192 16.5951L9.84807 16.9878L7.68777 17.8716L6.11664 20.6211L5.52747 24.0579L9.84807 24.8435L10.9282 28.4767V30.0478V31.7172L10.3391 33.8775L9.3571 35.0558V37.4125V43.8934H25.0684L24.5283 36.0378L24.2828 30.7352V27.593L24.5283 26.3164L24.7738 25.0399L25.8539 21.603Z" fill="black" fill-opacity="0.1"/>
<rect width="55.3823" height="14.1402" transform="matrix(-1 0 0 1 56 29.8514)" fill="black" fill-opacity="0.1"/>
<path d="M27.8179 22.9777L25.7558 20.2283L25.5594 22.2904L24.872 23.7633V25.5308L24.4792 27.102L25.854 27.9857L32.3349 30.7352L40.2887 28.3785V26.3164L32.3349 27.102L30.0764 25.138L27.8179 22.9777Z" fill="black" fill-opacity="0.1"/>
<path d="M25.4398 19.0499L25.9521 19.3523V21.5694L25.4398 23.0811L25.1324 24.0889L24.5176 26.7092L24.0053 26.3061L23.5955 25.9029L25.1324 19.0499H25.4398Z" fill="black" fill-opacity="0.1"/>
<path d="M39.584 26.434C39.584 26.434 44.1113 24.1037 43.6189 26.2179C43.1264 28.3322 39.7309 28.5403 39.7309 28.5403L39.584 26.434Z" fill="black" fill-opacity="0.1"/>
<path d="M13.9723 34.4666C13.9723 34.4666 18.1592 36.5273 16.2832 37.0494C14.4072 37.5716 12.9904 35.4486 12.9904 35.4486L13.9723 34.4666Z" fill="black" fill-opacity="0.1"/>
<path d="M9.82981 22.0903L10.0445 24.9357L6.31306 24.2627L5.6257 23.7718L6.11667 21.7097L6.60765 19.6476C6.60765 19.6476 7.1474 17.9159 8.47337 17.6836C9.79933 17.4514 9.82981 22.0903 9.82981 22.0903Z" fill="black" fill-opacity="0.1"/>
<path d="M10.0445 24.7453C10.8301 24.7453 12.4012 29.8514 12.4012 29.8514L11.4192 29.9496L10.8301 29.655C10.8301 29.655 8.71853 24.9775 10.0445 24.7453Z" fill="black" fill-opacity="0.1"/>
<path d="M6.11666 23.5669L8.17876 24.2543L9.84809 24.5489V24.9417L10.4373 29.3605L12.1066 31.9135L14.0705 34.4666L12.9903 35.5468L9.84809 32.5027L7.58959 29.8514L6.11666 23.5669Z" fill="black" fill-opacity="0.1"/>
<path d="M9.6334 22.0903L9.84808 24.9357L6.11665 24.2627L5.42929 23.7718L5.92026 21.7097L6.41124 19.6476C6.41124 19.6476 6.95099 17.9159 8.27696 17.6836C9.60292 17.4514 9.6334 22.0903 9.6334 22.0903Z" fill="black" fill-opacity="0.1"/>
<rect width="0.589173" height="4.71339" transform="matrix(-0.887011 -0.461749 -0.461749 0.887011 44.0201 22.2679)" fill="black"/>
<path d="M22.8099 18.4251L19.3202 16.7682L13.7155 15.3185L11.812 18.4251L15.8305 21.0139H20.272L22.8099 18.4251Z" fill="#FFB0B1"/>
<path d="M17.773 18.2443L19.0519 16.7276C19.0056 16.2027 19.0345 15.6854 19.1371 15.2015C19.2484 14.6963 19.4375 14.1788 19.7578 13.8494C20.5667 13.0145 14.7169 11.3371 14.7169 11.3371C14.735 11.722 14.7375 12.105 14.7243 12.4845C14.6939 13.4095 14.5597 14.6312 14.0891 15.095C13.2893 15.884 17.773 18.2443 17.773 18.2443Z" fill="#FFB0B1"/>
<path d="M15.4453 18.4607L16.2308 17.9698L17.0164 17.2824L19.2749 14.5329L18.9803 16.1041L19.0785 16.595L19.7659 17.2824L19.5695 19.6391L17.9983 20.621L16.2308 19.5409L15.4453 18.4607Z" fill="black" fill-opacity="0.1"/>
<ellipse rx="4.51699" ry="4.4188" transform="matrix(-1 0 0 1 18.8821 10.1141)" fill="#FFB0B1"/>
<g opacity="0.1">
<mask id="path-26-inside-2" fill="white">
<path d="M14.9543 11.1943C15.0539 10.9689 15.0544 10.7544 15.0524 10.5069C15.0505 10.2594 15.2228 10.0435 15.4539 9.97416C15.9161 9.84116 16.5869 10.8533 16.9182 10.8015C17.2668 10.6788 16.9456 9.90175 17.1468 9.58698C17.3057 9.33742 17.6239 9.26758 17.871 9.11148C18.3979 8.77821 18.382 8.2452 18.6261 7.74094C18.8826 7.21203 19.423 7.36814 19.8931 7.68035C20.2502 7.91758 20.5575 8.23544 20.9391 8.42492C21.2693 8.58873 21.6403 8.6483 22.0064 8.65703C22.4522 8.66781 22.9373 8.58616 23.2436 8.25239C23.4797 7.99564 23.5649 7.61924 23.5161 7.26646C23.5245 7.2906 23.532 7.31473 23.5395 7.33887C23.659 7.74299 23.5893 8.21798 23.3099 8.52506C23.0035 8.85883 22.5184 8.93997 22.0727 8.9297C21.7061 8.92097 21.3355 8.8614 21.0048 8.69759C20.6223 8.5076 20.315 8.19025 19.9589 7.95302C19.4887 7.64081 18.9478 7.4847 18.6918 8.01361C18.4477 8.51787 18.4632 9.05088 17.9367 9.38415C17.6877 9.5382 17.3714 9.61009 17.212 9.85965C17.1146 10.0159 17.4935 10.8752 17.1468 10.9979C16.0344 11.1044 15.9074 10.0793 15.4452 10.2123C15.2141 10.2791 15.2463 10.6527 15.2488 10.8997C15.2513 11.1467 15.2493 11.2634 15.1506 11.4889C14.7676 11.4709 14.3009 11.4844 14.1898 11.1044C14.1745 11.0498 14.1674 10.9932 14.1689 10.9365C14.3307 11.2245 14.6096 11.1784 14.9543 11.1943Z"/>
</mask>
<path d="M14.9543 11.1943C15.0539 10.9689 15.0544 10.7544 15.0524 10.5069C15.0505 10.2594 15.2228 10.0435 15.4539 9.97416C15.9161 9.84116 16.5869 10.8533 16.9182 10.8015C17.2668 10.6788 16.9456 9.90175 17.1468 9.58698C17.3057 9.33742 17.6239 9.26758 17.871 9.11148C18.3979 8.77821 18.382 8.2452 18.6261 7.74094C18.8826 7.21203 19.423 7.36814 19.8931 7.68035C20.2502 7.91758 20.5575 8.23544 20.9391 8.42492C21.2693 8.58873 21.6403 8.6483 22.0064 8.65703C22.4522 8.66781 22.9373 8.58616 23.2436 8.25239C23.4797 7.99564 23.5649 7.61924 23.5161 7.26646C23.5245 7.2906 23.532 7.31473 23.5395 7.33887C23.659 7.74299 23.5893 8.21798 23.3099 8.52506C23.0035 8.85883 22.5184 8.93997 22.0727 8.9297C21.7061 8.92097 21.3355 8.8614 21.0048 8.69759C20.6223 8.5076 20.315 8.19025 19.9589 7.95302C19.4887 7.64081 18.9478 7.4847 18.6918 8.01361C18.4477 8.51787 18.4632 9.05088 17.9367 9.38415C17.6877 9.5382 17.3714 9.61009 17.212 9.85965C17.1146 10.0159 17.4935 10.8752 17.1468 10.9979C16.0344 11.1044 15.9074 10.0793 15.4452 10.2123C15.2141 10.2791 15.2463 10.6527 15.2488 10.8997C15.2513 11.1467 15.2493 11.2634 15.1506 11.4889C14.7676 11.4709 14.3009 11.4844 14.1898 11.1044C14.1745 11.0498 14.1674 10.9932 14.1689 10.9365C14.3307 11.2245 14.6096 11.1784 14.9543 11.1943Z" fill="black"/>
<path d="M14.9543 11.1943L15.8689 11.5985L15.5922 12.2248L14.9081 12.1932L14.9543 11.1943ZM15.4539 9.97416L15.1665 9.01626L15.1774 9.01315L15.4539 9.97416ZM16.9182 10.8015L17.2502 11.7448L17.1635 11.7753L17.0726 11.7895L16.9182 10.8015ZM17.1468 9.58698L17.9904 10.124L17.9894 10.1256L17.1468 9.58698ZM17.871 9.11148L18.4055 9.95664L18.4052 9.95684L17.871 9.11148ZM18.6261 7.74094L17.7259 7.3053L17.7263 7.30458L18.6261 7.74094ZM19.8931 7.68035L20.4463 6.84728L20.4465 6.8474L19.8931 7.68035ZM20.9391 8.42492L20.4947 9.32076L20.4943 9.32055L20.9391 8.42492ZM22.0064 8.65703L22.0303 7.65731L22.0306 7.65732L22.0064 8.65703ZM23.2436 8.25239L22.5068 7.57624L22.5075 7.57553L23.2436 8.25239ZM23.5161 7.26646L22.5255 7.40352L24.4597 6.93542L23.5161 7.26646ZM23.5395 7.33887L24.4948 7.04313L24.4984 7.05523L23.5395 7.33887ZM23.3099 8.52506L24.0495 9.19807L24.0466 9.2012L23.3099 8.52506ZM22.0727 8.9297L22.0496 9.92943L22.0489 9.92941L22.0727 8.9297ZM21.0048 8.69759L20.561 9.5937L20.56 9.5932L21.0048 8.69759ZM19.9589 7.95302L20.5121 7.11995L20.5133 7.12078L19.9589 7.95302ZM18.6918 8.01361L17.7917 7.57797L17.7917 7.57793L18.6918 8.01361ZM17.9367 9.38415L18.4716 10.2291L18.4628 10.2346L17.9367 9.38415ZM17.212 9.85965L16.3635 9.33037L16.3693 9.32141L17.212 9.85965ZM17.1468 10.9979L17.4805 11.9406L17.3646 11.9816L17.2421 11.9933L17.1468 10.9979ZM15.4452 10.2123L15.1677 9.25161L15.1687 9.25132L15.4452 10.2123ZM15.1506 11.4889L16.0668 11.8897L15.7911 12.52L15.1038 12.4878L15.1506 11.4889ZM14.1898 11.1044L13.2299 11.3849L13.2269 11.3743L14.1898 11.1044ZM14.1689 10.9365L13.1692 10.9113L13.2605 7.27858L15.0407 10.4466L14.1689 10.9365ZM14.0396 10.7901C14.0398 10.7896 14.0438 10.7829 14.0474 10.75C14.0524 10.7042 14.0535 10.6455 14.0525 10.515L16.0524 10.4989C16.0543 10.7305 16.0666 11.1511 15.8689 11.5985L14.0396 10.7901ZM14.0525 10.515C14.0467 9.79288 14.539 9.20456 15.1666 9.01632L15.7412 10.932C15.9065 10.8824 16.0542 10.7259 16.0524 10.4989L14.0525 10.515ZM15.1774 9.01315C15.6868 8.86656 16.1181 9.06789 16.3239 9.1845C16.5515 9.31339 16.7549 9.48523 16.8878 9.59975C17.0546 9.74342 17.1313 9.81419 17.2058 9.86881C17.2377 9.89222 17.2264 9.87969 17.1825 9.86034C17.1467 9.84457 16.9884 9.77838 16.7637 9.8135L17.0726 11.7895C16.7651 11.8376 16.5134 11.7511 16.3757 11.6904C16.2299 11.6261 16.1082 11.544 16.0235 11.4819C15.8646 11.3655 15.6826 11.2013 15.5824 11.115C15.4485 10.9996 15.3768 10.9466 15.3382 10.9247C15.2779 10.8906 15.452 11.0153 15.7304 10.9352L15.1774 9.01315ZM16.5861 9.85824C16.4371 9.9107 16.308 10.0083 16.2172 10.1305C16.1357 10.2402 16.1078 10.3385 16.0986 10.3781C16.0856 10.4342 16.095 10.4444 16.0888 10.3127C16.0853 10.2368 16.0705 10.0321 16.0757 9.86181C16.0786 9.76613 16.0877 9.64436 16.1161 9.51326C16.1443 9.38246 16.1973 9.21559 16.3042 9.04838L17.9894 10.1256C18.0907 9.96707 18.0771 9.8455 18.0747 9.92276C18.0727 9.99051 18.0786 10.0467 18.0867 10.2198C18.0921 10.337 18.1039 10.5842 18.0468 10.8303C17.9813 11.1125 17.7796 11.5584 17.2502 11.7448L16.5861 9.85824ZM16.3032 9.04993C16.5251 8.70142 16.8337 8.52154 17.0123 8.4281C17.0961 8.38424 17.1982 8.33677 17.2409 8.31611C17.3002 8.28749 17.3247 8.27376 17.3368 8.26611L18.4052 9.95684C18.2938 10.0272 18.1858 10.0808 18.111 10.117C18.0196 10.1611 17.9858 10.176 17.9394 10.2003C17.8574 10.2432 17.9274 10.223 17.9904 10.124L16.3032 9.04993ZM17.3365 8.26631C17.3562 8.25382 17.3753 8.24964 17.4224 8.12837C17.4552 8.04383 17.4776 7.96718 17.5284 7.81132C17.5729 7.67466 17.6344 7.49438 17.7259 7.3053L19.5262 8.17658C19.4957 8.23963 19.4677 8.31508 19.4301 8.43059C19.3987 8.52691 19.3464 8.69889 19.2868 8.85229C19.1491 9.20691 18.9127 9.63587 18.4055 9.95664L17.3365 8.26631ZM17.7263 7.30458C17.8608 7.02721 18.0672 6.77272 18.3624 6.60059C18.6563 6.4292 18.9644 6.38246 19.2322 6.39662C19.7259 6.42271 20.1602 6.65733 20.4463 6.84728L19.34 8.51341C19.2614 8.46122 19.1963 8.42681 19.1486 8.40695C19.0978 8.3858 19.0928 8.39204 19.1267 8.39383C19.1686 8.39605 19.2642 8.38994 19.3699 8.32828C19.4769 8.26588 19.5196 8.19022 19.5258 8.1773L17.7263 7.30458ZM20.4465 6.8474C20.6688 6.99507 20.8879 7.17674 21.0245 7.28399C21.1847 7.40977 21.29 7.48266 21.3839 7.5293L20.4943 9.32055C20.2066 9.1777 19.9675 8.99693 19.7894 8.8571C19.5877 8.69873 19.4746 8.60286 19.3398 8.5133L20.4465 6.8474ZM21.3835 7.52909C21.5361 7.60483 21.7473 7.65056 22.0303 7.65731L21.9826 9.65674C21.5333 9.64603 21.0024 9.57263 20.4947 9.32076L21.3835 7.52909ZM22.0306 7.65732C22.1905 7.66119 22.3166 7.64666 22.4056 7.62154C22.4477 7.60966 22.4739 7.59749 22.4887 7.58907C22.5024 7.58126 22.5065 7.5766 22.5068 7.57624L23.9804 8.92853C23.3712 9.5923 22.5053 9.66939 21.9822 9.65673L22.0306 7.65732ZM22.5075 7.57553C22.5006 7.58302 22.5103 7.57631 22.5194 7.54154C22.5288 7.50598 22.5329 7.45693 22.5255 7.40352L24.5066 7.12941C24.5865 7.70698 24.4618 8.40502 23.9797 8.92925L22.5075 7.57553ZM24.4597 6.93542C24.4753 6.97997 24.4881 7.02177 24.4947 7.04316L22.5842 7.63458C22.5759 7.6077 22.5737 7.60123 22.5724 7.59751L24.4597 6.93542ZM24.4984 7.05523C24.6958 7.72274 24.6106 8.58136 24.0495 9.19807L22.5702 7.85205C22.5646 7.85817 22.5807 7.84336 22.5901 7.79101C22.5996 7.73814 22.5964 7.67621 22.5805 7.62251L24.4984 7.05523ZM24.0466 9.2012C23.4372 9.86527 22.5707 9.94144 22.0496 9.92943L22.0957 7.92996C22.2565 7.93367 22.3829 7.9191 22.4721 7.89394C22.5143 7.88205 22.5405 7.86989 22.5552 7.86151C22.5689 7.85375 22.5729 7.84916 22.5731 7.84891L24.0466 9.2012ZM22.0489 9.92941C21.5988 9.9187 21.0688 9.84521 20.561 9.59369L21.4487 7.80149C21.6023 7.87759 21.8134 7.92324 22.0965 7.92998L22.0489 9.92941ZM20.56 9.5932C20.2722 9.45029 20.0332 9.26984 19.8546 9.12972C19.6524 8.97104 19.5396 8.87528 19.4045 8.78525L20.5133 7.12078C20.7343 7.26799 20.9532 7.44952 21.0893 7.55632C21.249 7.68168 21.3549 7.7549 21.4497 7.80199L20.56 9.5932ZM19.4057 8.78608C19.3272 8.73394 19.2621 8.69953 19.2144 8.67966C19.1635 8.65851 19.1585 8.66472 19.1923 8.6665C19.2341 8.66871 19.3297 8.66264 19.4355 8.60089C19.5427 8.53836 19.5855 8.46247 19.5919 8.44928L17.7917 7.57793C17.9261 7.30029 18.1325 7.04557 18.4278 6.87332C18.7218 6.70184 19.03 6.65514 19.2978 6.66929C19.7914 6.69536 20.2258 6.92989 20.5121 7.11995L19.4057 8.78608ZM19.5919 8.44925C19.5613 8.51242 19.5333 8.58797 19.4957 8.70353C19.4642 8.79993 19.4119 8.97181 19.3523 9.12517C19.2146 9.47951 18.9783 9.90831 18.4716 10.2291L17.4019 8.53921C17.4216 8.52672 17.4408 8.52238 17.4881 8.40083C17.5209 8.31625 17.5433 8.2395 17.5941 8.08372C17.6387 7.9471 17.7002 7.76693 17.7917 7.57797L19.5919 8.44925ZM18.4628 10.2346C18.3535 10.3022 18.2476 10.3543 18.1743 10.3895C18.0863 10.4318 18.0501 10.4481 18.0062 10.4712C17.9266 10.513 17.9936 10.4937 18.0548 10.3979L16.3693 9.32141C16.5898 8.97603 16.8947 8.79598 17.0753 8.70099C17.1615 8.65567 17.2611 8.60945 17.3074 8.58716C17.3684 8.5578 17.3954 8.54312 17.4107 8.53371L18.4628 10.2346ZM18.0605 10.3889C18.1439 10.2552 18.1725 10.1342 18.1835 10.0728C18.1951 10.0074 18.1956 9.95875 18.1954 9.93927C18.1951 9.90358 18.1914 9.89284 18.1974 9.9311C18.2027 9.96477 18.2103 10.0053 18.2226 10.0707C18.2337 10.1296 18.2482 10.2065 18.2608 10.2862C18.2823 10.4235 18.3172 10.6754 18.2789 10.9358C18.2384 11.2112 18.0675 11.7327 17.4805 11.9406L16.8131 10.0552C16.638 10.1172 16.4964 10.2366 16.4056 10.3768C16.3259 10.5 16.3058 10.6066 16.3002 10.6447C16.2914 10.7045 16.3026 10.7089 16.285 10.5965C16.2779 10.5513 16.2689 10.5029 16.2573 10.4415C16.2469 10.3866 16.2327 10.312 16.2216 10.2412C16.2112 10.1751 16.1965 10.0706 16.1955 9.95753C16.195 9.89935 16.1976 9.81612 16.2147 9.72088C16.231 9.62968 16.268 9.48367 16.3636 9.3304L18.0605 10.3889ZM17.2421 11.9933C16.8 12.0357 16.4082 11.9673 16.0661 11.8132C15.735 11.6641 15.5017 11.4574 15.3486 11.3058C15.2794 11.2372 15.2042 11.1566 15.1716 11.1226C15.125 11.074 15.1161 11.0677 15.1234 11.0736C15.1607 11.1035 15.3998 11.266 15.7218 11.1733L15.1687 9.25132C15.7218 9.09218 16.1501 9.33294 16.3759 9.51431C16.4775 9.5959 16.5627 9.68361 16.6153 9.73846C16.6817 9.8078 16.7107 9.83997 16.7558 9.88459C16.8313 9.95929 16.8671 9.9805 16.8872 9.98954C16.8962 9.99357 16.9374 10.0134 17.0515 10.0024L17.2421 11.9933ZM15.7227 11.1731C15.8201 11.1449 15.9144 11.0967 15.9973 11.0299C16.0784 10.9646 16.134 10.8937 16.1705 10.8338C16.206 10.7755 16.2247 10.7261 16.2341 10.6963C16.2436 10.6663 16.2469 10.6463 16.2477 10.6413C16.2486 10.6352 16.2461 10.6497 16.246 10.7009C16.2459 10.7243 16.2463 10.7501 16.2469 10.7823C16.2474 10.8107 16.2484 10.8524 16.2488 10.8896L14.2489 10.9098C14.2484 10.8611 14.2342 10.5747 14.2712 10.3355C14.3037 10.1257 14.4512 9.45858 15.1677 9.25161L15.7227 11.1731ZM16.2488 10.8896C16.2499 11.0012 16.2526 11.1676 16.2277 11.343C16.1996 11.5411 16.1432 11.715 16.0668 11.8897L14.2345 11.0881C14.2471 11.0593 14.2505 11.0478 14.2505 11.0477C14.2505 11.0477 14.2504 11.0482 14.2501 11.0492C14.2498 11.0503 14.2495 11.0516 14.2492 11.0532C14.2484 11.0566 14.2479 11.0596 14.2476 11.0618C14.247 11.0658 14.2481 11.0606 14.2488 11.0361C14.2496 11.0086 14.2495 10.9729 14.2489 10.9098L16.2488 10.8896ZM15.1038 12.4878C14.9871 12.4823 14.6254 12.4805 14.3167 12.4002C13.9486 12.3046 13.4213 12.0395 13.2299 11.3849L15.1496 10.8238C15.1364 10.7785 15.1137 10.7259 15.078 10.6727C15.0423 10.6194 15.0006 10.5759 14.9588 10.5423C14.918 10.5096 14.8818 10.49 14.8578 10.479C14.8343 10.4683 14.82 10.4646 14.8198 10.4645C14.8195 10.4645 14.8276 10.4665 14.8472 10.4693C14.8666 10.472 14.8924 10.4748 14.9268 10.4773C14.9615 10.4798 14.9998 10.4817 15.0461 10.4837C15.0857 10.4853 15.1477 10.4876 15.1975 10.49L15.1038 12.4878ZM13.2269 11.3743C13.1846 11.2236 13.1653 11.0675 13.1692 10.9113L15.1686 10.9616C15.1696 10.9189 15.1643 10.8761 15.1527 10.8344L13.2269 11.3743ZM15.0407 10.4466C15.0121 10.3958 14.9569 10.3249 14.8686 10.2657C14.785 10.2095 14.7128 10.1915 14.6881 10.1866C14.671 10.1832 14.6762 10.1863 14.7401 10.1883C14.7713 10.1893 14.8013 10.1897 14.8483 10.1907C14.8913 10.1915 14.9439 10.1927 15.0004 10.1953L14.9081 12.1932C14.8208 12.1892 14.8054 12.1913 14.6777 12.1873C14.5873 12.1845 14.448 12.1781 14.298 12.1482C14.1402 12.1169 13.9464 12.0554 13.7542 11.9264C13.5573 11.7943 13.4065 11.6212 13.2971 11.4263L15.0407 10.4466Z" fill="black" mask="url(#path-26-inside-2)"/>
</g>
<path d="M19.9047 7.82002C20.2671 8.05299 20.5791 8.36462 20.9663 8.5512C21.3015 8.71205 21.6781 8.77055 22.0496 8.77912C22.5046 8.78921 22.9945 8.70953 23.3054 8.38176C23.591 8.07921 23.6593 7.61378 23.5384 7.21692C23.4176 6.82007 23.128 6.49079 22.7877 6.25227C22.4475 6.01376 22.0527 5.84887 21.8272 5.50748C21.7079 5.32696 21.6503 5.11416 21.5512 4.92204C21.2342 4.30734 20.5214 3.97453 19.8324 3.93318C19.1433 3.89183 18.4604 4.09656 17.8042 4.31844C17.148 4.54031 16.4868 4.78437 15.7942 4.83026C15.4858 4.84942 15.1653 4.83026 14.8792 4.94674C14.4945 5.10256 14.2422 5.47521 14.0703 5.85441C13.8777 6.28203 13.7579 6.74897 13.7781 7.21591C13.8206 8.21284 14.4808 9.1911 14.1906 10.1462C14.1138 10.4008 13.9697 10.662 14.0466 10.9167C14.1588 11.2883 14.6395 11.373 15.0283 11.3907C15.1294 11.1693 15.0753 10.9132 15.0733 10.6701C15.0713 10.427 15.1613 10.1401 15.3958 10.0746C15.865 9.94396 16.1885 10.8163 16.6495 10.659C17.0009 10.5385 16.9099 10.0035 17.1141 9.69435C17.2754 9.44928 17.5989 9.3807 17.8497 9.22741C18.384 8.90014 18.3679 8.37672 18.6161 7.88154C18.8779 7.36013 19.4275 7.51343 19.9047 7.82002Z" fill="#575A89"/>
<path d="M17.1574 10.2383L16.9174 9.665C16.7626 9.29519 16.2869 9.19245 15.9933 9.4654C15.7607 9.6816 15.7468 10.0452 15.9622 10.2785L16.3214 10.6677C16.5003 10.8615 16.7977 10.932 17.0256 10.7991C17.2206 10.6855 17.2446 10.4466 17.1574 10.2383Z" fill="#575A89"/>
<path d="M19.6677 18.068L19.3731 19.7373L18.6857 20.1301L17.9983 20.4247C17.9983 20.4247 17.2128 20.0319 16.5254 19.5409C16.213 19.3177 15.9817 19.0946 15.8223 18.9175L15.5435 18.5589C15.5435 18.5589 15.6311 18.705 15.8223 18.9175L16.2308 19.4427L17.9001 20.5229L17.9983 20.621L18.6857 20.2283L19.4713 19.8355L19.6677 18.068Z" fill="black" fill-opacity="0.15"/>
<path d="M25.2648 21.603V19.4427L21.0424 16.9878L18.9803 16.5951L19.7659 17.2824L19.4713 19.7373L17.9984 20.6211L16.2308 19.4427L15.0525 17.8716L13.9723 15.3185L12.4012 16.0059L10.8301 16.5951L9.25896 16.9878L7.09866 17.8716L5.52753 20.6211L4.93836 24.0579L9.25896 24.8435L10.3391 28.4767V30.0478V31.7172L9.74994 33.8775L8.76798 35.0558V37.4125V43.8934H24.4793L23.9392 36.0378L23.6937 30.7352V27.593L23.9392 26.3164L24.1847 25.0399L25.2648 21.603Z" fill="#FFCCBB"/>
<rect width="55.3823" height="14.1402" transform="matrix(-1 0 0 1 55.4108 29.8514)" fill="#C4C4C4"/>
<path d="M27.2287 22.9777L25.1666 20.2283L24.9702 22.2904L24.2828 23.7633V25.5308L23.89 27.102L25.2648 27.9857L31.7457 30.7352L39.6995 28.3785V26.3164L31.7457 27.102L29.4872 25.138L27.2287 22.9777Z" fill="#FFB0B1"/>
<path d="M24.8507 19.0499L25.363 19.3523V21.5694L24.8507 23.0811L24.5433 24.0889L23.9285 26.7092L23.4161 26.3061L23.0063 25.9029L24.5433 19.0499H24.8507Z" fill="#FDD5C7"/>
<path d="M38.9948 26.434C38.9948 26.434 43.5222 24.1037 43.0297 26.2179C42.5373 28.3322 39.1418 28.5403 39.1418 28.5403L38.9948 26.434Z" fill="#FFB0B1"/>
<path d="M13.3831 34.4666C13.3831 34.4666 17.57 36.5273 15.694 37.0494C13.818 37.5716 12.4012 35.4486 12.4012 35.4486L13.3831 34.4666Z" fill="#FFB0B1"/>
<path d="M9.24064 22.0903L9.45532 24.9357L5.72389 24.2627L5.03652 23.7718L5.5275 21.7097L6.01848 19.6476C6.01848 19.6476 6.55823 17.9159 7.88419 17.6836C9.21016 17.4514 9.24064 22.0903 9.24064 22.0903Z" fill="black" fill-opacity="0.1"/>
<path d="M9.45532 24.7453C10.2409 24.7453 11.812 29.8514 11.812 29.8514L10.8301 29.9496L10.2409 29.655C10.2409 29.655 8.12935 24.9775 9.45532 24.7453Z" fill="black" fill-opacity="0.1"/>
<path d="M5.52749 23.5669L7.58959 24.2543L9.25892 24.5489V24.9417L9.84809 29.3605L11.5174 31.9135L13.4813 34.4666L12.4012 35.5468L9.25892 32.5027L7.00042 29.8514L5.52749 23.5669Z" fill="#FFB0B1"/>
<path d="M9.04423 22.0903L9.25891 24.9357L5.52748 24.2627L4.84011 23.7718L5.33109 21.7097L5.82207 19.6476C5.82207 19.6476 6.36182 17.9159 7.68778 17.6836C9.01375 17.4514 9.04423 22.0903 9.04423 22.0903Z" fill="#FFCCBB"/>
<path opacity="0.6" d="M38.8294 28.7315C39.2071 28.7184 39.5671 28.597 39.9104 28.4641C40.2537 28.3312 40.5939 28.184 40.9628 28.1136C41.1999 28.0683 41.4712 28.0619 41.6622 28.1885C41.8461 28.3104 41.9055 28.5207 41.9375 28.7159C41.9615 28.8627 41.9754 29.0173 41.9097 29.1548C41.864 29.2502 41.7829 29.3304 41.7267 29.4218C41.5314 29.7399 41.6695 30.1322 41.8811 30.443C41.9804 30.5889 42.0956 30.7277 42.1722 30.8828C42.2488 31.0379 42.2842 31.2156 42.2172 31.3738C42.1507 31.5305 41.9925 31.6484 41.8209 31.7312C41.4726 31.8993 41.0621 31.9474 40.6618 31.9749C39.7758 32.0353 38.885 32.0091 37.9966 31.983C37.6678 31.9733 37.3375 31.9635 37.0141 31.9127C36.8345 31.8846 36.6491 31.84 36.5187 31.7322C36.3532 31.5954 36.3121 31.3639 36.423 31.1923C36.6091 30.9047 37.1235 30.8332 37.2536 30.5245C37.3251 30.3545 37.2516 30.1652 37.1476 30.0076C36.9245 29.6696 36.5504 29.3729 36.5307 28.9865C36.5171 28.721 36.697 28.4552 36.975 28.3296C37.2664 28.1978 37.6706 28.2145 37.8855 28.4323C38.1069 28.6567 38.496 28.743 38.8294 28.7315Z" fill="#FF87C3"/>
<path d="M27.2287 22.6832L25.9522 21.0139H25.6576L23.9883 27.0038L24.7739 27.593L25.7558 28.2803L27.2287 28.6731L28.8981 24.3525L27.2287 22.6832Z" fill="#5F5FFD"/>
<path d="M25.9521 21.0139H25.5594L23.89 27.0038L24.1846 27.2002L25.9521 21.0139Z" fill="#3A3F3F"/>
<path d="M28.7017 23.3705H28.3089L26.6396 29.3605L26.9341 29.5569L28.7017 23.3705Z" fill="#3A3F3F"/>
<path d="M19.3557 22.2067C19.4075 22.0886 19.4821 21.9815 19.5755 21.8916C19.669 21.8013 19.7792 21.7296 19.9002 21.6803C20.0256 21.629 20.1601 21.6027 20.2959 21.603C20.4864 21.603 20.6723 21.6544 20.8339 21.7515C20.8725 21.7747 20.9092 21.8002 20.944 21.828C20.9788 21.8002 21.0155 21.7747 21.0542 21.7515C21.2157 21.6544 21.4016 21.603 21.5921 21.603C21.7293 21.603 21.8622 21.6289 21.9878 21.6803C22.1092 21.7298 22.2186 21.801 22.3125 21.8916C22.406 21.9814 22.4807 22.0885 22.5324 22.2067C22.5861 22.3297 22.6135 22.4602 22.6135 22.5946C22.6135 22.7213 22.5872 22.8534 22.5351 22.9878C22.4914 23.1001 22.4288 23.2166 22.3488 23.3342C22.222 23.5203 22.0477 23.7144 21.8313 23.9112C21.4727 24.2374 21.1175 24.4628 21.1025 24.4719L21.0109 24.5298C20.9703 24.5553 20.9181 24.5553 20.8775 24.5298L20.7859 24.4719C20.7709 24.4624 20.4161 24.2374 20.0571 23.9112C19.8407 23.7144 19.6664 23.5203 19.5396 23.3342C19.4596 23.2166 19.3966 23.1001 19.3533 22.9878C19.3012 22.8534 19.2749 22.7213 19.2749 22.5946C19.2745 22.4602 19.3019 22.3297 19.3557 22.2067Z" fill="#F34747"/>
<line y1="-0.25" x2="30.8334" y2="-0.25" transform="matrix(-1 0 0 1 40.2887 23.1741)" stroke="black" stroke-width="0.5" stroke-dasharray="3 3"/>
<defs>
<linearGradient id="paint0_linear" x1="27.509" y1="0" x2="27.509" y2="36.8474" gradientUnits="userSpaceOnUse">
<stop stop-color="#FFBFBF"/>
<stop offset="0.588542" stop-color="white" stop-opacity="0"/>
</linearGradient>
</defs>
</svg>
