<svg width="74" height="67" viewBox="0 0 74 67" fill="none" xmlns="http://www.w3.org/2000/svg">
<g clip-path="url(#clip0)">
<path opacity="0.6" d="M44.1576 16.3917C39.2853 16.2222 34.6412 14.6483 30.2132 12.9266C25.7853 11.2049 21.3966 9.29699 16.6384 8.38469C13.5791 7.79726 10.0805 7.71464 7.61599 9.35581C5.24389 10.9347 4.47768 13.6604 4.06554 16.1893C3.75555 18.0923 3.57572 20.0948 4.4231 21.8767C5.01298 23.1132 6.05978 24.1529 6.78401 25.3375C9.30306 29.4594 7.52223 34.5425 4.79186 38.5705C3.51135 40.4609 2.02581 42.2596 1.03778 44.2697C0.049755 46.2799 -0.407872 48.5827 0.457001 50.6328C1.31418 52.6632 3.35601 54.1909 5.56857 55.2643C10.0623 57.4425 15.3572 58.0656 20.5205 58.4227C31.95 59.2048 43.441 58.8659 54.9006 58.527C59.1417 58.401 63.4017 58.2742 67.5735 57.6168C69.8903 57.252 72.2827 56.6737 73.9649 55.2776C76.0998 53.5048 76.6295 50.5039 75.1985 48.2809C72.7984 44.5533 66.1628 43.627 64.4849 39.6263C63.5619 37.4243 64.5101 34.971 65.8522 32.9286C68.7302 28.5478 73.5556 24.7039 73.8096 19.6957C73.9845 16.2558 71.6649 12.8118 68.078 11.1839C64.319 9.47623 59.106 9.69188 56.333 12.5142C53.4773 15.422 48.4588 16.5408 44.1576 16.3917Z" fill="#587EEC"/>
<path d="M57.9839 27.9923C57.3322 26.4283 56.3926 25.011 55.2176 23.8198C54.0417 22.625 52.6553 21.6755 51.1338 21.023C49.556 20.3437 47.8639 19.996 46.1554 20C43.7586 20 41.4202 20.6803 39.388 21.9653C38.9018 22.2727 38.44 22.6104 38.0024 22.9782C37.5649 22.6104 37.103 22.2727 36.6168 21.9653C34.5847 20.6803 32.2462 20 29.8494 20C28.1235 20 26.4511 20.3427 24.871 21.023C23.3445 21.6781 21.9686 22.6204 20.7872 23.8198C19.6107 25.0097 18.6708 26.4273 18.021 27.9923C17.3452 29.62 17 31.3484 17 33.1273C17 34.8053 17.3306 36.5539 17.9869 38.3328C18.5363 39.8194 19.3239 41.3614 20.3302 42.9185C21.9249 45.3827 24.1175 47.9527 26.84 50.558C31.3516 54.8766 35.8195 57.8599 36.0091 57.9808L37.1613 58.7468C37.6718 59.0844 38.3281 59.0844 38.8386 58.7468L39.9908 57.9808C40.1804 57.8548 44.6434 54.8766 49.1599 50.558C51.8825 47.9527 54.0751 45.3827 55.6697 42.9185C56.6761 41.3614 57.4685 39.8194 58.013 38.3328C58.6694 36.5539 58.9999 34.8053 58.9999 33.1273C59.0048 31.3484 58.6596 29.62 57.9839 27.9923V27.9923Z" fill="#FFB0B1"/>
<path d="M56.0564 28.3775C55.4513 26.9338 54.5788 25.6255 53.4877 24.526C52.3959 23.4231 51.1085 22.5466 49.6956 21.9443C48.2306 21.3172 46.6593 20.9963 45.0729 21C42.8473 21 40.6759 21.628 38.7888 22.8142C38.3374 23.0979 37.9085 23.4096 37.5022 23.7491C37.0959 23.4096 36.6671 23.0979 36.2156 22.8142C34.3286 21.628 32.1572 21 29.9316 21C28.329 21 26.776 21.3163 25.3088 21.9443C23.8913 22.549 22.6137 23.4189 21.5167 24.526C20.4242 25.6243 19.5515 26.9329 18.948 28.3775C18.3205 29.88 18 31.4755 18 33.1175C18 34.6665 18.307 36.2806 18.9164 37.9226C19.4266 39.2948 20.1579 40.7182 21.0924 42.1556C22.5731 44.4302 24.6091 46.8025 27.1372 49.2074C31.3265 53.1938 35.4753 55.9476 35.6513 56.0592L36.7212 56.7663C37.1953 57.0779 37.8047 57.0779 38.2787 56.7663L39.3486 56.0592C39.5247 55.9429 43.6689 53.1938 47.8628 49.2074C50.3909 46.8025 52.4269 44.4302 53.9076 42.1556C54.8421 40.7182 55.5779 39.2948 56.0835 37.9226C56.693 36.2806 57 34.6665 57 33.1175C57.0045 31.4755 56.6839 29.88 56.0564 28.3775V28.3775Z" fill="#FE7575"/>
</g>
<defs>
<clipPath id="clip0">
<rect width="74" height="67" fill="white"/>
</clipPath>
</defs>
</svg>
