<svg width="76" height="55" viewBox="0 0 76 55" fill="none" xmlns="http://www.w3.org/2000/svg">
<path opacity="0.6" d="M31.8424 9.6632C36.7147 9.49376 41.3588 7.91981 45.7868 6.19813C50.2147 4.47645 54.6034 2.56852 59.3616 1.65622C62.4209 1.06879 65.9195 0.986173 68.384 2.62734C70.7561 4.20619 71.5223 6.93189 71.9345 9.46085C72.2444 11.3639 72.4243 13.3663 71.5769 15.1482C70.987 16.3847 69.9402 17.4244 69.216 18.6091C66.6969 22.7309 68.4778 27.814 71.2081 31.842C72.4887 33.7324 73.9742 35.5311 74.9622 37.5413C75.9502 39.5514 76.4079 41.8542 75.543 43.9043C74.6858 45.9347 72.644 47.4625 70.4314 48.5358C65.9377 50.714 60.6428 51.3371 55.4795 51.6942C44.05 52.4763 32.559 52.1374 21.0994 51.7985C16.8583 51.6725 12.5983 51.5458 8.42648 50.8883C6.10966 50.5235 3.71727 49.9452 2.0351 48.5491C-0.0997925 46.7763 -0.629494 43.7755 0.801468 41.5525C3.20156 37.8248 9.83715 36.8985 11.5151 32.8978C12.4381 30.6959 11.4899 28.2425 10.1478 26.2002C7.26982 21.8193 2.44444 17.9754 2.19044 12.9672C2.01551 9.52737 4.33514 6.0833 7.92197 4.45544C11.681 2.74776 16.894 2.96341 19.667 5.78574C22.5227 8.69348 27.5412 9.81233 31.8424 9.6632Z" fill="#587EEC"/>
<path d="M59.0488 50.763C59.0488 50.763 62.8973 47.8518 63.6243 44.1486C63.9192 42.5933 64.71 41.1756 65.8782 40.108C66.437 39.6059 67.0406 39.1559 67.6814 38.7637" stroke="#9AB1F3" stroke-width="2" stroke-miterlimit="10"/>
<path d="M68.1524 36.4309C67.8151 36.8874 67.6626 38.8219 67.6626 38.8219C67.6626 38.8219 69.4658 38.1112 69.8038 37.6554C69.9661 37.4363 70.0347 37.1617 69.9946 36.8919C69.9545 36.6221 69.809 36.3793 69.59 36.217C69.371 36.0546 69.0965 35.9859 68.8269 36.026C68.5573 36.0661 68.3147 36.2117 68.1524 36.4309Z" fill="#587EEC"/>
<path d="M64.9182 37.9488C64.8832 38.5152 65.8047 40.2222 65.8047 40.2222C65.8047 40.2222 66.9334 38.644 66.9691 38.0776C66.9827 37.8076 66.8894 37.5431 66.7094 37.3414C66.5294 37.1397 66.2772 37.0171 66.0076 37.0002C65.7379 36.9832 65.4724 37.0733 65.2686 37.2509C65.0648 37.4284 64.9392 37.6792 64.9189 37.9488H64.9182Z" fill="#587EEC"/>
<path d="M61.7834 42.3121C62.0381 42.819 63.6958 43.8273 63.6958 43.8273C63.6958 43.8273 63.8728 41.8948 63.6181 41.3879C63.4927 41.1495 63.2788 40.97 63.0224 40.8878C62.7661 40.8056 62.4877 40.8274 62.2472 40.9486C62.0067 41.0697 61.8234 41.2804 61.7367 41.5355C61.6499 41.7905 61.6667 42.0694 61.7834 42.3121Z" fill="#587EEC"/>
<path d="M60.1537 46.1462C60.3195 46.6888 61.7827 47.9624 61.7827 47.9624C61.7827 47.9624 62.2844 46.0881 62.1185 45.5448C62.0388 45.2841 61.8589 45.0657 61.6183 44.9378C61.3777 44.8098 61.0961 44.7827 60.8356 44.8625C60.575 44.9422 60.3568 45.1223 60.2289 45.363C60.101 45.6038 60.074 45.8855 60.1537 46.1462Z" fill="#587EEC"/>
<path d="M67.4729 41.5945C66.9131 41.6701 65.1435 40.8705 65.1435 40.8705C65.1435 40.8705 66.6367 39.6327 67.1993 39.5571C67.4694 39.5208 67.7427 39.5933 67.9593 39.7586C68.1759 39.924 68.318 40.1687 68.3542 40.4389C68.3905 40.7091 68.3181 40.9826 68.1528 41.1993C67.9875 41.4161 67.743 41.5582 67.4729 41.5945Z" fill="#587EEC"/>
<path d="M65.5102 46.0552C64.9504 45.9593 63.5041 44.6675 63.5041 44.6675C63.5041 44.6675 65.2996 43.9337 65.8587 44.0296C65.9925 44.0516 66.1207 44.0998 66.2358 44.1716C66.351 44.2434 66.4507 44.3373 66.5294 44.4479C66.608 44.5585 66.664 44.6835 66.6941 44.8159C66.7242 44.9482 66.7278 45.0852 66.7047 45.219C66.6816 45.3527 66.6323 45.4805 66.5595 45.5951C66.4868 45.7097 66.3921 45.8087 66.2809 45.8864C66.1697 45.9642 66.0442 46.0191 65.9117 46.0481C65.7792 46.077 65.6423 46.0794 65.5088 46.0552H65.5102Z" fill="#587EEC"/>
<path d="M63.0086 50.1294C62.4412 50.1294 60.7968 49.1008 60.7968 49.1008C60.7968 49.1008 62.4419 48.0737 63.0093 48.0737C63.2818 48.0737 63.5431 48.182 63.7357 48.3748C63.9283 48.5675 64.0366 48.8289 64.0366 49.1015C64.0366 49.3741 63.9283 49.6356 63.7357 49.8283C63.5431 50.0211 63.2818 50.1294 63.0093 50.1294H63.0086Z" fill="#587EEC"/>
<path d="M21.6619 25.5834C21.6619 25.5834 19.2898 21.3789 15.7142 20.1677C14.2127 19.6687 12.9134 18.6961 12.0112 17.3957C11.588 16.7741 11.2228 16.1148 10.9203 15.4262" stroke="#9AB1F3" stroke-width="2" stroke-miterlimit="10"/>
<path d="M8.67562 14.656C9.08287 15.0509 10.9785 15.4598 10.9785 15.4598C10.9785 15.4598 10.5131 13.5764 10.1059 13.1808C9.90931 12.9966 9.64833 12.8971 9.37913 12.9036C9.10993 12.91 8.85404 13.022 8.66654 13.2154C8.47904 13.4088 8.37494 13.6681 8.37663 13.9376C8.37833 14.207 8.4857 14.465 8.67562 14.656Z" fill="#587EEC"/>
<path d="M9.74761 18.0609C10.3074 18.1715 12.1176 17.4839 12.1176 17.4839C12.1176 17.4839 10.7042 16.1536 10.1479 16.0451C10.0143 16.0155 9.87615 16.0128 9.74154 16.0373C9.60692 16.0618 9.47856 16.1129 9.36397 16.1878C9.24939 16.2626 9.1509 16.3595 9.07428 16.4729C8.99766 16.5864 8.94445 16.714 8.91779 16.8482C8.89113 16.9825 8.89155 17.1208 8.91901 17.2549C8.94648 17.389 9.00045 17.5163 9.07775 17.6292C9.15505 17.7422 9.25413 17.8386 9.36916 17.9127C9.48419 17.9868 9.61286 18.0372 9.74761 18.0609Z" fill="#587EEC"/>
<path d="M13.6493 21.7493C14.1853 21.5637 15.4036 20.0542 15.4036 20.0542C15.4036 20.0542 13.5143 19.6215 12.9769 19.8071C12.8478 19.8499 12.7284 19.918 12.6258 20.0074C12.5232 20.0968 12.4394 20.2056 12.3792 20.3277C12.319 20.4498 12.2836 20.5826 12.2751 20.7184C12.2666 20.8543 12.2852 20.9904 12.3297 21.1191C12.3742 21.2477 12.4438 21.3662 12.5345 21.4676C12.6252 21.5691 12.7351 21.6516 12.8578 21.7102C12.9806 21.7688 13.1138 21.8025 13.2497 21.8092C13.3855 21.8159 13.5214 21.7955 13.6493 21.7493Z" fill="#587EEC"/>
<path d="M17.2348 23.875C17.7945 23.7825 19.2472 22.4978 19.2472 22.4978C19.2472 22.4978 17.4566 21.7514 16.8975 21.8438C16.6284 21.8881 16.3879 22.0375 16.2289 22.2592C16.0699 22.481 16.0055 22.7568 16.0498 23.026C16.094 23.2953 16.2434 23.5359 16.4649 23.695C16.6865 23.8541 16.9622 23.9186 17.2313 23.8743L17.2348 23.875Z" fill="#587EEC"/>
<path d="M13.6982 16.0115C13.6989 16.5793 12.6696 18.2268 12.6696 18.2268C12.6696 18.2268 11.6417 16.5814 11.6417 16.0143C11.6381 15.8771 11.6621 15.7406 11.712 15.6128C11.762 15.485 11.8371 15.3685 11.9328 15.2702C12.0285 15.1719 12.1429 15.0938 12.2693 15.0405C12.3957 14.9871 12.5314 14.9597 12.6686 14.9597C12.8057 14.9597 12.9415 14.9871 13.0679 15.0405C13.1942 15.0938 13.3086 15.1719 13.4043 15.2702C13.5001 15.3685 13.5751 15.485 13.6251 15.6128C13.6751 15.7406 13.699 15.8771 13.6954 16.0143L13.6982 16.0115Z" fill="#587EEC"/>
<path d="M17.8568 18.5503C17.6875 19.0922 16.2152 20.356 16.2152 20.356C16.2152 20.356 15.7254 18.4782 15.8961 17.9363C15.9847 17.6852 16.1671 17.4783 16.4051 17.3591C16.643 17.24 16.9179 17.2178 17.1718 17.2974C17.4258 17.377 17.6389 17.5521 17.7664 17.7858C17.8939 18.0195 17.9258 18.2935 17.8554 18.5503H17.8568Z" fill="#587EEC"/>
<path d="M21.5563 21.5729C21.4807 22.133 20.2436 23.6292 20.2436 23.6292C20.2436 23.6292 19.4452 21.8613 19.5208 21.2991C19.5358 21.1629 19.5778 21.031 19.6445 20.9113C19.7112 20.7916 19.8011 20.6864 19.909 20.602C20.0169 20.5176 20.1405 20.4556 20.2727 20.4197C20.4049 20.3838 20.5429 20.3747 20.6787 20.3929C20.8144 20.4112 20.9451 20.4564 21.0631 20.526C21.1812 20.5955 21.2841 20.688 21.3658 20.7979C21.4476 20.9079 21.5066 21.0331 21.5393 21.1661C21.572 21.2992 21.5778 21.4375 21.5563 21.5729Z" fill="#587EEC"/>
<path opacity="0.25" d="M8.67562 14.656C9.08287 15.0509 10.9785 15.4598 10.9785 15.4598C10.9785 15.4598 10.5131 13.5764 10.1059 13.1808C9.90931 12.9966 9.64833 12.8971 9.37913 12.9036C9.10993 12.91 8.85404 13.022 8.66654 13.2154C8.47904 13.4088 8.37494 13.6681 8.37663 13.9376C8.37833 14.207 8.4857 14.465 8.67562 14.656Z" fill="black"/>
<path opacity="0.25" d="M9.74761 18.0609C10.3074 18.1715 12.1176 17.4839 12.1176 17.4839C12.1176 17.4839 10.7042 16.1536 10.1479 16.0451C10.0143 16.0155 9.87615 16.0128 9.74154 16.0373C9.60692 16.0618 9.47856 16.1129 9.36397 16.1878C9.24939 16.2626 9.1509 16.3595 9.07428 16.4729C8.99766 16.5864 8.94445 16.714 8.91779 16.8482C8.89113 16.9825 8.89155 17.1208 8.91901 17.2549C8.94648 17.389 9.00045 17.5163 9.07775 17.6292C9.15505 17.7422 9.25413 17.8386 9.36916 17.9127C9.48419 17.9868 9.61286 18.0372 9.74761 18.0609Z" fill="black"/>
<path opacity="0.25" d="M13.6493 21.7493C14.1853 21.5637 15.4036 20.0542 15.4036 20.0542C15.4036 20.0542 13.5143 19.6215 12.9769 19.8071C12.8478 19.8499 12.7284 19.918 12.6258 20.0074C12.5232 20.0968 12.4394 20.2056 12.3792 20.3277C12.319 20.4498 12.2836 20.5826 12.2751 20.7184C12.2666 20.8543 12.2852 20.9904 12.3297 21.1191C12.3742 21.2477 12.4438 21.3662 12.5345 21.4676C12.6252 21.5691 12.7351 21.6516 12.8578 21.7102C12.9806 21.7688 13.1138 21.8025 13.2497 21.8092C13.3855 21.8159 13.5214 21.7955 13.6493 21.7493Z" fill="black"/>
<path opacity="0.25" d="M17.2348 23.875C17.7945 23.7825 19.2472 22.4978 19.2472 22.4978C19.2472 22.4978 17.4566 21.7514 16.8975 21.8438C16.6284 21.8881 16.3879 22.0375 16.2289 22.2592C16.0699 22.481 16.0055 22.7568 16.0498 23.026C16.094 23.2953 16.2434 23.5359 16.4649 23.695C16.6865 23.8541 16.9622 23.9186 17.2313 23.8743L17.2348 23.875Z" fill="black"/>
<path opacity="0.25" d="M13.6982 16.0115C13.6989 16.5793 12.6696 18.2268 12.6696 18.2268C12.6696 18.2268 11.6417 16.5814 11.6417 16.0143C11.6381 15.8771 11.6621 15.7406 11.712 15.6128C11.762 15.485 11.8371 15.3685 11.9328 15.2702C12.0285 15.1719 12.1429 15.0938 12.2693 15.0405C12.3957 14.9871 12.5314 14.9597 12.6686 14.9597C12.8057 14.9597 12.9415 14.9871 13.0679 15.0405C13.1942 15.0938 13.3086 15.1719 13.4043 15.2702C13.5001 15.3685 13.5751 15.485 13.6251 15.6128C13.6751 15.7406 13.699 15.8771 13.6954 16.0143L13.6982 16.0115Z" fill="black"/>
<path opacity="0.25" d="M17.8568 18.5503C17.6875 19.0922 16.2152 20.356 16.2152 20.356C16.2152 20.356 15.7254 18.4782 15.8961 17.9363C15.9847 17.6852 16.1671 17.4783 16.4051 17.3591C16.643 17.24 16.9179 17.2178 17.1718 17.2974C17.4258 17.377 17.6389 17.5521 17.7664 17.7858C17.8939 18.0195 17.9258 18.2935 17.8554 18.5503H17.8568Z" fill="black"/>
<path opacity="0.25" d="M21.5563 21.5729C21.4807 22.133 20.2436 23.6292 20.2436 23.6292C20.2436 23.6292 19.4452 21.8613 19.5208 21.2991C19.5358 21.1629 19.5778 21.031 19.6445 20.9113C19.7112 20.7916 19.8011 20.6864 19.909 20.602C20.0169 20.5176 20.1405 20.4556 20.2727 20.4197C20.4049 20.3838 20.5429 20.3747 20.6787 20.3929C20.8144 20.4112 20.9451 20.4564 21.0631 20.526C21.1812 20.5955 21.2841 20.688 21.3658 20.7979C21.4476 20.9079 21.5066 21.0331 21.5393 21.1661C21.572 21.2992 21.5778 21.4375 21.5563 21.5729Z" fill="black"/>
<path d="M21.5255 25.5C21.5255 25.5 21.0595 20.6941 18.2843 18.1386C17.1138 17.0735 16.3198 15.6575 16.0214 14.1029C15.8856 13.3638 15.8179 12.6138 15.8192 11.8624" stroke="#9AB1F3" stroke-width="2" stroke-miterlimit="10"/>
<path d="M14.0796 10.2408C14.2895 10.7673 15.8597 11.91 15.8597 11.91C15.8597 11.91 16.197 9.99928 15.985 9.47276C15.8829 9.21994 15.6847 9.01805 15.4338 8.91149C15.183 8.80494 14.9001 8.80245 14.6475 8.90458C14.3948 9.00672 14.193 9.2051 14.0865 9.45609C13.98 9.70707 13.9776 9.99011 14.0796 10.2429V10.2408Z" fill="#587EEC"/>
<path d="M13.6801 13.792C14.144 14.1183 16.0802 14.2254 16.0802 14.2254C16.0802 14.2254 15.3259 12.4372 14.862 12.1109C14.7519 12.0286 14.6265 11.9691 14.4931 11.9361C14.3597 11.9031 14.221 11.8972 14.0853 11.9187C13.9496 11.9403 13.8196 11.9889 13.703 12.0617C13.5863 12.1344 13.4855 12.2298 13.4064 12.3423C13.3273 12.4548 13.2716 12.5819 13.2425 12.7163C13.2134 12.8507 13.2116 12.9896 13.2371 13.1247C13.2626 13.2598 13.315 13.3884 13.3911 13.5029C13.4672 13.6174 13.5655 13.7155 13.6801 13.7913V13.792Z" fill="#587EEC"/>
<path d="M15.7555 18.7477C16.3209 18.7953 18.0464 17.9075 18.0464 17.9075C18.0464 17.9075 16.493 16.7453 15.9276 16.6977C15.6561 16.6748 15.3867 16.7608 15.1786 16.9368C14.9704 17.1127 14.8407 17.3642 14.8179 17.6359C14.795 17.9075 14.881 18.1772 15.0568 18.3854C15.2327 18.5937 15.484 18.7235 15.7555 18.7463V18.7477Z" fill="#587EEC"/>
<path d="M18.1703 22.1428C18.7196 22.2828 20.5697 21.7038 20.5697 21.7038C20.5697 21.7038 19.2353 20.2958 18.686 20.1529C18.4223 20.0845 18.1422 20.1237 17.9074 20.2619C17.6726 20.4001 17.5022 20.626 17.4338 20.8898C17.3655 21.1537 17.4046 21.4339 17.5427 21.6689C17.6809 21.9039 17.9066 22.0743 18.1703 22.1428Z" fill="#587EEC"/>
<path d="M18.1213 13.5204C17.8918 14.0392 16.2866 15.1307 16.2866 15.1307C16.2866 15.1307 16.0137 13.2095 16.2432 12.6907C16.3576 12.4479 16.5623 12.2596 16.8136 12.1659C17.0649 12.0721 17.3429 12.0805 17.5881 12.1891C17.8334 12.2977 18.0264 12.498 18.1261 12.7471C18.2257 12.9963 18.224 13.2745 18.1213 13.5225V13.5204Z" fill="#587EEC"/>
<path d="M20.8951 17.5267C20.5207 17.953 18.6636 18.5118 18.6636 18.5118C18.6636 18.5118 18.9771 16.5968 19.3515 16.1705C19.4398 16.0669 19.5479 15.9819 19.6694 15.9204C19.7908 15.859 19.9233 15.8223 20.059 15.8126C20.1948 15.8028 20.3311 15.8201 20.4601 15.8635C20.5891 15.9069 20.7082 15.9755 20.8105 16.0654C20.9128 16.1552 20.9962 16.2645 21.0559 16.3869C21.1156 16.5093 21.1504 16.6424 21.1583 16.7783C21.1661 16.9143 21.1469 17.0505 21.1017 17.1789C21.0566 17.3074 20.9863 17.4256 20.8951 17.5267Z" fill="#587EEC"/>
<path d="M23.0565 21.792C22.7598 22.2751 21.0238 23.1398 21.0238 23.1398C21.0238 23.1398 21.0091 21.1997 21.3037 20.7159C21.4503 20.4925 21.6782 20.335 21.9389 20.2769C22.1996 20.2188 22.4727 20.2646 22.7002 20.4046C22.9278 20.5445 23.0919 20.7677 23.1577 21.0267C23.2236 21.2857 23.186 21.5602 23.053 21.792H23.0565Z" fill="#587EEC"/>
<path d="M25.0942 6.67914C24.9781 6.25275 24.8381 5.82425 24.7402 5.39226C24.8577 5.82425 24.9984 6.25415 25.0942 6.67914Z" fill="url(#paint0_linear)"/>
<path d="M25.6148 10.7863C25.6246 10.7695 25.6316 10.7527 25.6393 10.7372C25.6393 10.7302 25.6463 10.7246 25.6491 10.7176C25.6643 10.7248 25.68 10.7312 25.6959 10.7365C25.7267 10.7485 25.7582 10.7597 25.7904 10.7688C25.8226 10.7779 25.8359 10.7828 25.8604 10.7884C25.8807 10.7954 25.9015 10.8007 25.9227 10.8045L25.9171 10.8171C25.8912 10.8115 25.866 10.8066 25.8401 10.7996L25.8331 10.8864C25.8037 10.8864 25.7764 10.8822 25.7498 10.8822C25.7372 10.8815 25.7246 10.8815 25.712 10.8822C25.6575 10.8822 25.6099 10.8822 25.5721 10.8822C25.5868 10.8507 25.6022 10.8178 25.6148 10.7863ZM11.4101 33.4104C11.739 32.9672 12.3954 28.2103 12.3954 28.2103C12.3954 28.2103 13.6864 24.8279 13.3344 23.478C12.9825 22.1281 14.2959 18.6742 14.2959 18.6742C14.2959 18.6742 15.1635 18.2968 15.2104 17.7367C15.2104 17.7367 18.7532 16.6165 18.919 15.7763C19.0534 15.0873 21.2505 14.593 22.0398 14.4369C22.2805 13.4651 22.5226 12.5584 22.7011 12.0633C22.7494 11.9093 22.7948 11.7763 22.8368 11.6713C23.1384 10.9011 24.0705 10.8311 24.7464 10.8927C24.7757 10.7614 24.8301 10.6371 24.9066 10.5265C24.9178 10.4885 24.94 10.4546 24.9703 10.4292C24.9848 10.4168 25.0003 10.4056 25.0165 10.3956C25.0287 10.3729 25.0448 10.3525 25.0641 10.3354C25.0833 10.3181 25.1044 10.303 25.1271 10.2905C25.1433 10.2817 25.1602 10.274 25.1774 10.2674C25.218 10.252 25.2599 10.2405 25.3027 10.2331C25.3525 10.2229 25.403 10.2163 25.4538 10.2135C25.3303 10.1595 25.2202 10.0789 25.1313 9.97758C25.0708 9.90643 25.0257 9.82345 24.999 9.73393C24.9768 9.65947 24.9669 9.58191 24.9696 9.50428C24.9878 9.53627 25.0089 9.56651 25.0326 9.5946C25.0032 9.28443 25.1669 8.96936 25.2607 8.66059C25.3743 8.25861 25.3954 7.8361 25.3223 7.42481C25.2285 6.80448 24.9962 6.17714 24.8388 5.5456C24.8384 5.54211 24.8384 5.53858 24.8388 5.53509C24.7562 5.22146 24.7051 4.90037 24.6862 4.57658C24.6589 3.92334 24.8262 3.27149 25.0949 2.67636C25.3335 2.14914 25.6855 1.63033 26.2243 1.41608C26.6245 1.25435 27.073 1.28025 27.5041 1.25365C28.4711 1.19343 29.3934 0.853157 30.3128 0.543688C31.2323 0.23422 32.1783 -0.047243 33.146 0.00666895C34.1138 0.0605809 35.1095 0.527584 35.551 1.38457C35.691 1.65203 35.7714 1.9496 35.9387 2.20096C36.2522 2.67496 36.8133 2.91231 37.2815 3.23929C37.7496 3.56626 38.1617 4.03046 38.3311 4.58428C38.4235 4.88266 38.4366 5.20003 38.3689 5.50499C38.3536 5.57386 38.334 5.64168 38.3101 5.70803C38.2437 5.89303 38.1401 6.06245 38.0057 6.20584C37.9043 6.31182 37.7879 6.40219 37.66 6.474C37.4995 6.56304 37.3277 6.62993 37.1492 6.67285C37.1555 6.69385 37.1618 6.71626 37.1688 6.73796C37.18 6.77367 37.1898 6.80798 37.2003 6.84649C37.2234 6.93261 37.2451 7.02012 37.2633 7.10834C37.264 7.11462 37.264 7.12097 37.2633 7.12725C37.3492 7.52549 37.3924 7.93179 37.392 8.33922C37.3922 8.5319 37.3824 8.72447 37.3626 8.91615C37.0827 11.7574 34.7386 13.9986 31.8424 14.1442C31.7431 14.1491 31.643 14.1519 31.5415 14.1519C31.4954 14.1519 31.4499 14.1519 31.4016 14.1519C31.3561 14.2121 31.3113 14.2737 31.2686 14.3339C31.226 14.3942 31.1868 14.4558 31.1497 14.516L31.2511 14.411L31.3526 14.3178C31.3801 14.3556 31.4108 14.391 31.4443 14.4236C31.5104 14.4003 31.578 14.3811 31.6465 14.3662C31.9369 14.3017 32.3791 14.2779 32.9613 14.4537C33.4966 14.614 34.1509 14.9438 34.9164 15.5704L38.6467 17.8109L40.6647 19.039L41.3917 20.8174C41.3917 20.8174 41.9382 22.9305 42.5463 25.3516C42.5701 25.3586 42.5932 25.3656 42.6162 25.374C42.6655 25.3684 42.715 25.3656 42.7646 25.3656C43.1174 25.3648 43.4568 25.5008 43.7115 25.7451C43.9662 25.9893 44.1164 26.3229 44.1305 26.6756C45.3396 28.1459 45.4082 29.6162 45.1241 30.2912C45.0984 30.3544 45.066 30.4147 45.0275 30.4711C44.8414 30.74 44.4936 31.4331 44.141 32.1718C44.1501 32.2327 44.1557 32.2838 44.1585 32.3223C44.1591 32.3349 44.1591 32.3475 44.1585 32.3601C44.1585 32.3601 43.9485 35.5325 44.6483 36.442C44.8015 36.6402 44.7784 36.9007 44.6483 37.1891C44.1795 38.2267 42.3259 39.6124 42.3259 39.6124C42.3259 39.6124 40.1028 39.6005 38.8643 39.4653C38.8678 39.59 38.8706 39.7139 38.8734 39.835C38.9014 41.0589 38.9014 42.0846 38.9014 42.0846L38.9475 43.368C38.9475 43.368 39.3674 46.0727 39.5773 46.8183C39.7095 47.2861 39.557 51.6165 39.4241 54.8001H17.5209C17.2634 52.9167 17.6266 47.1943 17.6266 47.1943C17.6266 47.1943 17.9716 45.7149 17.9842 44.4252C17.9848 44.4238 17.9852 44.4222 17.9852 44.4207C17.9852 44.4191 17.9848 44.4175 17.9842 44.4161C17.9842 44.3034 17.9842 44.1935 17.98 44.0856L17.8211 44.08L17.5356 44.0702H17.5097C17.5097 44.0702 17.5027 44.0436 17.4867 44.0002C17.4489 43.8921 17.3974 43.7893 17.3334 43.6943C17.2117 43.5143 17.0213 43.3379 16.7351 43.326C16.577 43.3197 16.3321 43.1915 16.0557 43.0025C16.0538 43.0029 16.0519 43.0029 16.0501 43.0025C15.3063 42.4991 14.3231 41.57 14.0845 41.4174C13.7564 41.2073 12.1848 39.807 12.1848 39.807C12.1848 39.807 11.9503 39.5101 11.7005 39.1524L11.6914 39.1397C11.3808 38.6917 11.0505 38.156 11.1317 37.9873C11.2716 37.6848 11.0379 36.9616 11.0379 36.9616C10.3081 35.625 11.0813 33.8536 11.4101 33.4104ZM24.9409 11.875C24.9342 11.8959 24.93 11.9175 24.9283 11.9394C24.9458 11.9163 24.9633 11.8918 24.9808 11.8694L24.9976 11.847L25.0095 11.8302L24.9829 11.7938C24.9829 11.7938 24.9829 11.7938 24.9829 11.7987C24.9644 11.8214 24.9502 11.8472 24.9409 11.875ZM25.176 11.2547C25.2523 11.2701 25.3125 11.2841 25.3517 11.2946C25.4014 11.2064 25.4489 11.1181 25.4916 11.0285C25.3795 11.0936 25.2738 11.1694 25.176 11.2547ZM25.3076 11.3653C25.3078 11.3639 25.3078 11.3625 25.3076 11.3611L25.302 11.3653C25.2733 11.3842 25.2453 11.4024 25.2194 11.4213C25.1963 11.4381 25.1753 11.4542 25.1544 11.471C25.1683 11.4955 25.1837 11.5207 25.1991 11.541C25.2236 11.5025 25.2467 11.4654 25.2691 11.4269C25.2831 11.4115 25.2957 11.3905 25.3076 11.3653ZM25.7274 10.5013C25.5922 10.488 25.4561 10.488 25.3209 10.5013C25.302 10.5013 25.2852 10.5048 25.2684 10.5076C25.2305 10.5135 25.1932 10.5231 25.1572 10.5363C25.0745 10.6521 25.0235 10.7875 25.0095 10.9291L25.0473 10.9347L25.0844 10.9417C25.1544 10.9536 25.2243 10.9655 25.2789 10.9767L25.3489 10.9914C25.4419 11.0117 25.4958 11.0271 25.4979 11.0278C25.507 11.0089 25.5161 10.9914 25.5259 10.9732C25.5413 10.9431 25.5574 10.9123 25.5714 10.8822C25.5854 10.8521 25.6036 10.8178 25.6183 10.7863C25.6281 10.7695 25.6351 10.7527 25.6428 10.7372C25.6428 10.7302 25.6498 10.7246 25.6526 10.7176C25.6566 10.7102 25.6601 10.7025 25.6631 10.6945C25.7057 10.6077 25.7449 10.5209 25.7827 10.4355C25.7869 10.4271 25.7904 10.418 25.7939 10.4096L25.7407 10.4061V10.4243L25.7274 10.5013ZM42.4224 53.9347C42.428 52.8922 42.5036 51.7642 42.7135 50.7056C42.8031 50.2554 42.8954 49.8052 42.9892 49.3627C43.013 49.2521 43.0361 49.1429 43.0592 49.0336L43.2747 49.0623H43.2943C43.8821 46.289 44.4964 43.8455 44.4964 43.8455C44.4964 43.8455 45.7168 39.1832 45.5754 38.8114C45.5572 38.7631 45.5803 38.6328 45.6321 38.4417C45.9274 37.3817 47.1603 34.4606 47.5914 33.4622C47.5914 33.458 47.5949 33.4531 47.5963 33.4496C47.6662 33.2822 47.7166 33.1695 47.732 33.1366L47.6306 31.6467L47.625 31.5571L47.6117 31.3666L47.6173 31.3617L47.6117 31.2735C47.6117 31.2735 48.6767 30.3997 50.4806 29.7689C50.5506 29.7437 50.6247 29.7192 50.6982 29.6954C50.6079 29.0925 50.4883 28.412 50.3322 27.7489C50.3175 27.6824 50.3014 27.618 50.2847 27.5529C50.27 27.4878 50.2532 27.4247 50.2364 27.361C50.2098 27.2574 50.1811 27.1552 50.1517 27.0544C50.0544 27.0236 49.9586 26.9893 49.8641 26.9528L49.8277 26.9388C48.664 26.4857 47.7038 25.6261 47.1248 24.519C46.5459 23.4119 46.3875 22.1325 46.6789 20.9175C46.8451 20.2284 47.1519 19.5812 47.5802 19.0166C47.6124 18.9732 47.6467 18.9298 47.6809 18.8871C47.7152 18.8443 47.7565 18.7967 47.795 18.7533C47.5928 18.2933 47.3542 17.8557 47.3346 17.4083C47.3311 17.3517 47.3311 17.2948 47.3346 17.2382V17.2312C47.3605 16.9434 47.4878 16.6522 47.7845 16.3462C48.2176 15.8974 48.8341 15.6698 49.4506 15.5606C50.067 15.4514 50.6954 15.4486 51.3154 15.3751C52.3433 15.2518 53.3446 14.9347 54.3725 14.8374C55.6386 14.72 56.9133 14.9373 58.0692 15.4675C58.834 15.8176 59.6086 16.4295 59.6548 17.269C59.6926 17.9629 59.2098 18.628 59.3315 19.3134C59.4526 19.987 60.1383 20.517 60.0782 21.1983C60.0551 21.4643 59.9186 21.7024 59.7479 21.9145C59.6891 21.9845 59.6268 22.0546 59.5624 22.1246C59.3133 22.3885 59.039 22.642 58.8998 22.9746C58.8942 22.9886 58.8886 23.0026 58.8837 23.0166C58.7654 23.3449 58.8186 23.7601 59.1111 23.9485C59.1095 23.9497 59.1083 23.9514 59.1076 23.9534C59.1034 23.959 59.0992 23.9632 59.0957 23.9688C59.0953 23.9677 59.0953 23.9664 59.0957 23.9653C58.992 24.0883 58.8522 24.1755 58.6962 24.2145L58.6367 24.2327C58.685 24.2853 58.7305 24.3399 58.7766 24.3973L58.8067 24.4372C58.8838 24.5409 58.954 24.6497 59.0167 24.7628C59.0523 24.8258 59.0866 24.8888 59.1153 24.9518C59.2112 25.1439 59.2807 25.3481 59.3217 25.5588C59.3966 26.0223 59.291 26.5054 59.4043 26.9591C59.5443 27.5193 59.9872 27.9492 60.237 28.4694C60.71 29.4496 60.442 30.6 60.3468 31.6824C60.2174 33.1527 60.4273 34.6293 60.6365 36.0899C60.7476 36.8666 60.8586 37.644 60.9696 38.4221C61.2495 40.3751 61.5294 42.328 61.8093 44.281C61.9115 44.9965 62.0325 45.7513 62.509 46.3037H62.5041C62.5041 46.3037 62.5041 46.3079 62.509 46.3093C62.366 46.3719 62.2139 46.4111 62.0584 46.4256C61.4363 46.4879 60.7772 46.1868 60.2174 45.8577C59.7741 45.6014 59.3542 45.3064 58.9628 44.9762C59.0202 45.1863 59.0817 45.4152 59.1475 45.6617C59.1473 45.664 59.1473 45.6664 59.1475 45.6687C59.9375 48.6794 61.2082 54.1987 61.2082 54.1987C61.2082 54.1987 61.3237 54.4388 61.4734 54.7966H41.7409C41.9718 54.5166 42.1866 54.2484 42.3545 54.0321L42.4224 53.9347ZM57.0329 26.0966C57.028 26.0882 57.0245 26.0805 57.0196 26.0728C57.0196 26.0952 57.0196 26.1169 57.0196 26.1379C57.0196 26.1589 57.0196 26.1778 57.0196 26.1974C57.0196 26.217 57.0196 26.2149 57.0196 26.2247C57.0196 26.2345 57.0196 26.2247 57.0196 26.2247C57.0196 26.2534 57.0259 26.2821 57.0308 26.3108C57.0308 26.3108 57.0308 26.3143 57.0308 26.3171L56.9608 26.343L56.8797 26.3766C56.4001 26.5661 55.9145 26.7377 55.4228 26.8912C55.3724 26.9073 55.3214 26.9227 55.2703 26.9374L55.2598 27.0243C55.2472 27.1132 55.2353 27.2035 55.2241 27.2938C55.2241 27.2938 55.2241 27.298 55.2241 27.3008C55.1926 27.5508 55.1618 27.8 55.1345 28.0437C55.1345 28.0437 56.4192 27.5536 56.4031 28.2978C56.4039 28.3111 56.4039 28.3245 56.4031 28.3378C56.4046 28.3555 56.4046 28.3733 56.4031 28.391C56.3912 28.9707 56.21 29.3145 56.1736 29.4909C56.1758 29.4982 56.1796 29.5049 56.1848 29.5105C56.2159 29.5781 56.2266 29.6533 56.2156 29.7269C56.2168 29.8521 56.207 29.9772 56.1862 30.1007C56.224 30.1238 56.2611 30.147 56.2982 30.1708C56.3262 30.1883 56.3528 30.2079 56.3801 30.2275C56.5517 29.6317 56.7763 29.0524 57.0511 28.4967C57.2435 28.1004 57.4597 27.6873 57.4576 27.2525C57.4576 27.2245 57.4576 27.1958 57.4541 27.1671C57.4463 27.0411 57.4224 26.9166 57.3828 26.7967C57.3667 26.7512 57.3492 26.7064 57.3296 26.6623C57.2839 26.5575 57.2327 26.4551 57.1763 26.3556C57.14 26.2898 57.1015 26.2247 57.0644 26.1589C57.0525 26.1393 57.0413 26.119 57.0301 26.0994L57.0329 26.0966ZM25.6148 10.7863C25.6246 10.7695 25.6316 10.7527 25.6393 10.7372C25.6393 10.7302 25.6463 10.7246 25.6491 10.7176C25.6643 10.7248 25.68 10.7312 25.6959 10.7365C25.7267 10.7485 25.7582 10.7597 25.7904 10.7688C25.8226 10.7779 25.8359 10.7828 25.8604 10.7884L25.9227 10.8045L25.9171 10.8171C25.8912 10.8115 25.866 10.8066 25.8401 10.7996L25.8331 10.8864C25.8037 10.8864 25.7764 10.8822 25.7498 10.8822H25.712C25.6575 10.8822 25.6099 10.8822 25.5721 10.8822C25.5868 10.8507 25.6022 10.8178 25.6148 10.7863Z" fill="url(#paint1_linear)"/>
<path d="M40.904 21.0701L41.3238 21.2557C41.3238 21.2557 44.0605 31.8938 44.0605 32.7536C44.0605 33.6134 38.2576 38.3976 38.2576 38.3976L37.3521 32.2824C37.3521 32.2824 38.6522 18.259 40.904 21.0701Z" fill="#E8F5FF"/>
<path d="M28.1751 17.6863L30.5997 16.4204C30.7355 15.8411 30.9765 15.2917 31.3106 14.7995C31.6654 14.287 32.137 13.7836 32.7248 13.5211C34.2103 12.8545 26.4412 9.35583 26.4412 9.35583C26.3188 9.77612 26.1747 10.1898 26.0094 10.5951C25.6092 11.5837 24.9451 12.8622 24.0893 13.2263C22.6346 13.8459 28.1751 17.6863 28.1751 17.6863Z" fill="#FFB0B1"/>
<path opacity="0.1" d="M26.0094 10.5951C26.3414 11.7633 27.0317 12.7977 27.9829 13.5521C28.9341 14.3065 30.0982 14.7428 31.3106 14.7995C31.6654 14.287 32.137 13.7836 32.7248 13.5211C34.2103 12.8545 26.4412 9.35583 26.4412 9.35583C26.3188 9.77612 26.1747 10.1898 26.0094 10.5951Z" fill="black"/>
<path d="M25.7911 8.82863C25.7909 9.97434 26.1301 11.0944 26.7661 12.0472C27.4021 12.9999 28.3061 13.7426 29.3639 14.1812C30.4217 14.6198 31.5858 14.7346 32.7088 14.5112C33.8319 14.2878 34.8635 13.7362 35.6732 12.9261C36.4829 12.116 37.0343 11.0838 37.2577 9.96015C37.4811 8.83645 37.3664 7.67171 36.9282 6.61322C36.49 5.55473 35.7479 4.65005 34.7958 4.01359C33.8437 3.37714 32.7244 3.03751 31.5793 3.03764C30.8183 3.03412 30.0641 3.1815 29.3603 3.47127C28.6565 3.76104 28.017 4.18745 27.4789 4.72589C26.9407 5.26432 26.5144 5.90411 26.2248 6.6083C25.9351 7.31249 25.7877 8.06712 25.7911 8.82863Z" fill="#FFB0B1"/>
<path d="M24.9556 16.9427L26.5342 20.6283L27.9267 23.0747H32.384L33.6841 19.73L33.1572 16.2615H29.753L27.5551 16.1375L26.8127 15.8897L26.3341 16.1613L24.9556 16.9427Z" fill="#575A89"/>
<path opacity="0.1" d="M25.4993 12.0297C25.4993 12.0297 24.5148 12.2398 25.3965 12.963C26.2781 13.6863 29.3199 15.9863 29.3199 15.9863C29.3199 15.9863 28.2514 16.9385 28.4725 18.0539L24.9325 16.0794L24.3028 12.9203C24.3028 12.9203 24.2321 11.9709 25.4993 12.0297Z" fill="black"/>
<path opacity="0.1" d="M28.6237 15.9863L30.8754 16.3581C30.8754 16.3581 30.4108 18.077 30.6431 18.565C30.6501 18.5802 30.656 18.5959 30.6606 18.6119L31.5793 21.0968L30.8908 23.0481L28.5075 19.7959L29.3199 18.565C29.3199 18.565 28.4613 17.4265 27.9505 17.0317C27.4397 16.6368 28.6237 15.9863 28.6237 15.9863Z" fill="black"/>
<path d="M28.6237 15.8904L30.8754 16.2615C30.8754 16.2615 30.4108 17.9804 30.6431 18.4684C30.6501 18.4835 30.656 18.4992 30.6606 18.5153L31.5793 21.0001L30.8908 22.9515L28.5075 19.6971L29.3199 18.4663C29.3199 18.4663 28.4613 17.3278 27.9505 16.9329C27.4397 16.538 28.6237 15.8904 28.6237 15.8904Z" fill="#DCE6F2"/>
<path d="M25.4049 11.8442C25.4049 11.8442 24.4203 12.0542 25.3027 12.7775C26.1851 13.5008 29.3199 15.9863 29.3199 15.9863C29.3199 15.9863 28.159 16.753 28.3794 17.8676L24.8395 15.8939L24.2097 12.7348C24.2097 12.7348 24.1397 11.7854 25.4049 11.8442Z" fill="#575A89"/>
<path opacity="0.1" d="M31.156 15.0187C31.156 15.0187 30.9412 15.4206 29.9931 16.1452C29.9931 16.1452 31.5717 16.9854 30.9678 18.1666L33.3826 17.5365L33.7542 16.3749L31.156 15.0187Z" fill="black"/>
<path d="M31.249 14.9263C31.249 14.9263 31.0342 15.3282 30.0861 16.0528C30.0861 16.0528 31.6647 16.8888 31.0608 18.0735L33.4749 17.4433L33.8464 16.2825L31.249 14.9263Z" fill="#575A89"/>
<path opacity="0.1" d="M24.9556 16.9427L26.5342 20.6284L27.9239 23.0747H32.384L33.6841 19.7301L33.1579 16.2615H32.2111C32.2265 17.0709 31.9312 18.0217 31.9501 18.3753C31.9823 18.9564 31.0839 22.0917 31.0839 22.0917C31.0839 22.0917 29.2037 19.0488 28.4613 18.7778C27.9945 18.6077 27.0058 17.192 26.3348 16.1614L24.9556 16.9427Z" fill="black"/>
<path d="M18.7371 36.3377L18.8973 36.5394C18.8973 36.5394 17.7365 42.3696 18.0577 43.6936C18.1123 43.9322 18.1434 44.1756 18.1507 44.4203V44.4308C18.2074 45.7779 17.8009 47.5262 17.8009 47.5262C17.8009 47.5262 17.4762 52.6793 17.6609 54.7987H39.3961C39.5234 51.6648 39.6606 47.6046 39.536 47.1544C39.3261 46.4116 38.9063 43.7167 38.9063 43.7167L38.8601 42.4396C38.8601 42.4396 38.8601 41.2052 38.8223 39.8301C38.8062 39.2119 38.7824 38.5628 38.7481 37.9873C38.7041 37.2633 38.6425 36.6535 38.5578 36.3538C38.5057 36.1267 38.4757 35.895 38.4682 35.6621C38.4682 35.6404 38.4682 35.618 38.464 35.5956C38.464 35.5255 38.4571 35.4499 38.4543 35.3722C38.4543 35.3505 38.4543 35.3288 38.4543 35.3022C38.441 34.8513 38.4459 34.3164 38.4606 33.7619C38.4606 33.7318 38.4606 33.7009 38.4606 33.6701C38.4724 33.2542 38.4899 32.83 38.5095 32.4267C38.5704 31.1664 38.6495 30.1007 38.6495 30.1007L41.319 21.2508L40.5996 19.478L38.6033 18.2541L34.9122 16.0241C33.1118 14.5433 31.9264 14.7211 31.4744 14.8836C31.4305 14.8986 31.3875 14.9161 31.3456 14.9361C31.3316 14.9431 31.3205 14.9487 31.31 14.955C31.2956 14.9618 31.2818 14.9698 31.2687 14.9788C31.3924 15.0384 31.5 15.127 31.5822 15.2371C31.6747 15.3625 31.7407 15.5055 31.776 15.6572C31.7996 15.7513 31.8162 15.8471 31.8257 15.9436C31.8348 16.0451 31.8383 16.1502 31.8383 16.2559C31.8333 16.4877 31.8134 16.719 31.7788 16.9483C31.7788 16.9525 31.7788 16.9581 31.7788 16.9637C31.7557 17.1276 31.727 17.2879 31.699 17.4384C31.6993 17.441 31.6993 17.4436 31.699 17.4461C31.6668 17.6219 31.6346 17.7843 31.6129 17.9243C31.6087 17.9496 31.6052 17.9727 31.6017 17.9944C31.5863 18.0869 31.5791 18.1806 31.5801 18.2744C31.5722 18.5009 31.5417 18.7261 31.4891 18.9466C31.4709 19.039 31.4499 19.1377 31.4268 19.2406C31.3953 19.3807 31.361 19.5333 31.3239 19.6887C31.3037 19.7742 31.282 19.8624 31.2596 19.9499C31.2512 19.9849 31.2421 20.0199 31.2337 20.0556L31.2197 20.1109C31.0706 20.704 30.909 21.2942 30.8096 21.6513C30.7509 21.8613 30.7138 21.9908 30.7138 21.9908C30.7138 21.9908 29.66 20.286 28.8189 19.3156C28.8063 19.3015 28.7951 19.2882 28.7832 19.2756C28.6999 19.1797 28.6181 19.0922 28.5397 19.0152C28.3683 18.8443 28.2143 18.7225 28.0905 18.6777C28.0641 18.668 28.0386 18.6561 28.0142 18.642C27.6699 18.4467 27.1143 17.7374 26.5944 16.9945C26.5434 16.9245 26.4937 16.8482 26.4433 16.7761C26.3278 16.6095 26.2159 16.4421 26.1102 16.2818C26.0291 16.1593 25.9514 16.0402 25.8779 15.9268C25.528 15.3821 25.2817 14.976 25.2817 14.976L24.7961 14.9543L24.7114 14.9501H24.6548L22.4499 14.8479C22.4499 14.8479 22.3547 14.864 22.198 14.8955C22.1896 14.8955 22.1812 14.8955 22.1721 14.9011C21.3898 15.0565 19.2164 15.5487 19.0835 16.2314C18.9211 17.0674 15.4155 18.1827 15.4155 18.1827C15.3693 18.7428 14.5107 19.1118 14.5107 19.1118C14.5107 19.1118 13.2106 22.5496 13.5584 23.8967C13.9019 25.227 12.6641 28.5177 12.6312 28.6101L12.8684 28.9098L18.7371 36.3377Z" fill="#E8F5FF"/>
<path opacity="0.1" d="M25.5001 11.7854C25.5001 11.7854 23.354 11.1763 22.8663 12.4302C22.3786 13.6842 21.2877 18.7484 21.2877 18.7484C21.2877 18.7484 24.1202 19.2827 24.8626 18.7484C25.2981 18.4314 25.8371 18.2904 26.3719 18.3535L27.9736 19.4451L28.4467 19.3051C28.4467 19.3051 25.8842 15.4934 25.3272 14.1981C24.7703 12.9028 24.582 12.3238 25.5001 11.7854Z" fill="black"/>
<path d="M25.5931 11.5053C25.5931 11.5053 23.4456 10.8962 22.9558 12.1502C22.466 13.4042 21.3772 18.4684 21.3772 18.4684C21.3772 18.4684 24.209 19.0026 24.9521 18.4684C25.3873 18.1513 25.9261 18.0103 26.4608 18.0735L28.0638 19.165L28.5369 19.025C28.5369 19.025 25.9744 15.2134 25.4174 13.9181C24.8605 12.6228 24.675 12.0452 25.5931 11.5053Z" fill="#E8F5FF"/>
<path opacity="0.1" d="M39.9985 31.7083C39.9985 31.7083 38.3968 32.1032 38.0945 33.0092C37.7923 33.9152 39.2785 33.9383 39.2785 33.9383C39.2785 33.9383 40.184 32.3356 39.9985 31.7083Z" fill="black"/>
<path opacity="0.1" d="M34.0326 38.3976C34.0326 38.3976 37.9553 46.4347 37.0499 47.2013C36.1444 47.968 34.0326 38.3976 34.0326 38.3976Z" fill="black"/>
<path opacity="0.1" d="M28.6237 32.475C28.6237 32.475 25.4895 40.2817 26.1165 41.4874C26.7435 42.693 24.7702 41.4874 24.7702 41.4874L28.6237 32.475Z" fill="black"/>
<path d="M24.2594 40.1865C24.2594 40.1865 34.845 40.6976 31.757 43.996C28.6691 47.2945 22.3323 44.1361 22.3323 44.1361L24.2594 40.1865Z" fill="#FFB0B1"/>
<path opacity="0.1" d="M25.7911 8.82861C25.7902 9.58829 25.9393 10.3407 26.2298 11.0425C26.3271 11.0537 26.4244 11.0607 26.5181 11.0649C26.6581 10.7575 26.5832 10.4026 26.5804 10.0644C26.5776 9.72621 26.7022 9.32852 27.0275 9.2375C27.6762 9.05476 28.124 10.2681 28.7636 10.049C29.2534 9.88234 29.1254 9.13878 29.4073 8.70958C29.6306 8.37001 30.0777 8.27409 30.4255 8.06124C31.1651 7.60684 31.1427 6.88008 31.4863 6.19252C31.8459 5.47206 32.6058 5.68491 33.2657 6.10991C33.7667 6.43338 34.1991 6.86677 34.7351 7.12443C35.1991 7.34848 35.7204 7.4297 36.2347 7.4416C36.5513 7.45388 36.868 7.42039 37.1751 7.34218C36.8139 5.98345 35.9712 4.80256 34.804 4.01971C33.6368 3.23687 32.2249 2.90552 30.8316 3.08746C29.4383 3.2694 28.1587 3.9522 27.2314 5.00854C26.3041 6.06488 25.7924 7.42264 25.7918 8.82861H25.7911Z" fill="black"/>
<path d="M33.2636 5.92439C33.7653 6.24786 34.197 6.68056 34.733 6.93961C35.1969 7.16296 35.7182 7.24418 36.2326 7.25608C36.8623 7.27009 37.5404 7.15946 37.9707 6.70436C38.366 6.28427 38.4605 5.63803 38.2933 5.087C38.126 4.53598 37.7251 4.07878 37.2542 3.74761C36.7832 3.41643 36.2368 3.18748 35.9247 2.71348C35.7595 2.46282 35.6798 2.16736 35.5426 1.9006C35.1039 1.04711 34.1173 0.585006 33.1635 0.527593C32.2098 0.47018 31.2644 0.754443 30.3562 1.06251C29.4479 1.37058 28.5327 1.70946 27.574 1.77317C27.1472 1.79978 26.7036 1.77317 26.3075 1.9349C25.775 2.15125 25.4258 2.66867 25.1879 3.19518C24.9213 3.78892 24.7555 4.43726 24.7835 5.0856C24.8423 6.46981 25.7561 7.82811 25.3545 9.15421C25.2481 9.50778 25.0487 9.87047 25.155 10.224C25.3104 10.7401 25.9758 10.8577 26.5139 10.8822C26.6539 10.5748 26.579 10.2191 26.5762 9.88167C26.5734 9.54419 26.698 9.1458 27.0226 9.05478C27.672 8.87344 28.1198 10.0847 28.758 9.86626C29.2443 9.69893 29.1183 8.95606 29.401 8.52687C29.6242 8.18659 30.0721 8.09137 30.4191 7.87852C31.1588 7.42412 31.1364 6.69736 31.4799 6.00981C31.8424 5.28585 32.603 5.49869 33.2636 5.92439Z" fill="#575A89"/>
<path d="M43.528 32.5674L44.0619 32.7536C44.0619 32.7536 43.852 35.9127 44.5517 36.8187C45.2515 37.7247 42.2538 39.9771 42.2538 39.9771C42.2538 39.9771 38.1449 39.954 38.0288 39.6271C37.9126 39.3001 38.2387 33.7738 38.2387 33.7738C38.2387 33.7738 40.4443 32.914 40.2588 31.5438C40.2588 31.5438 40.932 34.7722 41.9298 34.6328C42.9276 34.4935 44.0605 33.6596 43.528 32.5674Z" fill="#E8F5FF"/>
<path opacity="0.1" d="M41.7471 35.6103C40.9692 35.6103 40.3386 35.0332 40.3386 34.3213C40.3386 33.6094 40.9692 33.0323 41.7471 33.0323C42.5251 33.0323 43.1557 33.6094 43.1557 34.3213C43.1557 35.0332 42.5251 35.6103 41.7471 35.6103Z" fill="black"/>
<path d="M40.207 32.6605C40.207 32.6605 40.4869 24.113 42.9234 26.0174C45.3599 27.9219 45.3837 30.1995 44.9197 30.8723C44.4558 31.5452 42.9682 34.9136 42.9682 34.9136C42.7355 35.0485 42.4741 35.1264 42.2056 35.1408C41.937 35.1552 41.6689 35.1057 41.4231 34.9964C41.1773 34.8871 40.9609 34.7211 40.7916 34.512C40.6223 34.3029 40.505 34.0566 40.4491 33.7934L40.207 32.6605Z" fill="#FFB0B1"/>
<path opacity="0.1" d="M25.0081 11.0096C25.0195 10.9721 25.0413 10.9385 25.0711 10.913C25.1914 10.8031 25.4503 10.7646 25.8408 10.7982L25.8247 10.983C25.3041 10.9382 25.2012 11.0418 25.1879 11.0593V11.0768L25.1718 11.0999C25.1069 11.1872 25.0609 11.2871 25.0368 11.3932C25.0127 11.4993 25.0111 11.6093 25.0319 11.7161C25.1459 12.2867 25.8464 12.7411 25.8534 12.746L25.8702 12.7558L25.8807 12.7719C26.1829 13.2207 27.8924 14.4873 28.3395 14.815L28.3787 14.7701C28.5788 14.9438 30.338 16.4848 30.4331 17.0751C30.4947 17.4454 30.9118 17.589 31.0629 17.6289C31.2224 17.5077 31.7402 17.0954 32.0096 16.6333C32.2622 16.1985 31.2455 15.3499 31.156 15.0187L31.2959 14.8752C31.3106 14.9284 32.6163 16.1494 32.2531 16.7733C31.9621 17.2739 31.4303 17.7024 31.2441 17.8438C31.3036 18.3843 31.6738 21.5581 32.2427 22.3101C32.9494 23.2448 33.5435 27.9555 33.4777 29.6001C33.4196 31.0614 33.801 33.8214 35.0745 35.0067C35.295 35.2209 35.5609 35.3826 35.8526 35.4796C36.1442 35.5765 36.454 35.6064 36.7587 35.5669H36.7741H36.7895C36.8077 35.5669 38.655 35.7559 40.207 34.4466C41.4771 33.3775 42.1964 31.6327 42.3461 29.2592H42.3769L42.3895 28.5681C42.0452 28.5143 41.735 28.3291 41.5243 28.0513C41.3136 27.7736 41.2187 27.4249 41.2595 27.0786C41.3003 26.7322 41.4737 26.4152 41.7432 26.1941C42.0127 25.973 42.3574 25.8651 42.7048 25.8929C43.0522 25.9208 43.3753 26.0823 43.6062 26.3435C43.8371 26.6047 43.9578 26.9453 43.943 27.2937C43.9282 27.6422 43.779 27.9713 43.5267 28.2119C43.2745 28.4525 42.9388 28.586 42.5903 28.5842H42.5749L42.5623 29.2711L42.6239 29.2753C42.47 31.7258 41.7143 33.5385 40.3848 34.6581C39.3743 35.4959 38.0835 35.9186 36.7734 35.8406C36.6805 35.8508 36.587 35.8559 36.4935 35.856C35.8931 35.8591 35.3153 35.6266 34.8842 35.2084C33.5428 33.9586 33.1348 31.0971 33.1985 29.5861C33.2685 27.8434 32.645 23.3022 32.0194 22.4753C31.4065 21.6639 31.0349 18.502 30.9698 17.8893C30.748 17.827 30.2463 17.6303 30.1609 17.1192C30.0994 16.7495 28.9245 15.6103 28.2017 14.9795L28.2234 14.9543C27.8343 14.67 26.6245 13.7738 26.0248 13.1983C25.8387 13.0198 25.6539 12.8412 25.4608 12.6711C25.2285 12.4652 24.9332 12.1383 24.8556 11.7518C24.8291 11.6242 24.8289 11.4925 24.8552 11.3649C24.8814 11.2373 24.9334 11.1164 25.0081 11.0096Z" fill="black"/>
<path d="M31.2679 17.7997C31.2973 17.7794 31.9943 17.2802 32.3434 16.6795C32.7059 16.0556 31.4002 14.8353 31.3862 14.782L31.2462 14.9256C31.3351 15.256 32.3518 16.1053 32.0992 16.5394C31.7808 17.0877 31.1105 17.5673 31.1035 17.5722L31.2679 17.7997Z" fill="#353146"/>
<path d="M28.4305 14.9508L28.5397 14.8003C28.5173 14.7842 26.3194 13.1934 25.973 12.6788L25.9618 12.6634L25.9458 12.6529C25.9388 12.648 25.2383 12.1943 25.1243 11.623C25.1032 11.5163 25.1048 11.4064 25.1289 11.3004C25.153 11.1944 25.1991 11.0946 25.2642 11.0075L25.2803 10.9837V10.9669C25.2943 10.9487 25.3972 10.8458 25.9178 10.8906L25.9339 10.7051C25.5427 10.6714 25.2845 10.71 25.1641 10.8199C25.1342 10.8457 25.1121 10.8794 25.1005 10.9172C25.0248 11.0237 24.9717 11.1445 24.9445 11.2723C24.9173 11.4 24.9166 11.532 24.9423 11.6601C25.02 12.0473 25.3146 12.3742 25.5476 12.5794C25.74 12.7495 25.9255 12.9294 26.1109 13.1066C26.8141 13.7808 28.3535 14.8955 28.4305 14.9508Z" fill="#E8F5FF"/>
<path d="M42.4799 28.3243L42.6653 28.3277L42.6446 29.4555L42.4592 29.4521L42.4799 28.3243Z" fill="#E8F5FF"/>
<path d="M42.6806 28.4953C41.9328 28.4953 41.3266 27.8887 41.3266 27.1405C41.3266 26.3923 41.9328 25.7857 42.6806 25.7857C43.4284 25.7857 44.0346 26.3923 44.0346 27.1405C44.0346 27.8887 43.4284 28.4953 42.6806 28.4953Z" fill="#587EEC"/>
<path d="M42.6806 28.2657C42.0595 28.2657 41.5561 27.7619 41.5561 27.1405C41.5561 26.5191 42.0595 26.0154 42.6806 26.0154C43.3016 26.0154 43.8051 26.5191 43.8051 27.1405C43.8051 27.7619 43.3016 28.2657 42.6806 28.2657Z" fill="#E8F5FF"/>
<path d="M36.5817 35.7657C36.6752 35.7658 36.7686 35.7609 36.8616 35.751C38.1716 35.8282 39.4621 35.4056 40.4729 34.5684C41.8024 33.4482 42.5568 31.6376 42.7121 29.1849L42.4322 29.1674C42.2825 31.541 41.5631 33.2864 40.2924 34.3549C38.7404 35.6607 36.8938 35.4751 36.8756 35.4751H36.8602H36.8448C36.5399 35.5145 36.2301 35.4845 35.9384 35.3876C35.6467 35.2906 35.3806 35.1291 35.1598 34.915C33.887 33.7296 33.5057 30.9696 33.5638 29.5084C33.6337 27.8623 33.0397 23.1517 32.3322 22.2177C31.713 21.3992 31.3288 17.7101 31.3246 17.673L31.3141 17.568L31.2105 17.5498C31.2042 17.5498 30.5997 17.4349 30.5241 16.9826C30.4261 16.3931 28.6698 14.8521 28.4704 14.6777L28.2878 14.8878C29.0134 15.5179 30.1882 16.6578 30.247 17.0281C30.3324 17.5407 30.8341 17.7367 31.0552 17.7983C31.1252 18.4116 31.4939 21.5728 32.1048 22.3843C32.7304 23.2112 33.3538 27.7524 33.2839 29.4951C33.2237 31.006 33.6274 33.8683 34.9688 35.1173C35.4008 35.5366 35.9799 35.7694 36.5817 35.7657Z" fill="#353146"/>
<g opacity="0.1">
<path opacity="0.1" d="M25.1949 7.17347C25.0802 6.74917 24.9416 6.32208 24.8451 5.89218C24.9605 6.32418 25.0998 6.74917 25.1949 7.17347Z" fill="black"/>
<path opacity="0.1" d="M26.3656 10.5076C26.5056 10.2002 26.4307 9.84454 26.4279 9.50707C26.4251 9.16959 26.5496 8.77471 26.8743 8.68018C27.5237 8.49884 27.9715 9.71081 28.6097 9.49167C29.0995 9.32433 28.97 8.58146 29.2527 8.15227C29.4759 7.81199 29.9231 7.71677 30.2701 7.50392C31.0105 7.04952 30.9881 6.32276 31.3309 5.63521C31.6913 4.91405 32.4505 5.1269 33.1111 5.55259C33.6128 5.87606 34.0445 6.30946 34.5805 6.56782C35.0444 6.79117 35.5657 6.87238 36.08 6.88429C36.7063 6.89899 37.3879 6.78766 37.8182 6.33256C38.1499 5.98249 38.2695 5.46927 38.2009 4.98827C38.2128 5.02117 38.2233 5.05408 38.2338 5.08699C38.4018 5.63801 38.3038 6.28565 37.9113 6.70435C37.4809 7.15945 36.7994 7.27007 36.1731 7.25607C35.6581 7.24417 35.1375 7.16295 34.6729 6.9396C34.1355 6.68054 33.7037 6.24784 33.2034 5.92437C32.5429 5.49868 31.783 5.28583 31.4233 6.00699C31.0804 6.69454 31.1021 7.42131 30.3625 7.87571C30.0126 8.08575 29.5683 8.18377 29.3444 8.52405C29.0645 8.95465 29.1884 9.69611 28.7013 9.86345C28.0639 10.0819 27.616 8.87063 26.9667 9.05197C26.642 9.14299 26.5168 9.54208 26.5203 9.87885C26.5238 10.2156 26.5965 10.572 26.458 10.8794C25.9199 10.8549 25.2544 10.7393 25.0984 10.2212C25.0769 10.1469 25.067 10.0696 25.069 9.99228C25.2964 10.3851 25.8814 10.4859 26.3656 10.5076Z" fill="black"/>
</g>
<path opacity="0.1" d="M13.7193 27.7594L12.9069 28.6192C12.9069 28.6192 12.2568 33.3571 11.9321 33.8003C11.6075 34.2435 10.8405 36.0065 11.5606 37.3305C11.5606 37.3305 11.7929 38.051 11.6536 38.3528C11.5144 38.6545 12.6976 40.1648 12.6976 40.1648C12.6976 40.1648 14.2532 41.5581 14.5785 41.7674C14.9039 41.9768 16.6211 43.6487 17.2011 43.6718C17.7812 43.6949 17.9709 44.4154 17.9709 44.4154L21.2442 44.5316C21.2442 44.5316 23.0523 44.4371 23.4456 44.6927C23.4456 44.6927 23.2357 41.9285 25.2558 40.1165L22.6794 39.1873C22.6794 39.1873 21.7039 38.7672 21.4024 38.3283C21.2126 38.0591 20.9435 37.8562 20.6326 37.7478C20.6326 37.7478 19.9133 37.2367 19.8902 36.9581C19.8671 36.6794 19.0107 36.3377 19.0107 36.3377L19.4956 32.1963L19.2402 25.3208C19.2402 25.3208 18.4278 19.5599 16.7099 19.8855C14.9921 20.211 13.7193 27.7594 13.7193 27.7594Z" fill="black"/>
<path d="M13.4394 27.7594L12.627 28.6192C12.627 28.6192 11.9769 33.3571 11.6522 33.8003C11.3276 34.2435 10.5606 36.0065 11.2807 37.3305C11.2807 37.3305 11.5123 38.051 11.373 38.3528C11.2338 38.6545 12.4177 40.1648 12.4177 40.1648C12.4177 40.1648 13.9733 41.5581 14.2986 41.7674C14.624 41.9768 16.3412 43.6487 16.9212 43.6718C17.5013 43.6949 17.6909 44.4154 17.6909 44.4154L20.9643 44.5316C20.9643 44.5316 22.7738 44.4371 23.1657 44.6927C23.1657 44.6927 22.9558 41.9285 24.9759 40.1165L22.3995 39.1873C22.3995 39.1873 21.424 38.7672 21.1224 38.3283C20.9327 38.0591 20.6636 37.8562 20.3527 37.7478C20.3527 37.7478 19.6334 37.2367 19.6103 36.9581C19.5872 36.6794 18.7308 36.3377 18.7308 36.3377L19.2157 32.1963L18.9603 25.3208C18.9603 25.3208 18.1479 19.5599 16.43 19.8855C14.7122 20.211 13.4394 27.7594 13.4394 27.7594Z" fill="#E8F5FF"/>
<path opacity="0.1" d="M16.4594 34.705C16.4594 34.705 14.0684 34.0748 13.4415 34.845C12.8145 35.6152 16.4594 34.705 16.4594 34.705Z" fill="black"/>
<path opacity="0.1" d="M17.0164 35.7615C16.204 36.3307 13.6969 36.3538 13.6969 36.3538L17.0164 35.7615Z" fill="black"/>
<path opacity="0.1" d="M15.7863 38.6069C15.7163 38.63 14.0628 40.3958 13.3687 39.8616C12.6745 39.3274 15.7863 38.6069 15.7863 38.6069Z" fill="black"/>
<path opacity="0.1" d="M38.0547 23.7874C38.0547 23.7874 37.5691 27.1328 37.8084 28.4953C38.0477 29.8578 37.1744 31.5459 37.1744 31.5459L38.0547 23.7874Z" fill="black"/>
<path d="M48.8054 25.1478C49.3652 25.5868 49.7739 26.6259 50.0699 27.7678C50.5863 29.7598 50.7549 32.0696 50.7549 32.0696C50.7549 32.0696 55.2122 31.0474 54.8875 30.5832C54.6832 30.2912 54.9575 28.0913 55.1863 26.4963C55.3228 25.5539 55.4445 24.8223 55.4445 24.8223C55.4445 24.8223 47.273 23.9394 48.8054 25.1478Z" fill="#FFB0B1"/>
<path opacity="0.1" d="M48.8054 25.0547C49.3652 25.4944 49.7739 26.5328 50.0699 27.6747C50.9579 27.9445 51.9024 27.9689 52.8032 27.7451C53.704 27.5214 54.5274 27.058 55.1863 26.4039C55.3228 25.4608 55.4445 24.7292 55.4445 24.7292C55.4445 24.7292 47.273 23.847 48.8054 25.0547Z" fill="black"/>
<path d="M46.4095 22.5524C46.409 23.7702 46.8391 24.9489 47.6237 25.8798C48.4082 26.8108 49.4967 27.4341 50.6963 27.6393C51.896 27.8445 53.1295 27.6184 54.1786 27.0011C55.2277 26.3838 56.0247 25.415 56.4286 24.2662C56.8325 23.1174 56.8172 21.8627 56.3854 20.7242C55.9536 19.5856 55.1332 18.6365 54.0694 18.045C53.0055 17.4535 51.7668 17.2576 50.5726 17.4921C49.3783 17.7265 48.3054 18.3762 47.5437 19.3261C46.8098 20.241 46.4097 21.3791 46.4095 22.5524Z" fill="#FFB0B1"/>
<path opacity="0.1" d="M42.3455 54.7987H43.8149L43.9388 52.2018L44.0682 49.5139C44.0682 49.5139 43.7345 49.4642 43.2027 49.39L42.9878 49.3613H42.9704C42.8542 49.9067 42.7394 50.4668 42.6289 51.0263C42.4449 52.0194 42.3491 53.0269 42.3427 54.0369C42.3427 54.107 42.3427 54.177 42.3427 54.2428C42.3385 54.4297 42.3427 54.6167 42.3455 54.7987Z" fill="black"/>
<path d="M42.6274 54.7987H61.0557C60.9759 54.6174 60.9227 54.5074 60.9227 54.5074C60.9227 54.5074 59.4484 48.0534 58.699 45.3228C58.6987 45.3205 58.6987 45.3181 58.699 45.3158C58.6053 44.9449 58.4923 44.5791 58.3603 44.2201C58.3518 44.1957 58.3407 44.1722 58.3274 44.15C57.9565 43.5465 57.4919 42.8961 58.142 41.967C58.792 41.0379 58.5618 36.9497 58.5618 36.9497C58.5618 36.9497 57.7725 33.465 56.937 31.6068C56.8102 31.3189 56.6303 31.0576 56.4066 30.8366C56.3339 30.7654 56.2563 30.6994 56.1743 30.6392C56.112 30.5923 56.047 30.549 55.9798 30.5096L55.9665 30.5012C55.6155 30.3021 55.2258 30.181 54.8238 30.1462C54.5383 30.1164 54.2501 30.1244 53.9666 30.1701C52.612 30.3689 51.5274 30.7015 50.6653 31.0803C48.3289 32.1074 47.6214 33.4839 47.6075 33.5126L47.6019 33.5245C47.5081 33.7436 46.1366 36.9476 45.6426 38.4424C45.5145 38.8317 45.4446 39.1054 45.4726 39.1803C45.6125 39.5514 44.4048 44.197 44.4048 44.197C44.4048 44.197 43.845 46.4375 43.2852 49.0637C43.2607 49.173 43.2376 49.2822 43.2152 49.3928C43.1152 49.8696 43.0158 50.3555 42.9199 50.8407C42.7342 51.8407 42.6384 52.8553 42.6337 53.8724C42.6235 54.1893 42.6214 54.4981 42.6274 54.7987Z" fill="#EB5569"/>
<path opacity="0.1" d="M54.9337 28.5485C54.9337 28.5485 56.2051 28.0584 56.1897 28.802C56.1743 29.5455 55.8797 29.9012 55.9728 30.0097C56.0658 30.1183 55.9266 30.7687 55.9266 30.7687C55.9266 30.7687 54.2087 30.7687 53.4194 31.1244C52.6301 31.4801 49.7206 32.1928 49.3491 32.4099C48.9775 32.6269 47.5997 33.6001 47.5997 33.6001L47.4759 31.7573C47.4759 31.7573 48.8998 30.5804 51.2363 29.9768C53.5727 29.3733 54.9337 28.5485 54.9337 28.5485Z" fill="black"/>
<path d="M54.9337 28.4554C54.9337 28.4554 56.2051 27.9653 56.1897 28.7088C56.1743 29.4524 55.8797 29.8081 55.9728 29.9166C56.0658 30.0251 55.9266 30.6756 55.9266 30.6756C55.9266 30.6756 54.2087 30.6756 53.4194 31.0319C52.6301 31.3883 49.7206 32.1004 49.3491 32.3167C48.9775 32.5331 47.5997 33.507 47.5997 33.507L47.4745 31.6698C47.4745 31.6698 48.8984 30.4928 51.2349 29.8893C53.5713 29.2858 54.9337 28.4554 54.9337 28.4554Z" fill="#EB5569"/>
<path opacity="0.1" d="M51.0956 32.8902C51.0956 32.8902 48.6662 35.522 48.79 36.2509C48.9139 36.9798 51.0956 32.8902 51.0956 32.8902Z" fill="black"/>
<path opacity="0.1" d="M55.0421 42.3976C55.0421 42.3976 56.8229 44.0395 57.3477 44.1326C57.8725 44.2257 56.9454 44.5352 56.3422 44.288C55.739 44.0408 54.4529 43.3904 54.4529 43.3904L55.0421 42.3976Z" fill="black"/>
<path d="M41.9039 54.7987H46.0568C46.6376 54.2946 47.1869 53.8276 47.5368 53.5468C48.0966 53.0973 48.5003 52.4357 48.7578 51.9036C48.8159 51.7824 48.8663 51.669 48.9089 51.5661C48.9854 51.3888 49.0526 51.2077 49.1105 51.0235L46.0351 49.1961C45.8652 49.3407 45.7055 49.497 45.5572 49.6638L45.5201 49.7065C45.3494 49.9081 45.199 50.1371 45.1857 50.3247C45.1703 50.5432 44.5629 51.3883 43.9422 52.1997C43.3125 53.0252 42.6673 53.8143 42.6246 53.8675C42.6246 53.8675 42.5183 54.0124 42.3447 54.2351C42.2223 54.3961 42.0711 54.5894 41.9039 54.7987Z" fill="#FFB0B1"/>
<path opacity="0.1" d="M47.5438 19.326C47.6914 19.6593 47.8237 20.0052 47.8433 20.3763C47.8985 21.4475 47.809 23.8427 48.9943 24.3805C49.5814 24.6451 50.2098 24.064 50.8535 24.05C51.3168 24.0402 51.7415 24.3343 52.0242 24.7018C52.3069 25.0694 52.4825 25.5056 52.6875 25.9215C52.8742 26.299 53.0891 26.6618 53.3306 27.0067C53.4028 27.1123 53.4823 27.2127 53.5685 27.3071C54.2913 27.0019 54.9349 26.5357 55.4503 25.9439C55.9658 25.3522 56.3394 24.6505 56.5428 23.8924C56.7461 23.1342 56.7738 22.3396 56.6238 21.5692C56.4738 20.7987 56.1499 20.0726 55.677 19.4464C55.2041 18.8201 54.5945 18.3101 53.8947 17.9552C53.195 17.6003 52.4235 17.41 51.6391 17.3987C50.8547 17.3873 50.078 17.5553 49.3683 17.8898C48.6586 18.2243 48.0346 18.7165 47.5438 19.3288V19.326Z" fill="black"/>
<path d="M47.9363 20.1872C47.9923 21.2585 47.902 23.6537 49.0881 24.1907C49.6751 24.4554 50.3035 23.875 50.9473 23.861C51.4105 23.8505 51.8345 24.1452 52.1179 24.5121C52.4013 24.879 52.5755 25.3159 52.7813 25.7325C52.968 26.1099 53.1829 26.4727 53.4243 26.8177C53.5685 27.0222 53.728 27.2273 53.9498 27.3421C54.3361 27.5438 54.8042 27.4303 55.2184 27.3008C55.7558 27.1314 56.2853 26.9405 56.8068 26.7281C56.7949 26.6493 56.7888 26.5697 56.7887 26.49C56.804 26.5194 56.8208 26.5468 56.8376 26.5762L56.8705 26.6336C56.93 26.7386 56.9881 26.8436 57.0413 26.9514C57.0616 26.9928 57.0811 27.0355 57.0986 27.0782C57.169 27.2371 57.2132 27.4064 57.2295 27.5795C57.2652 28.0465 57.035 28.4897 56.8306 28.9098C56.0448 30.5348 55.5592 32.4351 56.1505 34.1399C56.4066 34.8814 56.8502 35.5402 57.1742 36.2565C57.7405 37.5251 57.9073 38.9362 57.6521 40.302C57.4905 41.1506 57.1665 41.9908 57.2463 42.8513C57.3862 44.3321 58.6625 45.4341 59.941 46.1917C60.6316 46.5992 61.4769 46.9619 62.2102 46.6398C61.7428 46.0937 61.6224 45.3382 61.5217 44.6255C61.246 42.6814 60.9696 40.7363 60.6925 38.7904C60.5819 38.016 60.4716 37.2416 60.3615 36.4673C60.1558 35.0123 59.9473 33.5413 60.076 32.0773C60.1698 30.9983 60.4343 29.8529 59.9669 28.8762C59.7198 28.3588 59.2797 27.9303 59.1426 27.3729C59.0299 26.9199 59.1349 26.4382 59.0607 25.9768C59.0201 25.7669 58.9514 25.5634 58.8564 25.3719C58.7354 25.112 58.5775 24.871 58.3875 24.6563C58.5751 24.6017 58.75 24.5268 58.8564 24.37C58.5555 24.1739 58.51 23.7321 58.6465 23.4003C58.7829 23.0684 59.0558 22.8156 59.3014 22.5538C59.547 22.2919 59.7835 21.9866 59.8143 21.6296C59.8738 20.9497 59.195 20.4232 59.0754 19.7524C58.9543 19.0698 59.433 18.406 59.3945 17.715C59.3497 16.8797 58.5828 16.2727 57.8257 15.9205C56.6831 15.3913 55.4211 15.1739 54.1674 15.2904C53.1472 15.387 52.1599 15.7028 51.1425 15.8253C50.5288 15.8953 49.9068 15.9023 49.2973 16.0101C48.6878 16.1179 48.0769 16.3455 47.648 16.7929C46.5172 17.9727 47.8719 18.9438 47.9363 20.1872Z" fill="#575A89"/>
<path opacity="0.1" d="M48.8824 51.9043C49.2393 51.7495 49.8887 51.842 51.0033 51.5024C52.118 51.1628 52.3328 49.6281 52.3328 49.6281V49.6232C52.3461 49.5882 52.4497 49.3599 53.1508 48.5603C53.9254 47.6774 55.5999 43.2182 55.5999 43.2182C55.5999 43.2182 57.0847 41.6225 57.0378 41.0344C56.991 40.4462 57.3016 38.8814 57.2709 37.131C57.2401 35.3806 53.9282 34.2198 53.9282 34.2198C47.5515 33.089 49.0532 40.4448 49.2232 41.0022C49.3932 41.5595 48.5109 43.0648 48.5109 43.0648C48.6354 43.7202 48.0001 44.7347 48.0001 44.7347C48.0001 44.7347 47.8461 45.6323 47.8146 45.9733C47.8129 45.989 47.8094 46.0045 47.8041 46.0195C47.702 46.3408 46.8693 46.6321 46.5306 46.8092C46.1745 46.9955 45.029 48.6212 45.029 48.6212C44.782 49.815 48.527 52.0611 48.8824 51.9043Z" fill="black"/>
<path d="M48.6969 51.6242C49.0531 51.4688 49.7031 51.5619 50.8171 51.2216C51.9311 50.8813 52.1466 49.348 52.1466 49.348V49.3431C52.1592 49.3074 52.2635 49.0798 52.9646 48.2803C53.7392 47.3974 55.4137 42.9374 55.4137 42.9374C55.4137 42.9374 56.8985 41.3424 56.8523 40.7543C56.8061 40.1662 57.1154 38.6013 57.0846 36.8523C57.0538 35.1033 53.7441 33.9432 53.7441 33.9432C47.3674 32.8124 48.869 40.1683 49.0391 40.7256C49.2091 41.2829 48.3267 42.7882 48.3267 42.7882C48.4513 43.4436 47.8159 44.4581 47.8159 44.4581C47.8159 44.4581 47.662 45.3557 47.6298 45.6967C47.6286 45.7125 47.6253 45.728 47.62 45.7429C47.5178 46.0643 46.6852 46.3555 46.3458 46.5327C45.9903 46.7182 44.8442 48.3447 44.8442 48.3447C44.5958 49.5363 48.3407 51.7824 48.6969 51.6242Z" fill="#EB5569"/>
<path opacity="0.1" d="M53.6182 37.7835C53.6182 37.7835 50.8325 40.7242 50.1055 40.7242C49.3785 40.7242 53.6182 37.7835 53.6182 37.7835Z" fill="black"/>
<path d="M48.697 51.6242C49.0531 51.4688 49.7032 51.5619 50.8172 51.2216C51.9311 50.8814 52.1467 49.348 52.1467 49.348V49.3431C51.4084 48.853 49.5388 47.4688 48.8019 46.9626C48.2834 46.6076 47.8601 46.086 47.6124 45.7401C47.5102 46.0615 46.6775 46.3528 46.3382 46.5299C45.9827 46.7154 44.8365 48.3419 44.8365 48.3419C44.5958 49.5364 48.3408 51.7825 48.697 51.6242Z" fill="#FF748E"/>
<g opacity="0.1">
<path opacity="0.1" d="M58.8522 24.3777C58.8487 24.3833 58.8438 24.3882 58.8396 24.3938C58.8186 24.3672 58.797 24.3406 58.7746 24.3154C58.7984 24.3386 58.8244 24.3594 58.8522 24.3777Z" fill="black"/>
<path opacity="0.1" d="M57.2288 27.5872C57.1994 27.1986 56.9916 26.8562 56.7971 26.5145C56.9244 26.4655 57.0518 26.4158 57.1777 26.364C57.1657 26.2855 57.1596 26.2061 57.1595 26.1267C57.3561 26.4767 57.5703 26.8212 57.6003 27.2154C57.636 27.6831 57.4058 28.1256 57.2015 28.5457C56.415 30.1701 55.9301 32.0703 56.5214 33.7759C56.7782 34.5166 57.2211 35.1762 57.5451 35.8924C58.1112 37.1609 58.2777 38.5718 58.0223 39.9372C57.8621 40.7865 57.5374 41.626 57.6171 42.4865C57.7571 43.9673 59.0327 45.0694 60.3118 45.8262C60.8345 46.1357 61.4454 46.4193 62.0297 46.399C62.0838 46.4861 62.1441 46.5691 62.2102 46.6475C61.4762 46.9717 60.6316 46.6069 59.941 46.198C58.6611 45.4419 57.3827 44.3426 57.2428 42.859C57.163 41.9985 57.4877 41.159 57.6486 40.3097C57.9041 38.9444 57.7381 37.5336 57.1728 36.2649C56.8509 35.5494 56.4031 34.8891 56.1491 34.1483C55.5578 32.4428 56.0434 30.5425 56.8292 28.9182C57.0329 28.4953 57.2645 28.0549 57.2288 27.5872Z" fill="black"/>
<path opacity="0.1" d="M47.6494 16.8013C47.7183 16.7306 47.7922 16.6651 47.8706 16.6052C47.0225 17.7059 48.247 18.6413 48.3079 19.826C48.3625 20.8972 48.2729 23.2931 49.459 23.8294C50.0453 24.0948 50.6744 23.5137 51.3175 23.4997C51.7814 23.4899 52.2054 23.7846 52.4888 24.1515C52.7722 24.5184 52.9464 24.9553 53.1515 25.3712C53.3385 25.7486 53.5537 26.1114 53.7952 26.4564C53.9352 26.6616 54.0989 26.866 54.3214 26.9815C54.7063 27.1825 55.1744 27.0698 55.5893 26.9395C55.9929 26.8126 56.3926 26.6725 56.7887 26.5194C56.7895 26.5924 56.7956 26.6651 56.8069 26.7372C56.2849 26.95 55.7552 27.1409 55.2178 27.3099C54.8035 27.4401 54.3354 27.5529 53.9499 27.3519C53.728 27.2364 53.5671 27.0312 53.4237 26.8261C53.182 26.4815 52.967 26.119 52.7806 25.7416C52.5749 25.3257 52.4014 24.8881 52.1173 24.5212C51.8332 24.1543 51.4098 23.8602 50.9466 23.87C50.3028 23.8841 49.6738 24.4652 49.0874 24.1998C47.9014 23.6635 47.9916 21.2676 47.9363 20.1963C47.872 18.9508 46.5173 17.9803 47.6494 16.8013Z" fill="black"/>
</g>
<path opacity="0.1" d="M56.8699 26.6343C56.9293 26.7393 56.9874 26.8443 57.0406 26.9521C57.0609 26.9935 57.0805 27.0362 57.098 27.0789C57.4646 26.7092 58.3575 25.8305 58.8557 25.5581C58.7346 25.2983 58.5767 25.0573 58.3869 24.8426C58.3869 24.8426 57.1994 25.4706 56.8699 26.6343Z" fill="black"/>
<path d="M56.837 26.5769C57.112 25.3313 58.3869 24.657 58.3869 24.657C58.5768 24.8717 58.7347 25.1127 58.8557 25.3726C58.3302 25.6604 57.3618 26.6252 57.0406 26.9522L56.837 26.5769Z" fill="#EB5569"/>
<defs>
<linearGradient id="paint0_linear" x1="24.9172" y1="6.67914" x2="24.9172" y2="5.39226" gradientUnits="userSpaceOnUse">
<stop stop-color="#808080" stop-opacity="0.25"/>
<stop offset="0.54" stop-color="#808080" stop-opacity="0.12"/>
<stop offset="1" stop-color="#808080" stop-opacity="0.1"/>
</linearGradient>
<linearGradient id="paint1_linear" x1="-32025.9" y1="46105.5" x2="-32025.9" y2="3214.57" gradientUnits="userSpaceOnUse">
<stop stop-color="#808080" stop-opacity="0.25"/>
<stop offset="0.54" stop-color="#808080" stop-opacity="0.12"/>
<stop offset="1" stop-color="#808080" stop-opacity="0.1"/>
</linearGradient>
</defs>
</svg>
