<svg width="76" height="55" viewBox="0 0 76 55" fill="none" xmlns="http://www.w3.org/2000/svg">
<path opacity="0.6" d="M44.1576 9.6632C39.2853 9.49376 34.6412 7.91981 30.2132 6.19813C25.7853 4.47645 21.3966 2.56852 16.6384 1.65622C13.5791 1.06879 10.0805 0.986173 7.61599 2.62734C5.24389 4.20619 4.47768 6.93189 4.06554 9.46085C3.75555 11.3639 3.57572 13.3663 4.4231 15.1482C5.01298 16.3847 6.05978 17.4244 6.78401 18.6091C9.30306 22.7309 7.52223 27.814 4.79186 31.842C3.51135 33.7324 2.02581 35.5311 1.03778 37.5413C0.049755 39.5514 -0.407872 41.8542 0.457001 43.9043C1.31418 45.9347 3.356 47.4625 5.56857 48.5358C10.0623 50.714 15.3572 51.3371 20.5205 51.6942C31.95 52.4763 43.441 52.1374 54.9006 51.7985C59.1417 51.6725 63.4017 51.5458 67.5735 50.8883C69.8903 50.5235 72.2827 49.9452 73.9649 48.5491C76.0998 46.7763 76.6295 43.7755 75.1985 41.5525C72.7984 37.8248 66.1628 36.8985 64.4849 32.8978C63.5619 30.6959 64.5101 28.2425 65.8522 26.2002C68.7302 21.8193 73.5556 17.9754 73.8096 12.9672C73.9845 9.52737 71.6649 6.0833 68.078 4.45544C64.319 2.74776 59.106 2.96341 56.333 5.78574C53.4773 8.69348 48.4588 9.81233 44.1576 9.6632Z" fill="#587EEC"/>
<path d="M16.9512 50.763C16.9512 50.763 13.1027 47.8518 12.3757 44.1486C12.0808 42.5933 11.29 41.1756 10.1218 40.108C9.56298 39.6059 8.95939 39.1559 8.3186 38.7637" stroke="#9AB1F3" stroke-width="2" stroke-miterlimit="10"/>
<path d="M7.84761 36.4309C8.18488 36.8874 8.33743 38.8219 8.33743 38.8219C8.33743 38.8219 6.53421 38.1112 6.19624 37.6554C6.03395 37.4363 5.96529 37.1617 6.00538 36.8919C6.04547 36.6221 6.19102 36.3793 6.41001 36.217C6.62899 36.0546 6.90348 35.9859 7.17308 36.026C7.44269 36.0661 7.68532 36.2117 7.84761 36.4309Z" fill="#587EEC"/>
<path d="M11.0818 37.9488C11.1168 38.5152 10.1953 40.2222 10.1953 40.2222C10.1953 40.2222 9.06659 38.644 9.0309 38.0776C9.01733 37.8076 9.11064 37.5431 9.29062 37.3414C9.4706 37.1397 9.72275 37.0171 9.99243 37.0002C10.2621 36.9832 10.5276 37.0733 10.7314 37.2509C10.9352 37.4284 11.0608 37.6792 11.0811 37.9488H11.0818Z" fill="#587EEC"/>
<path d="M14.2166 42.3121C13.9619 42.819 12.3042 43.8273 12.3042 43.8273C12.3042 43.8273 12.1272 41.8948 12.3819 41.3879C12.5073 41.1495 12.7212 40.97 12.9776 40.8878C13.2339 40.8056 13.5123 40.8274 13.7528 40.9486C13.9933 41.0697 14.1766 41.2804 14.2633 41.5355C14.3501 41.7905 14.3333 42.0694 14.2166 42.3121Z" fill="#587EEC"/>
<path d="M15.8463 46.1462C15.6805 46.6888 14.2173 47.9624 14.2173 47.9624C14.2173 47.9624 13.7156 46.0881 13.8815 45.5448C13.9612 45.2841 14.1411 45.0657 14.3817 44.9378C14.6223 44.8098 14.9039 44.7827 15.1644 44.8625C15.425 44.9422 15.6432 45.1223 15.7711 45.363C15.899 45.6038 15.926 45.8855 15.8463 46.1462Z" fill="#587EEC"/>
<path d="M8.52707 41.5945C9.08686 41.6701 10.8565 40.8705 10.8565 40.8705C10.8565 40.8705 9.36325 39.6327 8.80066 39.5571C8.53064 39.5208 8.25727 39.5933 8.04068 39.7586C7.82409 39.924 7.68203 40.1687 7.64575 40.4389C7.60947 40.7091 7.68194 40.9826 7.84722 41.1993C8.0125 41.4161 8.25705 41.5582 8.52707 41.5945Z" fill="#587EEC"/>
<path d="M10.4898 46.0552C11.0496 45.9593 12.4959 44.6675 12.4959 44.6675C12.4959 44.6675 10.7004 43.9337 10.1413 44.0296C10.0075 44.0516 9.87928 44.0998 9.76416 44.1716C9.64904 44.2434 9.54928 44.3373 9.47062 44.4479C9.39196 44.5585 9.33597 44.6835 9.30587 44.8159C9.27578 44.9482 9.27218 45.0852 9.29528 45.219C9.31838 45.3527 9.36773 45.4805 9.44047 45.5951C9.51321 45.7097 9.60791 45.8087 9.71909 45.8864C9.83028 45.9642 9.95575 46.0191 10.0883 46.0481C10.2208 46.077 10.3577 46.0794 10.4912 46.0552H10.4898Z" fill="#587EEC"/>
<path d="M12.9914 50.1294C13.5588 50.1294 15.2032 49.1008 15.2032 49.1008C15.2032 49.1008 13.5581 48.0737 12.9907 48.0737C12.7182 48.0737 12.4569 48.182 12.2643 48.3748C12.0717 48.5675 11.9634 48.8289 11.9634 49.1015C11.9634 49.3741 12.0717 49.6356 12.2643 49.8283C12.4569 50.0211 12.7182 50.1294 12.9907 50.1294H12.9914Z" fill="#587EEC"/>
<path d="M54.3381 25.5834C54.3381 25.5834 56.7102 21.3789 60.2858 20.1677C61.7873 19.6687 63.0866 18.6961 63.9888 17.3957C64.412 16.7741 64.7772 16.1148 65.0797 15.4262" stroke="#9AB1F3" stroke-width="2" stroke-miterlimit="10"/>
<path d="M67.3244 14.656C66.9171 15.0509 65.0215 15.4598 65.0215 15.4598C65.0215 15.4598 65.4869 13.5764 65.8941 13.1808C66.0907 12.9966 66.3517 12.8971 66.6209 12.9036C66.8901 12.91 67.146 13.022 67.3335 13.2154C67.521 13.4088 67.6251 13.6681 67.6234 13.9376C67.6217 14.207 67.5143 14.465 67.3244 14.656Z" fill="#587EEC"/>
<path d="M66.2524 18.0609C65.6926 18.1715 63.8824 17.4839 63.8824 17.4839C63.8824 17.4839 65.2958 16.1536 65.8521 16.0451C65.9857 16.0155 66.1239 16.0128 66.2585 16.0373C66.3931 16.0618 66.5214 16.1129 66.636 16.1878C66.7506 16.2626 66.8491 16.3595 66.9257 16.4729C67.0023 16.5864 67.0555 16.714 67.0822 16.8482C67.1089 16.9825 67.1085 17.1208 67.081 17.2549C67.0535 17.389 66.9995 17.5163 66.9222 17.6292C66.8449 17.7422 66.7459 17.8386 66.6308 17.9127C66.5158 17.9868 66.3871 18.0372 66.2524 18.0609Z" fill="#587EEC"/>
<path d="M62.3507 21.7493C61.8147 21.5637 60.5964 20.0542 60.5964 20.0542C60.5964 20.0542 62.4857 19.6215 63.0231 19.8071C63.1522 19.8499 63.2716 19.918 63.3742 20.0074C63.4768 20.0968 63.5606 20.2056 63.6208 20.3277C63.681 20.4498 63.7164 20.5826 63.7249 20.7184C63.7334 20.8543 63.7148 20.9904 63.6703 21.1191C63.6258 21.2477 63.5562 21.3662 63.4655 21.4676C63.3748 21.5691 63.2649 21.6516 63.1422 21.7102C63.0194 21.7688 62.8862 21.8025 62.7503 21.8092C62.6145 21.8159 62.4786 21.7955 62.3507 21.7493Z" fill="#587EEC"/>
<path d="M58.7652 23.875C58.2055 23.7825 56.7528 22.4978 56.7528 22.4978C56.7528 22.4978 58.5434 21.7514 59.1025 21.8438C59.3716 21.8881 59.6121 22.0375 59.7711 22.2592C59.9301 22.481 59.9945 22.7568 59.9502 23.026C59.906 23.2953 59.7566 23.5359 59.5351 23.695C59.3135 23.8541 59.0378 23.9186 58.7687 23.8743L58.7652 23.875Z" fill="#587EEC"/>
<path d="M62.3018 16.0115C62.3011 16.5793 63.3304 18.2268 63.3304 18.2268C63.3304 18.2268 64.3583 16.5814 64.3583 16.0143C64.3619 15.8771 64.3379 15.7406 64.288 15.6128C64.238 15.485 64.1629 15.3685 64.0672 15.2702C63.9715 15.1719 63.8571 15.0938 63.7307 15.0405C63.6043 14.9871 63.4686 14.9597 63.3314 14.9597C63.1943 14.9597 63.0585 14.9871 62.9321 15.0405C62.8058 15.0938 62.6914 15.1719 62.5957 15.2702C62.4999 15.3685 62.4249 15.485 62.3749 15.6128C62.3249 15.7406 62.301 15.8771 62.3046 16.0143L62.3018 16.0115Z" fill="#587EEC"/>
<path d="M58.1432 18.5503C58.3125 19.0922 59.7848 20.356 59.7848 20.356C59.7848 20.356 60.2746 18.4782 60.1039 17.9363C60.0153 17.6852 59.8329 17.4783 59.5949 17.3591C59.357 17.24 59.0821 17.2178 58.8282 17.2974C58.5742 17.377 58.3611 17.5521 58.2336 17.7858C58.1061 18.0195 58.0742 18.2935 58.1446 18.5503H58.1432Z" fill="#587EEC"/>
<path d="M54.4437 21.5729C54.5193 22.133 55.7564 23.6292 55.7564 23.6292C55.7564 23.6292 56.5548 21.8613 56.4792 21.2991C56.4642 21.1629 56.4222 21.031 56.3555 20.9113C56.2888 20.7916 56.1989 20.6864 56.091 20.602C55.9831 20.5176 55.8595 20.4556 55.7273 20.4197C55.5951 20.3838 55.4571 20.3747 55.3213 20.3929C55.1856 20.4112 55.0549 20.4564 54.9369 20.526C54.8188 20.5955 54.7159 20.688 54.6342 20.7979C54.5524 20.9079 54.4934 21.0331 54.4607 21.1661C54.428 21.2992 54.4222 21.4375 54.4437 21.5729Z" fill="#587EEC"/>
<path opacity="0.25" d="M67.3244 14.656C66.9171 15.0509 65.0215 15.4598 65.0215 15.4598C65.0215 15.4598 65.4869 13.5764 65.8941 13.1808C66.0907 12.9966 66.3517 12.8971 66.6209 12.9036C66.8901 12.91 67.146 13.022 67.3335 13.2154C67.521 13.4088 67.6251 13.6681 67.6234 13.9376C67.6217 14.207 67.5143 14.465 67.3244 14.656Z" fill="black"/>
<path opacity="0.25" d="M66.2524 18.0609C65.6926 18.1715 63.8824 17.4839 63.8824 17.4839C63.8824 17.4839 65.2958 16.1536 65.8521 16.0451C65.9857 16.0155 66.1239 16.0128 66.2585 16.0373C66.3931 16.0618 66.5214 16.1129 66.636 16.1878C66.7506 16.2626 66.8491 16.3595 66.9257 16.4729C67.0023 16.5864 67.0555 16.714 67.0822 16.8482C67.1089 16.9825 67.1085 17.1208 67.081 17.2549C67.0535 17.389 66.9995 17.5163 66.9222 17.6292C66.8449 17.7422 66.7459 17.8386 66.6308 17.9127C66.5158 17.9868 66.3871 18.0372 66.2524 18.0609Z" fill="black"/>
<path opacity="0.25" d="M62.3507 21.7493C61.8147 21.5637 60.5964 20.0542 60.5964 20.0542C60.5964 20.0542 62.4857 19.6215 63.0231 19.8071C63.1522 19.8499 63.2716 19.918 63.3742 20.0074C63.4768 20.0968 63.5606 20.2056 63.6208 20.3277C63.681 20.4498 63.7164 20.5826 63.7249 20.7184C63.7334 20.8543 63.7148 20.9904 63.6703 21.1191C63.6258 21.2477 63.5562 21.3662 63.4655 21.4676C63.3748 21.5691 63.2649 21.6516 63.1422 21.7102C63.0194 21.7688 62.8862 21.8025 62.7503 21.8092C62.6145 21.8159 62.4786 21.7955 62.3507 21.7493Z" fill="black"/>
<path opacity="0.25" d="M58.7652 23.875C58.2055 23.7825 56.7528 22.4978 56.7528 22.4978C56.7528 22.4978 58.5434 21.7514 59.1025 21.8438C59.3716 21.8881 59.6121 22.0375 59.7711 22.2592C59.9301 22.481 59.9945 22.7568 59.9502 23.026C59.906 23.2953 59.7566 23.5359 59.5351 23.695C59.3135 23.8541 59.0378 23.9186 58.7687 23.8743L58.7652 23.875Z" fill="black"/>
<path opacity="0.25" d="M62.3018 16.0115C62.3011 16.5793 63.3304 18.2268 63.3304 18.2268C63.3304 18.2268 64.3583 16.5814 64.3583 16.0143C64.3619 15.8771 64.3379 15.7406 64.288 15.6128C64.238 15.485 64.1629 15.3685 64.0672 15.2702C63.9715 15.1719 63.8571 15.0938 63.7307 15.0405C63.6043 14.9871 63.4686 14.9597 63.3314 14.9597C63.1943 14.9597 63.0585 14.9871 62.9321 15.0405C62.8058 15.0938 62.6914 15.1719 62.5957 15.2702C62.4999 15.3685 62.4249 15.485 62.3749 15.6128C62.3249 15.7406 62.301 15.8771 62.3046 16.0143L62.3018 16.0115Z" fill="black"/>
<path opacity="0.25" d="M58.1432 18.5503C58.3125 19.0922 59.7848 20.356 59.7848 20.356C59.7848 20.356 60.2746 18.4782 60.1039 17.9363C60.0153 17.6852 59.8329 17.4783 59.5949 17.3591C59.357 17.24 59.0821 17.2178 58.8282 17.2974C58.5742 17.377 58.3611 17.5521 58.2336 17.7858C58.1061 18.0195 58.0742 18.2935 58.1446 18.5503H58.1432Z" fill="black"/>
<path opacity="0.25" d="M54.4437 21.5729C54.5193 22.133 55.7564 23.6292 55.7564 23.6292C55.7564 23.6292 56.5548 21.8613 56.4792 21.2991C56.4642 21.1629 56.4222 21.031 56.3555 20.9113C56.2888 20.7916 56.1989 20.6864 56.091 20.602C55.9831 20.5176 55.8595 20.4556 55.7273 20.4197C55.5951 20.3838 55.4571 20.3747 55.3213 20.3929C55.1856 20.4112 55.0549 20.4564 54.9369 20.526C54.8188 20.5955 54.7159 20.688 54.6342 20.7979C54.5524 20.9079 54.4934 21.0331 54.4607 21.1661C54.428 21.2992 54.4222 21.4375 54.4437 21.5729Z" fill="black"/>
<path d="M54.4745 25.5C54.4745 25.5 54.9405 20.6941 57.7157 18.1386C58.8862 17.0735 59.6802 15.6575 59.9786 14.1029C60.1144 13.3638 60.1821 12.6138 60.1808 11.8624" stroke="#9AB1F3" stroke-width="2" stroke-miterlimit="10"/>
<path d="M61.9204 10.2408C61.7105 10.7673 60.1403 11.91 60.1403 11.91C60.1403 11.91 59.803 9.99928 60.015 9.47276C60.1171 9.21994 60.3153 9.01805 60.5662 8.91149C60.817 8.80494 61.0999 8.80245 61.3525 8.90458C61.6052 9.00672 61.807 9.2051 61.9135 9.45609C62.02 9.70707 62.0224 9.99011 61.9204 10.2429V10.2408Z" fill="#587EEC"/>
<path d="M62.3199 13.792C61.856 14.1183 59.9198 14.2254 59.9198 14.2254C59.9198 14.2254 60.6741 12.4372 61.138 12.1109C61.2481 12.0286 61.3735 11.9691 61.5069 11.9361C61.6403 11.9031 61.779 11.8972 61.9147 11.9187C62.0504 11.9403 62.1804 11.9889 62.297 12.0617C62.4137 12.1344 62.5145 12.2298 62.5936 12.3423C62.6727 12.4548 62.7284 12.5819 62.7575 12.7163C62.7866 12.8507 62.7884 12.9896 62.7629 13.1247C62.7374 13.2598 62.685 13.3884 62.6089 13.5029C62.5328 13.6174 62.4345 13.7155 62.3199 13.7913V13.792Z" fill="#587EEC"/>
<path d="M60.2445 18.7477C59.6791 18.7953 57.9536 17.9075 57.9536 17.9075C57.9536 17.9075 59.507 16.7453 60.0724 16.6977C60.3439 16.6748 60.6133 16.7608 60.8214 16.9368C61.0296 17.1127 61.1593 17.3642 61.1821 17.6359C61.205 17.9075 61.119 18.1772 60.9432 18.3854C60.7673 18.5937 60.516 18.7235 60.2445 18.7463V18.7477Z" fill="#587EEC"/>
<path d="M57.8297 22.1428C57.2804 22.2828 55.4303 21.7038 55.4303 21.7038C55.4303 21.7038 56.7647 20.2958 57.314 20.1529C57.5777 20.0845 57.8578 20.1237 58.0926 20.2619C58.3274 20.4001 58.4978 20.626 58.5662 20.8898C58.6345 21.1537 58.5954 21.4339 58.4573 21.6689C58.3191 21.9039 58.0934 22.0743 57.8297 22.1428Z" fill="#587EEC"/>
<path d="M57.8787 13.5204C58.1082 14.0392 59.7134 15.1307 59.7134 15.1307C59.7134 15.1307 59.9863 13.2095 59.7568 12.6907C59.6424 12.4479 59.4377 12.2596 59.1864 12.1659C58.9351 12.0721 58.6571 12.0805 58.4119 12.1891C58.1666 12.2977 57.9736 12.498 57.8739 12.7471C57.7743 12.9963 57.776 13.2745 57.8787 13.5225V13.5204Z" fill="#587EEC"/>
<path d="M55.1049 17.5267C55.4793 17.953 57.3364 18.5118 57.3364 18.5118C57.3364 18.5118 57.0229 16.5968 56.6485 16.1705C56.5602 16.0669 56.4521 15.9819 56.3306 15.9204C56.2092 15.859 56.0767 15.8223 55.941 15.8126C55.8052 15.8028 55.6689 15.8201 55.5399 15.8635C55.4109 15.9069 55.2918 15.9755 55.1895 16.0654C55.0872 16.1552 55.0038 16.2645 54.9441 16.3869C54.8844 16.5093 54.8496 16.6424 54.8417 16.7783C54.8339 16.9143 54.8531 17.0505 54.8983 17.1789C54.9434 17.3074 55.0137 17.4256 55.1049 17.5267Z" fill="#587EEC"/>
<path d="M52.9435 21.792C53.2402 22.2751 54.9762 23.1398 54.9762 23.1398C54.9762 23.1398 54.9909 21.1997 54.6963 20.7159C54.5497 20.4925 54.3218 20.335 54.0611 20.2769C53.8004 20.2188 53.5273 20.2646 53.2998 20.4046C53.0722 20.5445 52.9081 20.7677 52.8423 21.0267C52.7764 21.2857 52.814 21.5602 52.947 21.792H52.9435Z" fill="#587EEC"/>
<path d="M50.9058 6.67914C51.0219 6.25275 51.1619 5.82425 51.2598 5.39226C51.1423 5.82425 51.0016 6.25415 50.9058 6.67914Z" fill="url(#paint0_linear)"/>
<path d="M50.3852 10.7863C50.3754 10.7695 50.3684 10.7527 50.3607 10.7372C50.3607 10.7302 50.3537 10.7246 50.3509 10.7176C50.3357 10.7248 50.32 10.7312 50.3041 10.7365C50.2733 10.7485 50.2418 10.7597 50.2096 10.7688C50.1774 10.7779 50.1641 10.7828 50.1396 10.7884C50.1193 10.7954 50.0985 10.8007 50.0773 10.8045L50.0829 10.8171C50.1088 10.8115 50.134 10.8066 50.1599 10.7996L50.1669 10.8864C50.1963 10.8864 50.2236 10.8822 50.2502 10.8822C50.2628 10.8815 50.2754 10.8815 50.288 10.8822C50.3425 10.8822 50.3901 10.8822 50.4279 10.8822C50.4132 10.8507 50.3978 10.8178 50.3852 10.7863ZM64.5899 33.4104C64.261 32.9672 63.6046 28.2103 63.6046 28.2103C63.6046 28.2103 62.3136 24.8279 62.6656 23.478C63.0175 22.1281 61.7041 18.6742 61.7041 18.6742C61.7041 18.6742 60.8365 18.2968 60.7896 17.7367C60.7896 17.7367 57.2468 16.6165 57.081 15.7763C56.9466 15.0873 54.7495 14.593 53.9602 14.4369C53.7195 13.4651 53.4774 12.5584 53.2989 12.0633C53.2506 11.9093 53.2052 11.7763 53.1632 11.6713C52.8616 10.9011 51.9295 10.8311 51.2536 10.8927C51.2243 10.7614 51.1699 10.6371 51.0934 10.5265C51.0822 10.4885 51.06 10.4546 51.0297 10.4292C51.0152 10.4168 50.9997 10.4056 50.9835 10.3956C50.9713 10.3729 50.9552 10.3525 50.9359 10.3354C50.9167 10.3181 50.8956 10.303 50.8729 10.2905C50.8567 10.2817 50.8398 10.274 50.8226 10.2674C50.782 10.252 50.7401 10.2405 50.6973 10.2331C50.6475 10.2229 50.597 10.2163 50.5462 10.2135C50.6697 10.1595 50.7798 10.0789 50.8687 9.97758C50.9292 9.90643 50.9743 9.82345 51.001 9.73393C51.0232 9.65947 51.0331 9.58191 51.0304 9.50428C51.0122 9.53627 50.9911 9.56651 50.9674 9.5946C50.9968 9.28443 50.8331 8.96936 50.7393 8.66059C50.6257 8.25861 50.6046 7.8361 50.6777 7.42481C50.7715 6.80448 51.0038 6.17714 51.1612 5.5456C51.1616 5.54211 51.1616 5.53858 51.1612 5.53509C51.2438 5.22146 51.2949 4.90037 51.3138 4.57658C51.3411 3.92334 51.1738 3.27149 50.9051 2.67636C50.6665 2.14914 50.3145 1.63033 49.7757 1.41608C49.3755 1.25435 48.927 1.28025 48.4959 1.25365C47.5289 1.19343 46.6066 0.853157 45.6872 0.543688C44.7677 0.23422 43.8217 -0.047243 42.854 0.00666895C41.8862 0.0605809 40.8905 0.527584 40.449 1.38457C40.309 1.65203 40.2286 1.9496 40.0613 2.20096C39.7478 2.67496 39.1867 2.91231 38.7185 3.23929C38.2504 3.56626 37.8383 4.03046 37.6689 4.58428C37.5765 4.88266 37.5634 5.20003 37.6311 5.50499C37.6464 5.57386 37.666 5.64168 37.6899 5.70803C37.7563 5.89303 37.8599 6.06245 37.9943 6.20584C38.0957 6.31182 38.2121 6.40219 38.34 6.474C38.5005 6.56304 38.6723 6.62993 38.8508 6.67285C38.8445 6.69385 38.8382 6.71626 38.8312 6.73796C38.82 6.77367 38.8102 6.80798 38.7997 6.84649C38.7766 6.93261 38.7549 7.02012 38.7367 7.10834C38.736 7.11462 38.736 7.12097 38.7367 7.12725C38.6508 7.52549 38.6076 7.93179 38.608 8.33922C38.6078 8.5319 38.6176 8.72447 38.6374 8.91615C38.9173 11.7574 41.2614 13.9986 44.1576 14.1442C44.2569 14.1491 44.357 14.1519 44.4585 14.1519C44.5046 14.1519 44.5501 14.1519 44.5984 14.1519C44.6439 14.2121 44.6887 14.2737 44.7314 14.3339C44.774 14.3942 44.8132 14.4558 44.8503 14.516L44.7489 14.411L44.6474 14.3178C44.6199 14.3556 44.5892 14.391 44.5557 14.4236C44.4896 14.4003 44.422 14.3811 44.3535 14.3662C44.0631 14.3017 43.6209 14.2779 43.0387 14.4537C42.5034 14.614 41.8491 14.9438 41.0836 15.5704L37.3533 17.8109L35.3353 19.039L34.6083 20.8174C34.6083 20.8174 34.0618 22.9305 33.4537 25.3516C33.4299 25.3586 33.4068 25.3656 33.3838 25.374C33.3345 25.3684 33.285 25.3656 33.2354 25.3656C32.8826 25.3648 32.5432 25.5008 32.2885 25.7451C32.0338 25.9893 31.8836 26.3229 31.8695 26.6756C30.6604 28.1459 30.5918 29.6162 30.8759 30.2912C30.9016 30.3544 30.934 30.4147 30.9725 30.4711C31.1586 30.74 31.5064 31.4331 31.859 32.1718C31.8499 32.2327 31.8443 32.2838 31.8415 32.3223C31.8409 32.3349 31.8409 32.3475 31.8415 32.3601C31.8415 32.3601 32.0515 35.5325 31.3517 36.442C31.1985 36.6402 31.2216 36.9007 31.3517 37.1891C31.8205 38.2267 33.6741 39.6124 33.6741 39.6124C33.6741 39.6124 35.8972 39.6005 37.1357 39.4653C37.1322 39.59 37.1294 39.7139 37.1266 39.835C37.0986 41.0589 37.0986 42.0846 37.0986 42.0846L37.0525 43.368C37.0525 43.368 36.6326 46.0727 36.4227 46.8183C36.2905 47.2861 36.443 51.6165 36.5759 54.8001H58.4791C58.7366 52.9167 58.3734 47.1943 58.3734 47.1943C58.3734 47.1943 58.0284 45.7149 58.0158 44.4252C58.0152 44.4238 58.0148 44.4222 58.0148 44.4207C58.0148 44.4191 58.0152 44.4175 58.0158 44.4161C58.0158 44.3034 58.0158 44.1935 58.02 44.0856L58.1789 44.08L58.4644 44.0702H58.4903C58.4903 44.0702 58.4973 44.0436 58.5133 44.0002C58.5511 43.8921 58.6026 43.7893 58.6666 43.6943C58.7883 43.5143 58.9787 43.3379 59.2649 43.326C59.423 43.3197 59.6679 43.1915 59.9443 43.0025C59.9462 43.0029 59.9481 43.0029 59.9499 43.0025C60.6937 42.4991 61.6769 41.57 61.9155 41.4174C62.2436 41.2073 63.8152 39.807 63.8152 39.807C63.8152 39.807 64.0497 39.5101 64.2995 39.1524L64.3086 39.1397C64.6192 38.6917 64.9495 38.156 64.8683 37.9873C64.7284 37.6848 64.9621 36.9616 64.9621 36.9616C65.6919 35.625 64.9187 33.8536 64.5899 33.4104ZM51.0591 11.875C51.0658 11.8959 51.07 11.9175 51.0717 11.9394C51.0542 11.9163 51.0367 11.8918 51.0192 11.8694L51.0024 11.847L50.9905 11.8302L51.0171 11.7938C51.0171 11.7938 51.0171 11.7938 51.0171 11.7987C51.0356 11.8214 51.0498 11.8472 51.0591 11.875ZM50.824 11.2547C50.7477 11.2701 50.6875 11.2841 50.6483 11.2946C50.5986 11.2064 50.5511 11.1181 50.5084 11.0285C50.6205 11.0936 50.7262 11.1694 50.824 11.2547ZM50.6924 11.3653C50.6922 11.3639 50.6922 11.3625 50.6924 11.3611L50.698 11.3653C50.7267 11.3842 50.7547 11.4024 50.7806 11.4213C50.8037 11.4381 50.8247 11.4542 50.8456 11.471C50.8317 11.4955 50.8163 11.5207 50.8009 11.541C50.7764 11.5025 50.7533 11.4654 50.7309 11.4269C50.7169 11.4115 50.7043 11.3905 50.6924 11.3653ZM50.2726 10.5013C50.4078 10.488 50.5439 10.488 50.6791 10.5013C50.698 10.5013 50.7148 10.5048 50.7316 10.5076C50.7695 10.5135 50.8068 10.5231 50.8428 10.5363C50.9255 10.6521 50.9765 10.7875 50.9905 10.9291L50.9527 10.9347L50.9156 10.9417C50.8456 10.9536 50.7757 10.9655 50.7211 10.9767L50.6511 10.9914C50.5581 11.0117 50.5042 11.0271 50.5021 11.0278C50.493 11.0089 50.4839 10.9914 50.4741 10.9732C50.4587 10.9431 50.4426 10.9123 50.4286 10.8822C50.4146 10.8521 50.3964 10.8178 50.3817 10.7863C50.3719 10.7695 50.3649 10.7527 50.3572 10.7372C50.3572 10.7302 50.3502 10.7246 50.3474 10.7176C50.3434 10.7102 50.3399 10.7025 50.3369 10.6945C50.2943 10.6077 50.2551 10.5209 50.2173 10.4355C50.2131 10.4271 50.2096 10.418 50.2061 10.4096L50.2593 10.4061V10.4243L50.2726 10.5013ZM33.5776 53.9347C33.572 52.8922 33.4964 51.7642 33.2865 50.7056C33.1969 50.2554 33.1046 49.8052 33.0108 49.3627C32.987 49.2521 32.9639 49.1429 32.9408 49.0336L32.7253 49.0623H32.7057C32.1179 46.289 31.5036 43.8455 31.5036 43.8455C31.5036 43.8455 30.2832 39.1832 30.4246 38.8114C30.4428 38.7631 30.4197 38.6328 30.3679 38.4417C30.0726 37.3817 28.8397 34.4606 28.4086 33.4622C28.4086 33.458 28.4051 33.4531 28.4037 33.4496C28.3338 33.2822 28.2834 33.1695 28.268 33.1366L28.3694 31.6467L28.375 31.5571L28.3883 31.3666L28.3827 31.3617L28.3883 31.2735C28.3883 31.2735 27.3233 30.3997 25.5194 29.7689C25.4494 29.7437 25.3753 29.7192 25.3018 29.6954C25.3921 29.0925 25.5117 28.412 25.6678 27.7489C25.6825 27.6824 25.6986 27.618 25.7153 27.5529C25.73 27.4878 25.7468 27.4247 25.7636 27.361C25.7902 27.2574 25.8189 27.1552 25.8483 27.0544C25.9456 27.0236 26.0414 26.9893 26.1359 26.9528L26.1723 26.9388C27.336 26.4857 28.2962 25.6261 28.8752 24.519C29.4541 23.4119 29.6125 22.1325 29.3211 20.9175C29.1549 20.2284 28.8481 19.5812 28.4198 19.0166C28.3876 18.9732 28.3533 18.9298 28.3191 18.8871C28.2848 18.8443 28.2435 18.7967 28.205 18.7533C28.4072 18.2933 28.6458 17.8557 28.6654 17.4083C28.6689 17.3517 28.6689 17.2948 28.6654 17.2382V17.2312C28.6395 16.9434 28.5122 16.6522 28.2155 16.3462C27.7824 15.8974 27.1659 15.6698 26.5494 15.5606C25.933 15.4514 25.3046 15.4486 24.6846 15.3751C23.6567 15.2518 22.6554 14.9347 21.6275 14.8374C20.3614 14.72 19.0867 14.9373 17.9308 15.4675C17.166 15.8176 16.3914 16.4295 16.3452 17.269C16.3074 17.9629 16.7902 18.628 16.6685 19.3134C16.5474 19.987 15.8617 20.517 15.9218 21.1983C15.9449 21.4643 16.0814 21.7024 16.2521 21.9145C16.3109 21.9845 16.3732 22.0546 16.4376 22.1246C16.6867 22.3885 16.961 22.642 17.1002 22.9746C17.1058 22.9886 17.1114 23.0026 17.1163 23.0166C17.2346 23.3449 17.1814 23.7601 16.8889 23.9485C16.8905 23.9497 16.8917 23.9514 16.8924 23.9534C16.8966 23.959 16.9008 23.9632 16.9043 23.9688C16.9047 23.9677 16.9047 23.9664 16.9043 23.9653C17.008 24.0883 17.1478 24.1755 17.3038 24.2145L17.3633 24.2327C17.315 24.2853 17.2695 24.3399 17.2234 24.3973L17.1933 24.4372C17.1162 24.5409 17.046 24.6497 16.9833 24.7628C16.9477 24.8258 16.9134 24.8888 16.8847 24.9518C16.7888 25.1439 16.7193 25.3481 16.6783 25.5588C16.6034 26.0223 16.709 26.5054 16.5957 26.9591C16.4557 27.5193 16.0128 27.9492 15.763 28.4694C15.29 29.4496 15.558 30.6 15.6532 31.6824C15.7826 33.1527 15.5727 34.6293 15.3635 36.0899C15.2524 36.8666 15.1414 37.644 15.0304 38.4221C14.7505 40.3751 14.4706 42.328 14.1907 44.281C14.0885 44.9965 13.9675 45.7513 13.491 46.3037H13.4959C13.4959 46.3037 13.4959 46.3079 13.491 46.3093C13.634 46.3719 13.7861 46.4111 13.9416 46.4256C14.5637 46.4879 15.2228 46.1868 15.7826 45.8577C16.2259 45.6014 16.6458 45.3064 17.0372 44.9762C16.9798 45.1863 16.9183 45.4152 16.8525 45.6617C16.8527 45.664 16.8527 45.6664 16.8525 45.6687C16.0625 48.6794 14.7918 54.1987 14.7918 54.1987C14.7918 54.1987 14.6763 54.4388 14.5266 54.7966H34.2591C34.0282 54.5166 33.8134 54.2484 33.6455 54.0321L33.5776 53.9347ZM18.9671 26.0966C18.972 26.0882 18.9755 26.0805 18.9804 26.0728C18.9804 26.0952 18.9804 26.1169 18.9804 26.1379C18.9804 26.1589 18.9804 26.1778 18.9804 26.1974C18.9804 26.217 18.9804 26.2149 18.9804 26.2247C18.9804 26.2345 18.9804 26.2247 18.9804 26.2247C18.9804 26.2534 18.9741 26.2821 18.9692 26.3108C18.9692 26.3108 18.9692 26.3143 18.9692 26.3171L19.0392 26.343L19.1203 26.3766C19.5999 26.5661 20.0855 26.7377 20.5772 26.8912C20.6276 26.9073 20.6786 26.9227 20.7297 26.9374L20.7402 27.0243C20.7528 27.1132 20.7647 27.2035 20.7759 27.2938C20.7759 27.2938 20.7759 27.298 20.7759 27.3008C20.8074 27.5508 20.8382 27.8 20.8655 28.0437C20.8655 28.0437 19.5808 27.5536 19.5969 28.2978C19.5961 28.3111 19.5961 28.3245 19.5969 28.3378C19.5954 28.3555 19.5954 28.3733 19.5969 28.391C19.6088 28.9707 19.79 29.3145 19.8264 29.4909C19.8242 29.4982 19.8204 29.5049 19.8152 29.5105C19.7841 29.5781 19.7734 29.6533 19.7844 29.7269C19.7832 29.8521 19.793 29.9772 19.8138 30.1007C19.776 30.1238 19.7389 30.147 19.7018 30.1708C19.6738 30.1883 19.6472 30.2079 19.6199 30.2275C19.4483 29.6317 19.2237 29.0524 18.9489 28.4967C18.7565 28.1004 18.5403 27.6873 18.5424 27.2525C18.5424 27.2245 18.5424 27.1958 18.5459 27.1671C18.5537 27.0411 18.5776 26.9166 18.6172 26.7967C18.6333 26.7512 18.6508 26.7064 18.6704 26.6623C18.7161 26.5575 18.7673 26.4551 18.8237 26.3556C18.86 26.2898 18.8985 26.2247 18.9356 26.1589C18.9475 26.1393 18.9587 26.119 18.9699 26.0994L18.9671 26.0966ZM50.3852 10.7863C50.3754 10.7695 50.3684 10.7527 50.3607 10.7372C50.3607 10.7302 50.3537 10.7246 50.3509 10.7176C50.3357 10.7248 50.32 10.7312 50.3041 10.7365C50.2733 10.7485 50.2418 10.7597 50.2096 10.7688C50.1774 10.7779 50.1641 10.7828 50.1396 10.7884L50.0773 10.8045L50.0829 10.8171C50.1088 10.8115 50.134 10.8066 50.1599 10.7996L50.1669 10.8864C50.1963 10.8864 50.2236 10.8822 50.2502 10.8822H50.288C50.3425 10.8822 50.3901 10.8822 50.4279 10.8822C50.4132 10.8507 50.3978 10.8178 50.3852 10.7863Z" fill="url(#paint1_linear)"/>
<path d="M35.096 21.0701L34.6762 21.2557C34.6762 21.2557 31.9395 31.8938 31.9395 32.7536C31.9395 33.6134 37.7424 38.3976 37.7424 38.3976L38.6479 32.2824C38.6479 32.2824 37.3478 18.259 35.096 21.0701Z" fill="#E8F5FF"/>
<path d="M47.8249 17.6863L45.4003 16.4204C45.2645 15.8411 45.0235 15.2917 44.6894 14.7995C44.3346 14.287 43.863 13.7836 43.2752 13.5211C41.7897 12.8545 49.5588 9.35583 49.5588 9.35583C49.6812 9.77612 49.8253 10.1898 49.9906 10.5951C50.3908 11.5837 51.0549 12.8622 51.9107 13.2263C53.3654 13.8459 47.8249 17.6863 47.8249 17.6863Z" fill="#FFB0B1"/>
<path opacity="0.1" d="M49.9906 10.5951C49.6586 11.7633 48.9683 12.7977 48.0171 13.5521C47.0659 14.3065 45.9018 14.7428 44.6894 14.7995C44.3346 14.287 43.863 13.7836 43.2752 13.5211C41.7897 12.8545 49.5588 9.35583 49.5588 9.35583C49.6812 9.77612 49.8253 10.1898 49.9906 10.5951Z" fill="black"/>
<path d="M50.2089 8.82863C50.2091 9.97434 49.8699 11.0944 49.2339 12.0472C48.5979 12.9999 47.6939 13.7426 46.6361 14.1812C45.5783 14.6198 44.4142 14.7346 43.2912 14.5112C42.1681 14.2878 41.1365 13.7362 40.3268 12.9261C39.5171 12.116 38.9657 11.0838 38.7423 9.96015C38.5189 8.83645 38.6336 7.67171 39.0718 6.61322C39.51 5.55473 40.2521 4.65005 41.2042 4.01359C42.1563 3.37714 43.2756 3.03751 44.4207 3.03764C45.1817 3.03412 45.9359 3.1815 46.6397 3.47127C47.3435 3.76104 47.983 4.18745 48.5211 4.72589C49.0593 5.26432 49.4856 5.90411 49.7752 6.6083C50.0649 7.31249 50.2123 8.06712 50.2089 8.82863Z" fill="#FFB0B1"/>
<path d="M51.0444 16.9427L49.4658 20.6283L48.0733 23.0747H43.616L42.3159 19.73L42.8428 16.2615H46.247L48.4449 16.1375L49.1873 15.8897L49.6659 16.1613L51.0444 16.9427Z" fill="#575A89"/>
<path opacity="0.1" d="M50.5007 12.0297C50.5007 12.0297 51.4852 12.2398 50.6035 12.963C49.7219 13.6863 46.6801 15.9863 46.6801 15.9863C46.6801 15.9863 47.7486 16.9385 47.5275 18.0539L51.0675 16.0794L51.6972 12.9203C51.6972 12.9203 51.7679 11.9709 50.5007 12.0297Z" fill="black"/>
<path opacity="0.1" d="M47.3763 15.9863L45.1246 16.3581C45.1246 16.3581 45.5892 18.077 45.3569 18.565C45.3499 18.5802 45.344 18.5959 45.3394 18.6119L44.4207 21.0968L45.1092 23.0481L47.4925 19.7959L46.6801 18.565C46.6801 18.565 47.5387 17.4265 48.0495 17.0317C48.5603 16.6368 47.3763 15.9863 47.3763 15.9863Z" fill="black"/>
<path d="M47.3763 15.8904L45.1246 16.2615C45.1246 16.2615 45.5892 17.9804 45.3569 18.4684C45.3499 18.4835 45.344 18.4992 45.3394 18.5153L44.4207 21.0001L45.1092 22.9515L47.4925 19.6971L46.6801 18.4663C46.6801 18.4663 47.5387 17.3278 48.0495 16.9329C48.5603 16.538 47.3763 15.8904 47.3763 15.8904Z" fill="#DCE6F2"/>
<path d="M50.5951 11.8442C50.5951 11.8442 51.5797 12.0542 50.6973 12.7775C49.8149 13.5008 46.6801 15.9863 46.6801 15.9863C46.6801 15.9863 47.841 16.753 47.6206 17.8676L51.1605 15.8939L51.7903 12.7348C51.7903 12.7348 51.8603 11.7854 50.5951 11.8442Z" fill="#575A89"/>
<path opacity="0.1" d="M44.844 15.0187C44.844 15.0187 45.0588 15.4206 46.0069 16.1452C46.0069 16.1452 44.4283 16.9854 45.0322 18.1666L42.6174 17.5365L42.2458 16.3749L44.844 15.0187Z" fill="black"/>
<path d="M44.751 14.9263C44.751 14.9263 44.9658 15.3282 45.9139 16.0528C45.9139 16.0528 44.3353 16.8888 44.9392 18.0735L42.5251 17.4433L42.1536 16.2825L44.751 14.9263Z" fill="#575A89"/>
<path opacity="0.1" d="M51.0444 16.9427L49.4658 20.6284L48.0761 23.0747H43.616L42.3159 19.7301L42.8421 16.2615H43.7889C43.7735 17.0709 44.0688 18.0217 44.0499 18.3753C44.0177 18.9564 44.9161 22.0917 44.9161 22.0917C44.9161 22.0917 46.7963 19.0488 47.5387 18.7778C48.0055 18.6077 48.9942 17.192 49.6652 16.1614L51.0444 16.9427Z" fill="black"/>
<path d="M57.2629 36.3377L57.1027 36.5394C57.1027 36.5394 58.2635 42.3696 57.9423 43.6936C57.8877 43.9322 57.8566 44.1756 57.8493 44.4203V44.4308C57.7926 45.7779 58.1991 47.5262 58.1991 47.5262C58.1991 47.5262 58.5238 52.6793 58.3391 54.7987H36.6039C36.4766 51.6648 36.3394 47.6046 36.464 47.1544C36.6739 46.4116 37.0937 43.7167 37.0937 43.7167L37.1399 42.4396C37.1399 42.4396 37.1399 41.2052 37.1777 39.8301C37.1938 39.2119 37.2176 38.5628 37.2519 37.9873C37.2959 37.2633 37.3575 36.6535 37.4422 36.3538C37.4943 36.1267 37.5243 35.895 37.5318 35.6621C37.5318 35.6404 37.5318 35.618 37.536 35.5956C37.536 35.5255 37.5429 35.4499 37.5457 35.3722C37.5457 35.3505 37.5457 35.3288 37.5457 35.3022C37.559 34.8513 37.5541 34.3164 37.5394 33.7619C37.5394 33.7318 37.5394 33.7009 37.5394 33.6701C37.5276 33.2542 37.5101 32.83 37.4905 32.4267C37.4296 31.1664 37.3505 30.1007 37.3505 30.1007L34.681 21.2508L35.4004 19.478L37.3967 18.2541L41.0878 16.0241C42.8882 14.5433 44.0736 14.7211 44.5256 14.8836C44.5695 14.8986 44.6125 14.9161 44.6544 14.9361C44.6684 14.9431 44.6795 14.9487 44.69 14.955C44.7044 14.9618 44.7182 14.9698 44.7313 14.9788C44.6076 15.0384 44.5 15.127 44.4178 15.2371C44.3253 15.3625 44.2593 15.5055 44.224 15.6572C44.2004 15.7513 44.1838 15.8471 44.1743 15.9436C44.1652 16.0451 44.1617 16.1502 44.1617 16.2559C44.1667 16.4877 44.1866 16.719 44.2212 16.9483C44.2212 16.9525 44.2212 16.9581 44.2212 16.9637C44.2443 17.1276 44.273 17.2879 44.301 17.4384C44.3007 17.441 44.3007 17.4436 44.301 17.4461C44.3332 17.6219 44.3654 17.7843 44.3871 17.9243C44.3913 17.9496 44.3948 17.9727 44.3983 17.9944C44.4137 18.0869 44.4209 18.1806 44.4199 18.2744C44.4278 18.5009 44.4583 18.7261 44.5109 18.9466C44.5291 19.039 44.5501 19.1377 44.5732 19.2406C44.6047 19.3807 44.639 19.5333 44.6761 19.6887C44.6963 19.7742 44.718 19.8624 44.7404 19.9499C44.7488 19.9849 44.7579 20.0199 44.7663 20.0556L44.7803 20.1109C44.9294 20.704 45.091 21.2942 45.1904 21.6513C45.2491 21.8613 45.2862 21.9908 45.2862 21.9908C45.2862 21.9908 46.34 20.286 47.1811 19.3156C47.1937 19.3015 47.2049 19.2882 47.2168 19.2756C47.3001 19.1797 47.3819 19.0922 47.4603 19.0152C47.6317 18.8443 47.7857 18.7225 47.9095 18.6777C47.9359 18.668 47.9614 18.6561 47.9858 18.642C48.3301 18.4467 48.8857 17.7374 49.4056 16.9945C49.4566 16.9245 49.5063 16.8482 49.5567 16.7761C49.6722 16.6095 49.7841 16.4421 49.8898 16.2818C49.9709 16.1593 50.0486 16.0402 50.1221 15.9268C50.472 15.3821 50.7183 14.976 50.7183 14.976L51.2039 14.9543L51.2886 14.9501H51.3452L53.5501 14.8479C53.5501 14.8479 53.6453 14.864 53.802 14.8955C53.8104 14.8955 53.8188 14.8955 53.8279 14.9011C54.6102 15.0565 56.7836 15.5487 56.9165 16.2314C57.0789 17.0674 60.5845 18.1827 60.5845 18.1827C60.6307 18.7428 61.4893 19.1118 61.4893 19.1118C61.4893 19.1118 62.7894 22.5496 62.4416 23.8967C62.0981 25.227 63.3359 28.5177 63.3688 28.6101L63.1316 28.9098L57.2629 36.3377Z" fill="#E8F5FF"/>
<path opacity="0.1" d="M50.4999 11.7854C50.4999 11.7854 52.646 11.1763 53.1337 12.4302C53.6214 13.6842 54.7123 18.7484 54.7123 18.7484C54.7123 18.7484 51.8798 19.2827 51.1374 18.7484C50.7019 18.4314 50.1629 18.2904 49.6281 18.3535L48.0264 19.4451L47.5533 19.3051C47.5533 19.3051 50.1158 15.4934 50.6728 14.1981C51.2297 12.9028 51.418 12.3238 50.4999 11.7854Z" fill="black"/>
<path d="M50.4069 11.5053C50.4069 11.5053 52.5544 10.8962 53.0442 12.1502C53.534 13.4042 54.6228 18.4684 54.6228 18.4684C54.6228 18.4684 51.791 19.0026 51.0479 18.4684C50.6127 18.1513 50.0739 18.0103 49.5392 18.0735L47.9362 19.165L47.4631 19.025C47.4631 19.025 50.0256 15.2134 50.5826 13.9181C51.1395 12.6228 51.325 12.0452 50.4069 11.5053Z" fill="#E8F5FF"/>
<path opacity="0.1" d="M36.0015 31.7083C36.0015 31.7083 37.6032 32.1032 37.9055 33.0092C38.2077 33.9152 36.7215 33.9383 36.7215 33.9383C36.7215 33.9383 35.816 32.3356 36.0015 31.7083Z" fill="black"/>
<path opacity="0.1" d="M41.9674 38.3976C41.9674 38.3976 38.0447 46.4347 38.9501 47.2013C39.8556 47.968 41.9674 38.3976 41.9674 38.3976Z" fill="black"/>
<path opacity="0.1" d="M47.3763 32.475C47.3763 32.475 50.5105 40.2817 49.8835 41.4874C49.2565 42.693 51.2298 41.4874 51.2298 41.4874L47.3763 32.475Z" fill="black"/>
<path d="M51.7406 40.1865C51.7406 40.1865 41.155 40.6976 44.243 43.996C47.3309 47.2945 53.6677 44.1361 53.6677 44.1361L51.7406 40.1865Z" fill="#FFB0B1"/>
<path opacity="0.1" d="M50.2089 8.82861C50.2098 9.58829 50.0607 10.3407 49.7702 11.0425C49.6729 11.0537 49.5756 11.0607 49.4819 11.0649C49.3419 10.7575 49.4168 10.4026 49.4196 10.0644C49.4224 9.72621 49.2978 9.32852 48.9725 9.2375C48.3238 9.05476 47.876 10.2681 47.2364 10.049C46.7466 9.88234 46.8746 9.13878 46.5927 8.70958C46.3694 8.37001 45.9223 8.27409 45.5745 8.06124C44.8349 7.60684 44.8573 6.88008 44.5137 6.19252C44.1541 5.47206 43.3942 5.68491 42.7343 6.10991C42.2333 6.43338 41.8009 6.86677 41.2649 7.12443C40.8009 7.34848 40.2796 7.4297 39.7653 7.4416C39.4487 7.45388 39.132 7.42039 38.8249 7.34218C39.1861 5.98345 40.0288 4.80256 41.196 4.01971C42.3632 3.23687 43.7751 2.90552 45.1684 3.08746C46.5617 3.2694 47.8413 3.9522 48.7686 5.00854C49.6959 6.06488 50.2076 7.42264 50.2082 8.82861H50.2089Z" fill="black"/>
<path d="M42.7364 5.92439C42.2347 6.24786 41.803 6.68056 41.267 6.93961C40.8031 7.16296 40.2818 7.24418 39.7674 7.25608C39.1377 7.27009 38.4596 7.15946 38.0293 6.70436C37.634 6.28427 37.5395 5.63803 37.7067 5.087C37.874 4.53598 38.2749 4.07878 38.7458 3.74761C39.2168 3.41643 39.7632 3.18748 40.0753 2.71348C40.2405 2.46282 40.3202 2.16736 40.4574 1.9006C40.8961 1.04711 41.8827 0.585006 42.8365 0.527593C43.7902 0.47018 44.7356 0.754443 45.6438 1.06251C46.5521 1.37058 47.4673 1.70946 48.426 1.77317C48.8528 1.79978 49.2964 1.77317 49.6925 1.9349C50.225 2.15125 50.5742 2.66867 50.8121 3.19518C51.0787 3.78892 51.2445 4.43726 51.2165 5.0856C51.1577 6.46981 50.2439 7.82811 50.6455 9.15421C50.7519 9.50778 50.9513 9.87047 50.845 10.224C50.6896 10.7401 50.0242 10.8577 49.4861 10.8822C49.3461 10.5748 49.421 10.2191 49.4238 9.88167C49.4266 9.54419 49.302 9.1458 48.9774 9.05478C48.328 8.87344 47.8802 10.0847 47.242 9.86626C46.7557 9.69893 46.8817 8.95606 46.599 8.52687C46.3758 8.18659 45.9279 8.09137 45.5809 7.87852C44.8412 7.42412 44.8636 6.69736 44.5201 6.00981C44.1576 5.28585 43.397 5.49869 42.7364 5.92439Z" fill="#575A89"/>
<path d="M32.472 32.5674L31.9381 32.7536C31.9381 32.7536 32.148 35.9127 31.4483 36.8187C30.7485 37.7247 33.7462 39.9771 33.7462 39.9771C33.7462 39.9771 37.8551 39.954 37.9712 39.6271C38.0874 39.3001 37.7613 33.7738 37.7613 33.7738C37.7613 33.7738 35.5557 32.914 35.7412 31.5438C35.7412 31.5438 35.068 34.7722 34.0702 34.6328C33.0724 34.4935 31.9395 33.6596 32.472 32.5674Z" fill="#E8F5FF"/>
<path opacity="0.1" d="M34.2529 35.6103C35.0308 35.6103 35.6614 35.0332 35.6614 34.3213C35.6614 33.6094 35.0308 33.0323 34.2529 33.0323C33.4749 33.0323 32.8443 33.6094 32.8443 34.3213C32.8443 35.0332 33.4749 35.6103 34.2529 35.6103Z" fill="black"/>
<path d="M35.793 32.6605C35.793 32.6605 35.5131 24.113 33.0766 26.0174C30.6401 27.9219 30.6163 30.1995 31.0803 30.8723C31.5442 31.5452 33.0318 34.9136 33.0318 34.9136C33.2645 35.0485 33.5259 35.1264 33.7944 35.1408C34.063 35.1552 34.3311 35.1057 34.5769 34.9964C34.8227 34.8871 35.0391 34.7211 35.2084 34.512C35.3777 34.3029 35.495 34.0566 35.5509 33.7934L35.793 32.6605Z" fill="#FFB0B1"/>
<path opacity="0.1" d="M50.9919 11.0096C50.9805 10.9721 50.9587 10.9385 50.9289 10.913C50.8086 10.8031 50.5497 10.7646 50.1592 10.7982L50.1753 10.983C50.6959 10.9382 50.7988 11.0418 50.8121 11.0593V11.0768L50.8282 11.0999C50.8931 11.1872 50.9391 11.2871 50.9632 11.3932C50.9873 11.4993 50.9889 11.6093 50.9681 11.7161C50.8541 12.2867 50.1536 12.7411 50.1466 12.746L50.1298 12.7558L50.1193 12.7719C49.8171 13.2207 48.1076 14.4873 47.6605 14.815L47.6213 14.7701C47.4212 14.9438 45.662 16.4848 45.5669 17.0751C45.5053 17.4454 45.0882 17.589 44.9371 17.6289C44.7776 17.5077 44.2598 17.0954 43.9904 16.6333C43.7378 16.1985 44.7545 15.3499 44.844 15.0187L44.7041 14.8752C44.6894 14.9284 43.3837 16.1494 43.7469 16.7733C44.0379 17.2739 44.5697 17.7024 44.7559 17.8438C44.6964 18.3843 44.3262 21.5581 43.7573 22.3101C43.0506 23.2448 42.4565 27.9555 42.5223 29.6001C42.5804 31.0614 42.199 33.8214 40.9255 35.0067C40.705 35.2209 40.4391 35.3826 40.1474 35.4796C39.8558 35.5765 39.546 35.6064 39.2413 35.5669H39.2259H39.2105C39.1923 35.5669 37.345 35.7559 35.793 34.4466C34.5229 33.3775 33.8036 31.6327 33.6539 29.2592H33.6231L33.6105 28.5681C33.9548 28.5143 34.265 28.3291 34.4757 28.0513C34.6864 27.7736 34.7813 27.4249 34.7405 27.0786C34.6997 26.7322 34.5263 26.4152 34.2568 26.1941C33.9873 25.973 33.6426 25.8651 33.2952 25.8929C32.9478 25.9208 32.6247 26.0823 32.3938 26.3435C32.1629 26.6047 32.0422 26.9453 32.057 27.2937C32.0718 27.6422 32.221 27.9713 32.4733 28.2119C32.7255 28.4525 33.0612 28.586 33.4097 28.5842H33.4251L33.4377 29.2711L33.3761 29.2753C33.53 31.7258 34.2857 33.5385 35.6152 34.6581C36.6257 35.4959 37.9165 35.9186 39.2266 35.8406C39.3195 35.8508 39.413 35.8559 39.5065 35.856C40.1069 35.8591 40.6847 35.6266 41.1158 35.2084C42.4572 33.9586 42.8652 31.0971 42.8015 29.5861C42.7315 27.8434 43.355 23.3022 43.9806 22.4753C44.5935 21.6639 44.9651 18.502 45.0302 17.8893C45.252 17.827 45.7537 17.6303 45.8391 17.1192C45.9006 16.7495 47.0755 15.6103 47.7983 14.9795L47.7766 14.9543C48.1657 14.67 49.3755 13.7738 49.9752 13.1983C50.1613 13.0198 50.3461 12.8412 50.5392 12.6711C50.7715 12.4652 51.0668 12.1383 51.1444 11.7518C51.1709 11.6242 51.1711 11.4925 51.1448 11.3649C51.1186 11.2373 51.0666 11.1164 50.9919 11.0096Z" fill="black"/>
<path d="M44.7321 17.7997C44.7027 17.7794 44.0057 17.2802 43.6566 16.6795C43.2941 16.0556 44.5998 14.8353 44.6138 14.782L44.7538 14.9256C44.6649 15.256 43.6482 16.1053 43.9008 16.5394C44.2192 17.0877 44.8895 17.5673 44.8965 17.5722L44.7321 17.7997Z" fill="#353146"/>
<path d="M47.5695 14.9508L47.4603 14.8003C47.4827 14.7842 49.6806 13.1934 50.027 12.6788L50.0382 12.6634L50.0542 12.6529C50.0612 12.648 50.7617 12.1943 50.8757 11.623C50.8968 11.5163 50.8952 11.4064 50.8711 11.3004C50.847 11.1944 50.8009 11.0946 50.7358 11.0075L50.7197 10.9837V10.9669C50.7057 10.9487 50.6028 10.8458 50.0822 10.8906L50.0661 10.7051C50.4573 10.6714 50.7155 10.71 50.8359 10.8199C50.8658 10.8457 50.8879 10.8794 50.8995 10.9172C50.9752 11.0237 51.0283 11.1445 51.0555 11.2723C51.0827 11.4 51.0834 11.532 51.0577 11.6601C50.98 12.0473 50.6854 12.3742 50.4524 12.5794C50.26 12.7495 50.0745 12.9294 49.8891 13.1066C49.1859 13.7808 47.6465 14.8955 47.5695 14.9508Z" fill="#E8F5FF"/>
<path d="M33.5201 28.3243L33.3347 28.3277L33.3554 29.4555L33.5408 29.4521L33.5201 28.3243Z" fill="#E8F5FF"/>
<path d="M33.3194 28.4953C34.0672 28.4953 34.6734 27.8887 34.6734 27.1405C34.6734 26.3923 34.0672 25.7857 33.3194 25.7857C32.5716 25.7857 31.9654 26.3923 31.9654 27.1405C31.9654 27.8887 32.5716 28.4953 33.3194 28.4953Z" fill="#587EEC"/>
<path d="M33.3194 28.2657C33.9405 28.2657 34.4439 27.7619 34.4439 27.1405C34.4439 26.5191 33.9405 26.0154 33.3194 26.0154C32.6984 26.0154 32.1949 26.5191 32.1949 27.1405C32.1949 27.7619 32.6984 28.2657 33.3194 28.2657Z" fill="#E8F5FF"/>
<path d="M39.4183 35.7657C39.3248 35.7658 39.2314 35.7609 39.1384 35.751C37.8284 35.8282 36.5379 35.4056 35.5271 34.5684C34.1976 33.4482 33.4432 31.6376 33.2879 29.1849L33.5678 29.1674C33.7175 31.541 34.4369 33.2864 35.7076 34.3549C37.2596 35.6607 39.1062 35.4751 39.1244 35.4751H39.1398H39.1552C39.4601 35.5145 39.7699 35.4845 40.0616 35.3876C40.3533 35.2906 40.6194 35.1291 40.8402 34.915C42.113 33.7296 42.4943 30.9696 42.4362 29.5084C42.3663 27.8623 42.9603 23.1517 43.6678 22.2177C44.287 21.3992 44.6712 17.7101 44.6754 17.673L44.6859 17.568L44.7895 17.5498C44.7958 17.5498 45.4003 17.4349 45.4759 16.9826C45.5739 16.3931 47.3302 14.8521 47.5296 14.6777L47.7122 14.8878C46.9866 15.5179 45.8118 16.6578 45.753 17.0281C45.6676 17.5407 45.1659 17.7367 44.9448 17.7983C44.8748 18.4116 44.5061 21.5728 43.8952 22.3843C43.2696 23.2112 42.6462 27.7524 42.7161 29.4951C42.7763 31.006 42.3726 33.8683 41.0312 35.1173C40.5992 35.5366 40.0201 35.7694 39.4183 35.7657Z" fill="#353146"/>
<g opacity="0.1">
<path opacity="0.1" d="M50.8051 7.17347C50.9198 6.74917 51.0584 6.32208 51.1549 5.89218C51.0395 6.32418 50.9002 6.74917 50.8051 7.17347Z" fill="black"/>
<path opacity="0.1" d="M49.6344 10.5076C49.4944 10.2002 49.5693 9.84454 49.5721 9.50707C49.5749 9.16959 49.4504 8.77471 49.1257 8.68018C48.4763 8.49884 48.0285 9.71081 47.3903 9.49167C46.9005 9.32433 47.03 8.58146 46.7473 8.15227C46.5241 7.81199 46.0769 7.71677 45.7299 7.50392C44.9895 7.04952 45.0119 6.32276 44.6691 5.63521C44.3087 4.91405 43.5495 5.1269 42.8889 5.55259C42.3872 5.87606 41.9555 6.30946 41.4195 6.56782C40.9556 6.79117 40.4343 6.87238 39.92 6.88429C39.2937 6.89899 38.6121 6.78766 38.1818 6.33256C37.8501 5.98249 37.7305 5.46927 37.7991 4.98827C37.7872 5.02117 37.7767 5.05408 37.7662 5.08699C37.5982 5.63801 37.6962 6.28565 38.0887 6.70435C38.5191 7.15945 39.2006 7.27007 39.8269 7.25607C40.3419 7.24417 40.8625 7.16295 41.3271 6.9396C41.8645 6.68054 42.2963 6.24784 42.7966 5.92437C43.4571 5.49868 44.217 5.28583 44.5767 6.00699C44.9196 6.69454 44.8979 7.42131 45.6375 7.87571C45.9874 8.08575 46.4317 8.18377 46.6556 8.52405C46.9355 8.95465 46.8116 9.69611 47.2987 9.86345C47.9361 10.0819 48.384 8.87063 49.0333 9.05197C49.358 9.14299 49.4832 9.54208 49.4797 9.87885C49.4762 10.2156 49.4035 10.572 49.542 10.8794C50.0801 10.8549 50.7456 10.7393 50.9016 10.2212C50.9231 10.1469 50.933 10.0696 50.931 9.99228C50.7036 10.3851 50.1186 10.4859 49.6344 10.5076Z" fill="black"/>
</g>
<path opacity="0.1" d="M62.2807 27.7594L63.0931 28.6192C63.0931 28.6192 63.7432 33.3571 64.0679 33.8003C64.3925 34.2435 65.1595 36.0065 64.4394 37.3305C64.4394 37.3305 64.2071 38.051 64.3464 38.3528C64.4856 38.6545 63.3024 40.1648 63.3024 40.1648C63.3024 40.1648 61.7468 41.5581 61.4215 41.7674C61.0961 41.9768 59.3789 43.6487 58.7989 43.6718C58.2188 43.6949 58.0291 44.4154 58.0291 44.4154L54.7558 44.5316C54.7558 44.5316 52.9477 44.4371 52.5544 44.6927C52.5544 44.6927 52.7643 41.9285 50.7442 40.1165L53.3206 39.1873C53.3206 39.1873 54.2961 38.7672 54.5976 38.3283C54.7874 38.0591 55.0565 37.8562 55.3674 37.7478C55.3674 37.7478 56.0867 37.2367 56.1098 36.9581C56.1329 36.6794 56.9893 36.3377 56.9893 36.3377L56.5044 32.1963L56.7598 25.3208C56.7598 25.3208 57.5722 19.5599 59.2901 19.8855C61.0079 20.211 62.2807 27.7594 62.2807 27.7594Z" fill="black"/>
<path d="M62.5606 27.7594L63.373 28.6192C63.373 28.6192 64.0231 33.3571 64.3478 33.8003C64.6724 34.2435 65.4394 36.0065 64.7193 37.3305C64.7193 37.3305 64.4877 38.051 64.627 38.3528C64.7662 38.6545 63.5823 40.1648 63.5823 40.1648C63.5823 40.1648 62.0267 41.5581 61.7014 41.7674C61.376 41.9768 59.6588 43.6487 59.0788 43.6718C58.4987 43.6949 58.3091 44.4154 58.3091 44.4154L55.0357 44.5316C55.0357 44.5316 53.2262 44.4371 52.8343 44.6927C52.8343 44.6927 53.0442 41.9285 51.0241 40.1165L53.6005 39.1873C53.6005 39.1873 54.576 38.7672 54.8776 38.3283C55.0673 38.0591 55.3364 37.8562 55.6473 37.7478C55.6473 37.7478 56.3666 37.2367 56.3897 36.9581C56.4128 36.6794 57.2692 36.3377 57.2692 36.3377L56.7843 32.1963L57.0397 25.3208C57.0397 25.3208 57.8521 19.5599 59.57 19.8855C61.2878 20.211 62.5606 27.7594 62.5606 27.7594Z" fill="#E8F5FF"/>
<path opacity="0.1" d="M59.5406 34.705C59.5406 34.705 61.9316 34.0748 62.5585 34.845C63.1855 35.6152 59.5406 34.705 59.5406 34.705Z" fill="black"/>
<path opacity="0.1" d="M58.9836 35.7615C59.796 36.3307 62.3031 36.3538 62.3031 36.3538L58.9836 35.7615Z" fill="black"/>
<path opacity="0.1" d="M60.2137 38.6069C60.2837 38.63 61.9372 40.3958 62.6313 39.8616C63.3255 39.3274 60.2137 38.6069 60.2137 38.6069Z" fill="black"/>
<path opacity="0.1" d="M37.9453 23.7874C37.9453 23.7874 38.4309 27.1328 38.1916 28.4953C37.9523 29.8578 38.8256 31.5459 38.8256 31.5459L37.9453 23.7874Z" fill="black"/>
<path d="M27.1946 25.1478C26.6348 25.5868 26.2261 26.6259 25.9301 27.7678C25.4137 29.7598 25.2451 32.0696 25.2451 32.0696C25.2451 32.0696 20.7878 31.0474 21.1125 30.5832C21.3168 30.2912 21.0425 28.0913 20.8137 26.4963C20.6772 25.5539 20.5555 24.8223 20.5555 24.8223C20.5555 24.8223 28.727 23.9394 27.1946 25.1478Z" fill="#FFB0B1"/>
<path opacity="0.1" d="M27.1946 25.0547C26.6348 25.4944 26.2261 26.5328 25.9301 27.6747C25.0421 27.9445 24.0976 27.9689 23.1968 27.7451C22.296 27.5214 21.4726 27.058 20.8137 26.4039C20.6772 25.4608 20.5555 24.7292 20.5555 24.7292C20.5555 24.7292 28.727 23.847 27.1946 25.0547Z" fill="black"/>
<path d="M29.5905 22.5524C29.591 23.7702 29.1609 24.9489 28.3763 25.8798C27.5918 26.8108 26.5033 27.4341 25.3037 27.6393C24.104 27.8445 22.8705 27.6184 21.8214 27.0011C20.7723 26.3838 19.9753 25.415 19.5714 24.2662C19.1675 23.1174 19.1828 21.8627 19.6146 20.7242C20.0464 19.5856 20.8668 18.6365 21.9306 18.045C22.9945 17.4535 24.2332 17.2576 25.4274 17.4921C26.6217 17.7265 27.6946 18.3762 28.4563 19.3261C29.1902 20.241 29.5903 21.3791 29.5905 22.5524Z" fill="#FFB0B1"/>
<path opacity="0.1" d="M33.6545 54.7987H32.1851L32.0612 52.2018L31.9318 49.5139C31.9318 49.5139 32.2655 49.4642 32.7973 49.39L33.0122 49.3613H33.0296C33.1458 49.9067 33.2606 50.4668 33.3711 51.0263C33.5551 52.0194 33.6509 53.0269 33.6573 54.0369C33.6573 54.107 33.6573 54.177 33.6573 54.2428C33.6615 54.4297 33.6573 54.6167 33.6545 54.7987Z" fill="black"/>
<path d="M33.3726 54.7987H14.9443C15.0241 54.6174 15.0773 54.5074 15.0773 54.5074C15.0773 54.5074 16.5516 48.0534 17.301 45.3228C17.3013 45.3205 17.3013 45.3181 17.301 45.3158C17.3947 44.9449 17.5077 44.5791 17.6397 44.2201C17.6482 44.1957 17.6593 44.1722 17.6726 44.15C18.0435 43.5465 18.5081 42.8961 17.858 41.967C17.208 41.0379 17.4382 36.9497 17.4382 36.9497C17.4382 36.9497 18.2275 33.465 19.063 31.6068C19.1898 31.3189 19.3697 31.0576 19.5934 30.8366C19.6661 30.7654 19.7437 30.6994 19.8257 30.6392C19.888 30.5923 19.953 30.549 20.0202 30.5096L20.0335 30.5012C20.3845 30.3021 20.7742 30.181 21.1762 30.1462C21.4617 30.1164 21.7499 30.1244 22.0334 30.1701C23.388 30.3689 24.4726 30.7015 25.3347 31.0803C27.6711 32.1074 28.3786 33.4839 28.3925 33.5126L28.3981 33.5245C28.4919 33.7436 29.8634 36.9476 30.3574 38.4424C30.4855 38.8317 30.5554 39.1054 30.5274 39.1803C30.3875 39.5514 31.5952 44.197 31.5952 44.197C31.5952 44.197 32.155 46.4375 32.7148 49.0637C32.7393 49.173 32.7624 49.2822 32.7848 49.3928C32.8848 49.8696 32.9842 50.3555 33.0801 50.8407C33.2658 51.8407 33.3616 52.8553 33.3663 53.8724C33.3765 54.1893 33.3786 54.4981 33.3726 54.7987Z" fill="#EB5569"/>
<path opacity="0.1" d="M21.0663 28.5485C21.0663 28.5485 19.7949 28.0584 19.8103 28.802C19.8257 29.5455 20.1203 29.9012 20.0272 30.0097C19.9342 30.1183 20.0734 30.7687 20.0734 30.7687C20.0734 30.7687 21.7913 30.7687 22.5806 31.1244C23.3699 31.4801 26.2794 32.1928 26.6509 32.4099C27.0225 32.6269 28.4003 33.6001 28.4003 33.6001L28.5241 31.7573C28.5241 31.7573 27.1002 30.5804 24.7637 29.9768C22.4273 29.3733 21.0663 28.5485 21.0663 28.5485Z" fill="black"/>
<path d="M21.0663 28.4554C21.0663 28.4554 19.7949 27.9653 19.8103 28.7088C19.8257 29.4524 20.1203 29.8081 20.0272 29.9166C19.9342 30.0251 20.0734 30.6756 20.0734 30.6756C20.0734 30.6756 21.7913 30.6756 22.5806 31.0319C23.3699 31.3883 26.2794 32.1004 26.6509 32.3167C27.0225 32.5331 28.4003 33.507 28.4003 33.507L28.5255 31.6698C28.5255 31.6698 27.1016 30.4928 24.7651 29.8893C22.4287 29.2858 21.0663 28.4554 21.0663 28.4554Z" fill="#EB5569"/>
<path opacity="0.1" d="M24.9044 32.8902C24.9044 32.8902 27.3338 35.522 27.21 36.2509C27.0861 36.9798 24.9044 32.8902 24.9044 32.8902Z" fill="black"/>
<path opacity="0.1" d="M20.9579 42.3976C20.9579 42.3976 19.1771 44.0395 18.6523 44.1326C18.1275 44.2257 19.0546 44.5352 19.6578 44.288C20.261 44.0408 21.5471 43.3904 21.5471 43.3904L20.9579 42.3976Z" fill="black"/>
<path d="M34.0961 54.7987H29.9432C29.3624 54.2946 28.8131 53.8276 28.4632 53.5468C27.9034 53.0973 27.4997 52.4357 27.2422 51.9036C27.1841 51.7824 27.1337 51.669 27.0911 51.5661C27.0146 51.3888 26.9474 51.2077 26.8895 51.0235L29.9649 49.1961C30.1348 49.3407 30.2945 49.497 30.4428 49.6638L30.4799 49.7065C30.6506 49.9081 30.801 50.1371 30.8143 50.3247C30.8297 50.5432 31.4371 51.3883 32.0578 52.1997C32.6875 53.0252 33.3327 53.8143 33.3754 53.8675C33.3754 53.8675 33.4817 54.0124 33.6553 54.2351C33.7777 54.3961 33.9289 54.5894 34.0961 54.7987Z" fill="#FFB0B1"/>
<path opacity="0.1" d="M28.4562 19.326C28.3086 19.6593 28.1763 20.0052 28.1567 20.3763C28.1015 21.4475 28.191 23.8427 27.0057 24.3805C26.4186 24.6451 25.7902 24.064 25.1465 24.05C24.6832 24.0402 24.2585 24.3343 23.9758 24.7018C23.6931 25.0694 23.5175 25.5056 23.3125 25.9215C23.1258 26.299 22.9109 26.6618 22.6694 27.0067C22.5972 27.1123 22.5177 27.2127 22.4315 27.3071C21.7087 27.0019 21.0651 26.5357 20.5497 25.9439C20.0342 25.3522 19.6606 24.6505 19.4572 23.8924C19.2539 23.1342 19.2262 22.3396 19.3762 21.5692C19.5262 20.7987 19.8501 20.0726 20.323 19.4464C20.7959 18.8201 21.4055 18.3101 22.1053 17.9552C22.805 17.6003 23.5765 17.41 24.3609 17.3987C25.1453 17.3873 25.922 17.5553 26.6317 17.8898C27.3414 18.2243 27.9654 18.7165 28.4562 19.3288V19.326Z" fill="black"/>
<path d="M28.0637 20.1872C28.0077 21.2585 28.098 23.6537 26.9119 24.1907C26.3249 24.4554 25.6965 23.875 25.0527 23.861C24.5895 23.8505 24.1655 24.1452 23.8821 24.5121C23.5987 24.879 23.4245 25.3159 23.2187 25.7325C23.032 26.1099 22.8171 26.4727 22.5757 26.8177C22.4315 27.0222 22.272 27.2273 22.0502 27.3421C21.6639 27.5438 21.1958 27.4303 20.7816 27.3008C20.2442 27.1314 19.7147 26.9405 19.1932 26.7281C19.2051 26.6493 19.2112 26.5697 19.2113 26.49C19.196 26.5194 19.1792 26.5468 19.1624 26.5762L19.1295 26.6336C19.07 26.7386 19.0119 26.8436 18.9587 26.9514C18.9384 26.9928 18.9189 27.0355 18.9014 27.0782C18.831 27.2371 18.7868 27.4064 18.7705 27.5795C18.7348 28.0465 18.965 28.4897 19.1694 28.9098C19.9552 30.5348 20.4408 32.4351 19.8495 34.1399C19.5934 34.8814 19.1498 35.5402 18.8258 36.2565C18.2595 37.5251 18.0927 38.9362 18.3479 40.302C18.5095 41.1506 18.8335 41.9908 18.7537 42.8513C18.6138 44.3321 17.3375 45.4341 16.059 46.1917C15.3684 46.5992 14.5231 46.9619 13.7898 46.6398C14.2572 46.0937 14.3776 45.3382 14.4783 44.6255C14.754 42.6814 15.0304 40.7363 15.3075 38.7904C15.4181 38.016 15.5284 37.2416 15.6385 36.4673C15.8442 35.0123 16.0527 33.5413 15.924 32.0773C15.8302 30.9983 15.5657 29.8529 16.0331 28.8762C16.2802 28.3588 16.7203 27.9303 16.8574 27.3729C16.9701 26.9199 16.8651 26.4382 16.9393 25.9768C16.9799 25.7669 17.0486 25.5634 17.1436 25.3719C17.2646 25.112 17.4225 24.871 17.6125 24.6563C17.4249 24.6017 17.25 24.5268 17.1436 24.37C17.4445 24.1739 17.49 23.7321 17.3535 23.4003C17.2171 23.0684 16.9442 22.8156 16.6986 22.5538C16.453 22.2919 16.2165 21.9866 16.1857 21.6296C16.1262 20.9497 16.805 20.4232 16.9246 19.7524C17.0457 19.0698 16.567 18.406 16.6055 17.715C16.6503 16.8797 17.4172 16.2727 18.1743 15.9205C19.3169 15.3913 20.5789 15.1739 21.8326 15.2904C22.8528 15.387 23.8401 15.7028 24.8575 15.8253C25.4712 15.8953 26.0932 15.9023 26.7027 16.0101C27.3122 16.1179 27.9231 16.3455 28.352 16.7929C29.4828 17.9727 28.1281 18.9438 28.0637 20.1872Z" fill="#575A89"/>
<path opacity="0.1" d="M27.1176 51.9043C26.7607 51.7495 26.1113 51.842 24.9967 51.5024C23.882 51.1628 23.6672 49.6281 23.6672 49.6281V49.6232C23.6539 49.5882 23.5503 49.3599 22.8492 48.5603C22.0746 47.6774 20.4001 43.2182 20.4001 43.2182C20.4001 43.2182 18.9153 41.6225 18.9622 41.0344C19.009 40.4462 18.6984 38.8814 18.7291 37.131C18.7599 35.3806 22.0718 34.2198 22.0718 34.2198C28.4485 33.089 26.9468 40.4448 26.7768 41.0022C26.6068 41.5595 27.4891 43.0648 27.4891 43.0648C27.3646 43.7202 27.9999 44.7347 27.9999 44.7347C27.9999 44.7347 28.1539 45.6323 28.1854 45.9733C28.1871 45.989 28.1906 46.0045 28.1959 46.0195C28.298 46.3408 29.1307 46.6321 29.4694 46.8092C29.8255 46.9955 30.971 48.6212 30.971 48.6212C31.218 49.815 27.473 52.0611 27.1176 51.9043Z" fill="black"/>
<path d="M27.3031 51.6242C26.9469 51.4688 26.2969 51.5619 25.1829 51.2216C24.0689 50.8813 23.8534 49.348 23.8534 49.348V49.3431C23.8408 49.3074 23.7365 49.0798 23.0354 48.2803C22.2608 47.3974 20.5863 42.9374 20.5863 42.9374C20.5863 42.9374 19.1015 41.3424 19.1477 40.7543C19.1939 40.1662 18.8846 38.6013 18.9154 36.8523C18.9462 35.1033 22.2559 33.9432 22.2559 33.9432C28.6326 32.8124 27.131 40.1683 26.9609 40.7256C26.7909 41.2829 27.6733 42.7882 27.6733 42.7882C27.5487 43.4436 28.1841 44.4581 28.1841 44.4581C28.1841 44.4581 28.338 45.3557 28.3702 45.6967C28.3714 45.7125 28.3747 45.728 28.38 45.7429C28.4822 46.0643 29.3148 46.3555 29.6542 46.5327C30.0097 46.7182 31.1558 48.3447 31.1558 48.3447C31.4042 49.5363 27.6593 51.7824 27.3031 51.6242Z" fill="#EB5569"/>
<path opacity="0.1" d="M22.3818 37.7835C22.3818 37.7835 25.1675 40.7242 25.8945 40.7242C26.6215 40.7242 22.3818 37.7835 22.3818 37.7835Z" fill="black"/>
<path d="M27.303 51.6242C26.9469 51.4688 26.2968 51.5619 25.1828 51.2216C24.0689 50.8814 23.8533 49.348 23.8533 49.348V49.3431C24.5916 48.853 26.4612 47.4688 27.1981 46.9626C27.7166 46.6076 28.1399 46.086 28.3876 45.7401C28.4898 46.0615 29.3225 46.3528 29.6618 46.5299C30.0173 46.7154 31.1635 48.3419 31.1635 48.3419C31.4042 49.5364 27.6592 51.7825 27.303 51.6242Z" fill="#FF748E"/>
<g opacity="0.1">
<path opacity="0.1" d="M17.1478 24.3777C17.1513 24.3833 17.1562 24.3882 17.1604 24.3938C17.1814 24.3672 17.203 24.3406 17.2254 24.3154C17.2016 24.3386 17.1756 24.3594 17.1478 24.3777Z" fill="black"/>
<path opacity="0.1" d="M18.7712 27.5872C18.8006 27.1986 19.0084 26.8562 19.2029 26.5145C19.0756 26.4655 18.9482 26.4158 18.8223 26.364C18.8343 26.2855 18.8404 26.2061 18.8405 26.1267C18.6439 26.4767 18.4297 26.8212 18.3997 27.2154C18.364 27.6831 18.5942 28.1256 18.7985 28.5457C19.585 30.1701 20.0699 32.0703 19.4786 33.7759C19.2218 34.5166 18.7789 35.1762 18.4549 35.8924C17.8888 37.1609 17.7223 38.5718 17.9777 39.9372C18.1379 40.7865 18.4626 41.626 18.3829 42.4865C18.2429 43.9673 16.9673 45.0694 15.6882 45.8262C15.1655 46.1357 14.5546 46.4193 13.9703 46.399C13.9162 46.4861 13.8559 46.5691 13.7898 46.6475C14.5238 46.9717 15.3684 46.6069 16.059 46.198C17.3389 45.4419 18.6173 44.3426 18.7572 42.859C18.837 41.9985 18.5123 41.159 18.3514 40.3097C18.0959 38.9444 18.2619 37.5336 18.8272 36.2649C19.1491 35.5494 19.5969 34.8891 19.8509 34.1483C20.4422 32.4428 19.9566 30.5425 19.1708 28.9182C18.9671 28.4953 18.7355 28.0549 18.7712 27.5872Z" fill="black"/>
<path opacity="0.1" d="M28.3506 16.8013C28.2817 16.7306 28.2078 16.6651 28.1294 16.6052C28.9775 17.7059 27.753 18.6413 27.6921 19.826C27.6375 20.8972 27.7271 23.2931 26.541 23.8294C25.9547 24.0948 25.3256 23.5137 24.6825 23.4997C24.2186 23.4899 23.7946 23.7846 23.5112 24.1515C23.2278 24.5184 23.0536 24.9553 22.8485 25.3712C22.6615 25.7486 22.4463 26.1114 22.2048 26.4564C22.0648 26.6616 21.9011 26.866 21.6786 26.9815C21.2937 27.1825 20.8256 27.0698 20.4107 26.9395C20.0071 26.8126 19.6074 26.6725 19.2113 26.5194C19.2105 26.5924 19.2044 26.6651 19.1931 26.7372C19.7151 26.95 20.2448 27.1409 20.7822 27.3099C21.1965 27.4401 21.6646 27.5529 22.0501 27.3519C22.272 27.2364 22.4329 27.0312 22.5763 26.8261C22.818 26.4815 23.033 26.119 23.2194 25.7416C23.4251 25.3257 23.5986 24.8881 23.8827 24.5212C24.1668 24.1543 24.5902 23.8602 25.0534 23.87C25.6972 23.8841 26.3262 24.4652 26.9126 24.1998C28.0986 23.6635 28.0084 21.2676 28.0637 20.1963C28.128 18.9508 29.4827 17.9803 28.3506 16.8013Z" fill="black"/>
</g>
<path opacity="0.1" d="M19.1301 26.6343C19.0707 26.7393 19.0126 26.8443 18.9594 26.9521C18.9391 26.9935 18.9195 27.0362 18.902 27.0789C18.5354 26.7092 17.6425 25.8305 17.1443 25.5581C17.2654 25.2983 17.4233 25.0573 17.6131 24.8426C17.6131 24.8426 18.8006 25.4706 19.1301 26.6343Z" fill="black"/>
<path d="M19.163 26.5769C18.888 25.3313 17.6131 24.657 17.6131 24.657C17.4232 24.8717 17.2653 25.1127 17.1443 25.3726C17.6698 25.6604 18.6382 26.6252 18.9594 26.9522L19.163 26.5769Z" fill="#EB5569"/>
<defs>
<linearGradient id="paint0_linear" x1="51.0828" y1="6.67914" x2="51.0828" y2="5.39226" gradientUnits="userSpaceOnUse">
<stop stop-color="#808080" stop-opacity="0.25"/>
<stop offset="0.54" stop-color="#808080" stop-opacity="0.12"/>
<stop offset="1" stop-color="#808080" stop-opacity="0.1"/>
</linearGradient>
<linearGradient id="paint1_linear" x1="32101.9" y1="46105.5" x2="32101.9" y2="3214.57" gradientUnits="userSpaceOnUse">
<stop stop-color="#808080" stop-opacity="0.25"/>
<stop offset="0.54" stop-color="#808080" stop-opacity="0.12"/>
<stop offset="1" stop-color="#808080" stop-opacity="0.1"/>
</linearGradient>
</defs>
</svg>
