<svg width="1434" height="1220" viewBox="0 0 1434 1220" fill="none" xmlns="http://www.w3.org/2000/svg">
<path d="M1110.19 863.545H1109.22C1099.34 863.292 1089.79 859.577 1081.97 852.943C1074.15 846.308 1068.46 837.101 1065.74 826.666L919.148 263.637L829.639 525.748C826.344 535.429 820.439 543.777 812.711 549.677C804.983 555.577 795.799 558.747 786.387 558.765H601.355V457.172H754.33L881.864 83.7665C885.279 73.7546 891.483 65.181 899.593 59.2666C907.703 53.3522 917.306 50.3986 927.034 50.8263C936.762 51.2541 946.12 55.0414 953.773 61.649C961.427 68.2565 966.987 77.3474 969.662 87.627L1113.57 640.903L1205.12 339.527C1208.18 329.412 1214.06 320.612 1221.93 314.376C1229.8 308.139 1239.26 304.783 1248.97 304.782H1434V406.376H1282.27L1154.05 828.8C1150.99 838.919 1145.11 847.723 1137.24 853.961C1129.36 860.199 1119.9 863.552 1110.19 863.545V863.545Z" fill="black"/>
<path d="M647.613 1219.11H555.097V863.537C555.06 823.133 540.427 784.395 514.41 755.825C488.393 727.255 453.116 711.187 416.323 711.147H231.29C194.496 711.187 159.22 727.255 133.203 755.825C107.185 784.395 92.5529 823.133 92.5161 863.537V1219.11H0V863.537C0.0734512 796.201 24.4651 731.646 67.8245 684.033C111.184 636.419 169.971 609.634 231.29 609.554H416.323C477.642 609.634 536.429 636.419 579.788 684.033C623.148 731.646 647.539 796.201 647.613 863.537V1219.11Z" fill="black"/>
<path d="M323.806 101.593C351.253 101.593 378.083 110.531 400.905 127.275C423.726 144.02 441.513 167.82 452.017 195.666C462.52 223.511 465.268 254.152 459.914 283.713C454.559 313.273 441.342 340.426 421.934 361.739C402.526 383.051 377.799 397.564 350.879 403.444C323.96 409.324 296.057 406.306 270.699 394.772C245.342 383.238 223.668 363.706 208.419 338.646C193.171 313.586 185.032 284.123 185.032 253.983C185.032 213.567 199.653 174.806 225.678 146.227C251.703 117.648 287.001 101.593 323.806 101.593V101.593ZM323.806 0C278.061 0 233.343 14.8958 195.308 42.8038C157.272 70.7118 127.627 110.379 110.122 156.788C92.6157 203.197 88.0354 254.265 96.9598 303.532C105.884 352.8 127.912 398.056 160.259 433.576C192.606 469.096 233.818 493.285 278.683 503.085C323.549 512.885 370.054 507.856 412.317 488.632C454.58 469.409 490.702 436.855 516.117 395.088C541.531 353.321 555.096 304.216 555.096 253.983C555.096 186.622 530.728 122.021 487.353 74.3898C443.978 26.7588 385.148 0 323.806 0Z" fill="black"/>
</svg>
