<svg width="39" height="36" viewBox="0 0 39 36" fill="none" xmlns="http://www.w3.org/2000/svg">
<path d="M6.80156 31.6881C6.82556 31.7361 6.83756 31.7871 6.83756 31.8411C6.83756 31.9311 6.80156 32.0061 6.72956 32.0661C6.66356 32.1261 6.58256 32.1561 6.48656 32.1561C6.33656 32.1561 6.23156 32.0841 6.17156 31.9401L5.53256 30.4821H2.13956L1.49156 31.9401C1.43156 32.0841 1.32656 32.1561 1.17656 32.1561C1.08056 32.1561 0.996557 32.1261 0.924557 32.0661C0.852557 32.0001 0.816557 31.9221 0.816557 31.8321C0.816557 31.7841 0.828557 31.7361 0.852557 31.6881L3.42656 25.9641C3.46256 25.8801 3.51656 25.8171 3.58856 25.7751C3.66056 25.7331 3.73856 25.7121 3.82256 25.7121C3.91256 25.7121 3.99356 25.7361 4.06556 25.7841C4.13756 25.8261 4.19156 25.8861 4.22756 25.9641L6.80156 31.6881ZM2.40956 29.8701H5.26256L3.83156 26.6391L2.40956 29.8701ZM9.57862 32.1741C9.17062 32.1741 8.80762 32.0811 8.48962 31.8951C8.17762 31.7091 7.93462 31.4451 7.76062 31.1031C7.59262 30.7611 7.50862 30.3651 7.50862 29.9151C7.50862 29.4651 7.59562 29.0661 7.76962 28.7181C7.94962 28.3701 8.19862 28.1001 8.51662 27.9081C8.83462 27.7161 9.20062 27.6201 9.61462 27.6201C9.84262 27.6201 10.0676 27.6531 10.2896 27.7191C10.5176 27.7791 10.7156 27.8691 10.8836 27.9891C10.9916 28.0611 11.0666 28.1331 11.1086 28.2051C11.1566 28.2711 11.1806 28.3461 11.1806 28.4301C11.1806 28.5141 11.1566 28.5831 11.1086 28.6371C11.0666 28.6911 11.0096 28.7181 10.9376 28.7181C10.8956 28.7181 10.8506 28.7061 10.8026 28.6821C10.7546 28.6581 10.7126 28.6341 10.6766 28.6101C10.6466 28.5861 10.6256 28.5711 10.6136 28.5651C10.4576 28.4631 10.3076 28.3821 10.1636 28.3221C10.0256 28.2621 9.85462 28.2321 9.65062 28.2321C9.21262 28.2321 8.87062 28.3821 8.62462 28.6821C8.38462 28.9761 8.26462 29.3871 8.26462 29.9151C8.26462 30.4431 8.38462 30.8511 8.62462 31.1391C8.87062 31.4271 9.21262 31.5711 9.65062 31.5711C9.85462 31.5711 10.0286 31.5411 10.1726 31.4811C10.3226 31.4211 10.4726 31.3401 10.6226 31.2381C10.6886 31.1961 10.7516 31.1601 10.8116 31.1301C10.8716 31.1001 10.9226 31.0851 10.9646 31.0851C11.0306 31.0851 11.0846 31.1121 11.1266 31.1661C11.1746 31.2201 11.1986 31.2891 11.1986 31.3731C11.1986 31.4511 11.1776 31.5231 11.1356 31.5891C11.0936 31.6491 11.0156 31.7181 10.9016 31.7961C10.7336 31.9101 10.5296 32.0031 10.2896 32.0751C10.0556 32.1411 9.81862 32.1741 9.57862 32.1741ZM14.11 31.5801C14.32 31.5981 14.425 31.6941 14.425 31.8681C14.425 31.9701 14.386 32.0481 14.308 32.1021C14.236 32.1501 14.125 32.1681 13.975 32.1561L13.732 32.1381C13.252 32.1021 12.898 31.9581 12.67 31.7061C12.442 31.4541 12.328 31.0731 12.328 30.5631V28.3041H11.725C11.623 28.3041 11.542 28.2801 11.482 28.2321C11.428 28.1781 11.401 28.1091 11.401 28.0251C11.401 27.9351 11.428 27.8631 11.482 27.8091C11.542 27.7551 11.623 27.7281 11.725 27.7281H12.328V26.7111C12.328 26.5971 12.361 26.5101 12.427 26.4501C12.493 26.3841 12.583 26.3511 12.697 26.3511C12.805 26.3511 12.892 26.3841 12.958 26.4501C13.024 26.5101 13.057 26.5971 13.057 26.7111V27.7281H14.056C14.152 27.7281 14.227 27.7551 14.281 27.8091C14.341 27.8631 14.371 27.9351 14.371 28.0251C14.371 28.1091 14.341 28.1781 14.281 28.2321C14.227 28.2801 14.152 28.3041 14.056 28.3041H13.057V30.5991C13.057 30.9291 13.123 31.1691 13.255 31.3191C13.393 31.4631 13.597 31.5441 13.867 31.5621L14.11 31.5801ZM15.5126 32.1561C15.4046 32.1561 15.3146 32.1261 15.2426 32.0661C15.1766 32.0001 15.1436 31.9101 15.1436 31.7961V27.9981C15.1436 27.8841 15.1766 27.7971 15.2426 27.7371C15.3146 27.6711 15.4046 27.6381 15.5126 27.6381C15.6206 27.6381 15.7076 27.6711 15.7736 27.7371C15.8396 27.7971 15.8726 27.8841 15.8726 27.9981V31.7961C15.8726 31.9161 15.8396 32.0061 15.7736 32.0661C15.7076 32.1261 15.6206 32.1561 15.5126 32.1561ZM15.5126 26.6931C15.3686 26.6931 15.2516 26.6511 15.1616 26.5671C15.0716 26.4831 15.0266 26.3721 15.0266 26.2341C15.0266 26.1021 15.0716 25.9941 15.1616 25.9101C15.2516 25.8261 15.3686 25.7841 15.5126 25.7841C15.6566 25.7841 15.7736 25.8261 15.8636 25.9101C15.9536 25.9941 15.9986 26.1021 15.9986 26.2341C15.9986 26.3721 15.9536 26.4831 15.8636 26.5671C15.7736 26.6511 15.6566 26.6931 15.5126 26.6931ZM20.3944 27.8631C20.4604 27.7191 20.5654 27.6471 20.7094 27.6471C20.7994 27.6471 20.8804 27.6771 20.9524 27.7371C21.0244 27.7971 21.0604 27.8721 21.0604 27.9621C21.0604 28.0161 21.0484 28.0641 21.0244 28.1061L19.2694 31.8861C19.2334 31.9641 19.1794 32.0271 19.1074 32.0751C19.0354 32.1171 18.9574 32.1381 18.8734 32.1381C18.7954 32.1381 18.7204 32.1171 18.6484 32.0751C18.5764 32.0271 18.5194 31.9641 18.4774 31.8861L16.7314 28.1061C16.7074 28.0641 16.6954 28.0191 16.6954 27.9711C16.6954 27.8811 16.7344 27.8031 16.8124 27.7371C16.8964 27.6711 16.9864 27.6381 17.0824 27.6381C17.1424 27.6381 17.1994 27.6561 17.2534 27.6921C17.3134 27.7281 17.3584 27.7791 17.3884 27.8451L18.8914 31.2201L20.3944 27.8631ZM22.3417 32.1561C22.2337 32.1561 22.1437 32.1261 22.0717 32.0661C22.0057 32.0001 21.9727 31.9101 21.9727 31.7961V27.9981C21.9727 27.8841 22.0057 27.7971 22.0717 27.7371C22.1437 27.6711 22.2337 27.6381 22.3417 27.6381C22.4497 27.6381 22.5367 27.6711 22.6027 27.7371C22.6687 27.7971 22.7017 27.8841 22.7017 27.9981V31.7961C22.7017 31.9161 22.6687 32.0061 22.6027 32.0661C22.5367 32.1261 22.4497 32.1561 22.3417 32.1561ZM22.3417 26.6931C22.1977 26.6931 22.0807 26.6511 21.9907 26.5671C21.9007 26.4831 21.8557 26.3721 21.8557 26.2341C21.8557 26.1021 21.9007 25.9941 21.9907 25.9101C22.0807 25.8261 22.1977 25.7841 22.3417 25.7841C22.4857 25.7841 22.6027 25.8261 22.6927 25.9101C22.7827 25.9941 22.8277 26.1021 22.8277 26.2341C22.8277 26.3721 22.7827 26.4831 22.6927 26.5671C22.6027 26.6511 22.4857 26.6931 22.3417 26.6931ZM26.1599 31.5801C26.3699 31.5981 26.4749 31.6941 26.4749 31.8681C26.4749 31.9701 26.4359 32.0481 26.3579 32.1021C26.2859 32.1501 26.1749 32.1681 26.0249 32.1561L25.7819 32.1381C25.3019 32.1021 24.9479 31.9581 24.7199 31.7061C24.4919 31.4541 24.3779 31.0731 24.3779 30.5631V28.3041H23.7749C23.6729 28.3041 23.5919 28.2801 23.5319 28.2321C23.4779 28.1781 23.4509 28.1091 23.4509 28.0251C23.4509 27.9351 23.4779 27.8631 23.5319 27.8091C23.5919 27.7551 23.6729 27.7281 23.7749 27.7281H24.3779V26.7111C24.3779 26.5971 24.4109 26.5101 24.4769 26.4501C24.5429 26.3841 24.6329 26.3511 24.7469 26.3511C24.8549 26.3511 24.9419 26.3841 25.0079 26.4501C25.0739 26.5101 25.1069 26.5971 25.1069 26.7111V27.7281H26.1059C26.2019 27.7281 26.2769 27.7551 26.3309 27.8091C26.3909 27.8631 26.4209 27.9351 26.4209 28.0251C26.4209 28.1091 26.3909 28.1781 26.3309 28.2321C26.2769 28.2801 26.2019 28.3041 26.1059 28.3041H25.1069V30.5991C25.1069 30.9291 25.1729 31.1691 25.3049 31.3191C25.4429 31.4631 25.6469 31.5441 25.9169 31.5621L26.1599 31.5801ZM30.4052 27.8631C30.4712 27.7191 30.5762 27.6471 30.7202 27.6471C30.8102 27.6471 30.8912 27.6771 30.9632 27.7371C31.0352 27.7971 31.0712 27.8721 31.0712 27.9621C31.0712 28.0161 31.0592 28.0641 31.0352 28.1061L28.5062 33.5601C28.4762 33.6261 28.4312 33.6771 28.3712 33.7131C28.3172 33.7491 28.2602 33.7671 28.2002 33.7671C28.1102 33.7671 28.0292 33.7371 27.9572 33.6771C27.8912 33.6231 27.8582 33.5511 27.8582 33.4611C27.8582 33.4131 27.8702 33.3651 27.8942 33.3171L28.5242 31.9581L26.7422 28.1061C26.7182 28.0641 26.7062 28.0191 26.7062 27.9711C26.7062 27.8811 26.7452 27.8031 26.8232 27.7371C26.9072 27.6711 26.9972 27.6381 27.0932 27.6381C27.1532 27.6381 27.2102 27.6561 27.2642 27.6921C27.3242 27.7281 27.3692 27.7791 27.3992 27.8451L28.9022 31.2201L30.4052 27.8631Z" fill="black"/>
<path d="M32.0857 17.4609H32.0653C31.857 17.456 31.6558 17.3847 31.4909 17.2574C31.3261 17.1301 31.2062 16.9534 31.1489 16.7531L28.0597 5.94823L26.1734 10.9783C26.104 11.1641 25.9796 11.3243 25.8167 11.4375C25.6538 11.5507 25.4603 11.6116 25.262 11.6119H21.3627V9.6623H24.5864L27.274 2.49639C27.346 2.30425 27.4767 2.13972 27.6476 2.02622C27.8185 1.91272 28.0209 1.85604 28.2259 1.86425C28.4309 1.87245 28.6281 1.94514 28.7894 2.07194C28.9507 2.19874 29.0679 2.3732 29.1242 2.57048L32.1569 13.1882L34.0861 7.40461C34.1506 7.2105 34.2745 7.04163 34.4404 6.92194C34.6063 6.80226 34.8056 6.73784 35.0102 6.73784H38.9095V8.68748H35.7121L33.0099 16.7941C32.9455 16.9883 32.8215 17.1572 32.6556 17.2769C32.4897 17.3967 32.2903 17.461 32.0857 17.4609V17.4609Z" fill="black"/>
<path d="M22.3375 24.2846H20.3879V17.4608C20.3871 16.6855 20.0787 15.9421 19.5305 15.3938C18.9822 14.8455 18.2388 14.5371 17.4634 14.5364H13.5641C12.7887 14.5371 12.0453 14.8455 11.4971 15.3938C10.9488 15.9421 10.6404 16.6855 10.6397 17.4608V24.2846H8.69002V17.4608C8.69157 16.1686 9.20558 14.9298 10.1193 14.016C11.0331 13.1023 12.2719 12.5883 13.5641 12.5867H17.4634C18.7556 12.5883 19.9945 13.1023 20.9082 14.016C21.822 14.9298 22.336 16.1686 22.3375 17.4608V24.2846Z" fill="black"/>
<path d="M15.5138 2.83853C16.0922 2.83853 16.6576 3.01004 17.1385 3.33139C17.6194 3.65273 17.9943 4.10947 18.2156 4.64385C18.437 5.17822 18.4949 5.76623 18.382 6.33352C18.2692 6.90081 17.9907 7.4219 17.5817 7.8309C17.1727 8.23989 16.6516 8.51842 16.0843 8.63126C15.517 8.7441 14.929 8.68619 14.3946 8.46484C13.8602 8.2435 13.4035 7.86866 13.0822 7.38773C12.7608 6.90681 12.5893 6.34139 12.5893 5.76299C12.5893 4.98737 12.8974 4.24352 13.4458 3.69508C13.9943 3.14664 14.7381 2.83853 15.5138 2.83853V2.83853ZM15.5138 0.888885C14.5497 0.888885 13.6074 1.17475 12.8058 1.71032C12.0043 2.24589 11.3796 3.00712 11.0107 3.89775C10.6418 4.78838 10.5452 5.7684 10.7333 6.71388C10.9214 7.65936 11.3856 8.52785 12.0672 9.2095C12.7489 9.89116 13.6174 10.3554 14.5629 10.5434C15.5084 10.7315 16.4884 10.635 17.379 10.2661C18.2696 9.89717 19.0309 9.27244 19.5664 8.4709C20.102 7.66935 20.3879 6.727 20.3879 5.76299C20.3879 4.4703 19.8743 3.23055 18.9603 2.31648C18.0462 1.40241 16.8065 0.888885 15.5138 0.888885Z" fill="black"/>
</svg>
