<svg width="45" height="35" viewBox="0 0 45 35" fill="none" xmlns="http://www.w3.org/2000/svg">
<path d="M25.9313 27.7083C25.6511 27.7091 25.3744 27.661 25.1213 27.5676C24.8682 27.4743 24.6452 27.338 24.4688 27.1688L15.4125 18.4188C15.1367 18.1578 14.986 17.8305 14.986 17.4927C14.986 17.1549 15.1367 16.8276 15.4125 16.5667L24.7875 7.81668C25.1058 7.51887 25.5631 7.33158 26.0589 7.29603C26.5547 7.26047 27.0483 7.37956 27.4313 7.6271C27.8142 7.87463 28.055 8.23034 28.1007 8.61596C28.1464 9.00158 27.9933 9.38553 27.675 9.68335L19.2938 17.5L27.3938 25.3167C27.623 25.5307 27.7687 25.7914 27.8135 26.0678C27.8582 26.3443 27.8003 26.6249 27.6464 26.8765C27.4925 27.1281 27.2492 27.3401 26.9453 27.4876C26.6413 27.635 26.2894 27.7116 25.9313 27.7083Z" fill="black"/>
</svg>
