<svg width="201" height="204" viewBox="0 0 201 204" fill="none" xmlns="http://www.w3.org/2000/svg">
<path d="M109 73.8182L126.769 65.3818L155.308 58L165 73.8182L144.538 87H121.923L109 73.8182Z" fill="#FFB0B1"/>
<path d="M134.648 72.8979L128.136 65.1749C128.371 62.5024 128.224 59.8684 127.701 57.4041C127.135 54.832 126.172 52.1966 124.541 50.5196C120.422 46.2683 150.209 37.727 150.209 37.727C150.117 39.6872 150.104 41.6373 150.171 43.5695C150.326 48.2796 151.009 54.5004 153.405 56.8618C157.478 60.8792 134.648 72.8979 134.648 72.8979Z" fill="#FFB0B1"/>
<path d="M146.5 74L142.5 71.5L138.5 68L127 54L128.5 62L128 64.5L124.5 68L125.5 80L133.5 85L142.5 79.5L146.5 74Z" fill="black" fill-opacity="0.1"/>
<ellipse cx="129" cy="31.5" rx="23" ry="22.5" fill="#FFB0B1"/>
<path opacity="0.1" d="M129.924 19.783C129.901 19.7333 129.878 19.6837 129.854 19.6342L129.924 19.783ZM129.924 19.783C129.654 19.4381 129.345 19.1659 128.999 18.9646C128.421 18.6269 127.778 18.5102 127.126 18.5447C126.105 18.5987 125.025 19.0234 124.011 19.6031C124.05 19.5765 124.089 19.5501 124.129 19.5239C125.3 18.746 126.496 18.2087 127.512 18.1549C128.01 18.1286 128.45 18.2189 128.829 18.44C129.208 18.6607 129.562 19.0333 129.854 19.6338L129.924 19.783ZM118.748 23.3466L118.748 23.3467C116.978 24.2248 115.009 24.535 113.103 24.5804C110.795 24.6363 108.134 24.2228 106.423 22.3585M118.748 23.3466L106.049 21.9043M118.748 23.3466C118.929 23.2571 119.105 23.1625 119.279 23.0635C118.854 23.3518 118.421 23.6145 117.969 23.8392C116.374 24.6293 114.567 24.9256 112.742 24.9691C110.511 25.0205 108.232 24.605 106.823 23.0713M118.748 23.3466L106.823 23.0713M106.423 22.3585C106.423 22.3584 106.423 22.3584 106.423 22.3583L106.792 22.0202L106.424 22.3586C106.423 22.3586 106.423 22.3586 106.423 22.3585ZM106.423 22.3585C106.29 22.2133 106.165 22.0616 106.049 21.9043M106.049 21.9043C106.251 22.3315 106.509 22.726 106.823 23.0713M106.049 21.9043L106.823 23.0713M148.543 37.2021L148.681 37.5153L149.023 37.4995C149.288 37.4872 149.534 37.4826 149.778 37.478C149.939 37.4749 150.099 37.4719 150.265 37.4667C150.664 37.4542 151.066 37.4293 151.446 37.3537C151.592 37.3246 151.736 37.2879 151.875 37.2418C151.607 37.4658 151.259 37.6194 150.84 37.7284C150.131 37.9126 149.307 37.9459 148.461 37.98C148.417 37.9817 148.372 37.9835 148.328 37.9853C148.177 37.597 148.097 37.2849 148.052 36.9709C147.994 36.5651 147.994 36.1398 148 35.505C148.001 35.3962 148.004 35.2784 148.006 35.1541C148.009 35.0255 148.012 34.8901 148.013 34.7503C148.051 35.563 148.174 36.3686 148.543 37.2021ZM148 33.496C147.999 33.6279 147.998 33.7592 147.998 33.8901C147.986 33.6993 147.968 33.5104 147.94 33.3294C147.83 32.6155 147.528 31.7764 146.639 31.5196L146.638 31.5195C145.831 31.2872 145.183 31.5873 144.637 32.0257C144.37 32.2404 144.111 32.5002 143.857 32.765C143.781 32.8438 143.706 32.9228 143.631 33.0022C143.447 33.1969 143.26 33.3937 143.058 33.5941C142.495 34.1511 141.859 34.6851 141.043 35.0526C140.247 35.4111 139.253 35.6224 137.954 35.5087C137.787 35.43 137.661 35.2562 137.604 34.8699C137.551 34.5125 137.576 34.0615 137.642 33.5585C137.659 33.7494 137.686 33.9342 137.726 34.1085C137.86 34.6859 138.169 35.2376 138.834 35.4716L138.877 35.4869L138.923 35.494C139.267 35.5477 139.607 35.4579 139.91 35.3244C140.217 35.1891 140.531 34.9884 140.841 34.761C141.32 34.4101 141.841 33.9557 142.361 33.5022C142.509 33.3731 142.657 33.244 142.804 33.1173C143.484 32.5317 144.151 31.989 144.782 31.6319C145.421 31.2695 145.924 31.1556 146.315 31.267C147.292 31.5615 148.008 32.474 148 33.496ZM137.415 29.0851C137.485 29.196 137.542 29.3302 137.586 29.4879C137.146 28.9946 136.601 28.6518 136.063 28.3687C135.803 28.2322 135.532 28.1034 135.272 27.9795C135.189 27.9402 135.108 27.9013 135.028 27.8629C134.69 27.7003 134.372 27.5401 134.079 27.3591C133.134 26.7602 132.563 26.0256 132.146 25.1875C132.572 25.7858 133.125 26.3393 133.881 26.8172L133.881 26.8173C134.221 27.0317 134.579 27.2129 134.924 27.3797C135.025 27.4286 135.124 27.4757 135.221 27.5221C135.465 27.6381 135.698 27.7493 135.929 27.8698C136.568 28.2042 137.081 28.5608 137.414 29.0843L137.415 29.0851Z" fill="black" stroke="black"/>
<path d="M123.793 19.8186C121.947 21.0048 120.359 22.5916 118.387 23.5417C116.681 24.3607 114.763 24.6586 112.871 24.7022C110.554 24.7536 108.06 24.3479 106.477 22.6789C105.023 21.1383 104.675 18.7684 105.29 16.7477C105.906 14.727 107.381 13.0503 109.113 11.8358C110.845 10.6213 112.856 9.78171 114.004 8.04342C114.611 7.12421 114.905 6.04067 115.409 5.0624C117.023 1.93245 120.653 0.237815 124.161 0.0272693C127.67 -0.183277 131.147 0.859182 134.488 1.98894C137.83 3.1187 141.197 4.36143 144.723 4.59509C146.293 4.69266 147.925 4.59509 149.382 5.18821C151.341 5.98161 152.626 7.87909 153.501 9.80995C154.482 11.9873 155.092 14.3649 154.989 16.7426C154.773 21.8188 151.411 26.8 152.888 31.6631C153.28 32.9597 154.013 34.2898 153.622 35.5864C153.05 37.4788 150.602 37.9101 148.623 38C148.108 36.8728 148.384 35.5684 148.394 34.3308C148.404 33.0933 147.946 31.6323 146.752 31.2985C144.363 30.6335 142.715 35.0755 140.368 34.2744C138.579 33.6607 139.042 30.9364 138.002 29.3625C137.181 28.1146 135.534 27.7654 134.257 26.9848C131.536 25.3185 131.618 22.6532 130.354 20.1318C129.021 17.4769 126.223 18.2575 123.793 19.8186Z" fill="#575A89"/>
<path d="M137.782 32.1323L139.004 29.213C139.792 27.33 142.214 26.8069 143.71 28.1967C144.894 29.2976 144.965 31.1489 143.868 32.3371L142.039 34.3188C141.128 35.3056 139.614 35.6643 138.453 34.988C137.46 34.4091 137.338 33.1926 137.782 32.1323Z" fill="#575A89"/>
<path d="M125 72L126.5 80.5L130 82.5L133.5 84C133.5 84 137.5 82 141 79.5C142.591 78.3636 143.769 77.2273 144.58 76.3257L146 74.5C146 74.5 145.554 75.2438 144.58 76.3257L142.5 79L134 84.5L133.5 85L130 83L126 81L125 72Z" fill="black" fill-opacity="0.15"/>
<path d="M96.5 90V79L118 66.5L128.5 64.5L124.5 68L126 80.5L133.5 85L142.5 79L148.5 71L154 58L162 61.5L170 64.5L178 66.5L189 71L197 85L200 102.5L178 106.5L172.5 125V133V141.5L175.5 152.5L180.5 158.5V170.5V203.5H100.5L103.25 163.5L104.5 136.5V120.5L103.25 114L102 107.5L96.5 90Z" fill="#FFCCBB"/>
<path d="M86.5 97L97 83L98 93.5L101.5 101V110L103.5 118L96.5 122.5L63.5 136.5L23 124.5V114L63.5 118L75 108L86.5 97Z" fill="#FFB0B1"/>
<rect y="95.3852" width="3" height="24" transform="rotate(-27.5 0 95.3852)" fill="black"/>
<path d="M98.6087 77L96 78.5395V89.8289L98.6087 97.5263L100.174 102.658L103.304 116L105.913 113.947L108 111.895L100.174 77H98.6087Z" fill="#FDD5C7"/>
<path d="M26.5884 114.599C26.5884 114.599 3.53556 102.733 6.04321 113.499C8.55086 124.264 25.8401 125.324 25.8401 125.324L26.5884 114.599Z" fill="#FFB0B1"/>
<path d="M178.093 92.4813L177 106.969L196 103.543L199.5 101.043L197 90.543L194.5 80.043C194.5 80.043 191.752 71.2256 185 70.043C178.248 68.8603 178.093 92.4813 178.093 92.4813Z" fill="black" fill-opacity="0.1"/>
<path d="M177 106C173 106 165 132 165 132L170 132.5L173 131C173 131 183.752 107.183 177 106Z" fill="black" fill-opacity="0.1"/>
<path d="M197 100L186.5 103.5L178 105V107L175 129.5L166.5 142.5L156.5 155.5L162 161L178 145.5L189.5 132L197 100Z" fill="#FFB0B1"/>
<path d="M179.093 92.4813L178 106.969L197 103.543L200.5 101.043L198 90.543L195.5 80.043C195.5 80.043 192.752 71.2256 186 70.043C179.248 68.8603 179.093 92.4813 179.093 92.4813Z" fill="#FFCCBB"/>
<path d="M157 155.5C157 155.5 135.681 165.992 145.233 168.651C154.786 171.31 162 160.5 162 160.5L157 155.5Z" fill="#FFB0B1"/>
</svg>
