<svg width="1081" height="1202" viewBox="0 0 1081 1202" fill="none" xmlns="http://www.w3.org/2000/svg">
<path d="M0 360.411V1021.16C0 1153.37 107.642 1201.37 180.003 1201.37H1080.02V1081.23H180.723C153.003 1080.51 120.002 1069.58 120.002 1021.16C120.002 1015.1 120.542 1009.69 121.442 1004.77C128.162 970.166 156.483 961.696 180.723 961.096H1080.02V120.137C1080.02 53.8814 1026.2 0 960.017 0H180.003C107.642 0 0 47.9947 0 180.205V360.411ZM180.003 120.137H960.017V840.959H120.002V180.205C120.002 131.79 153.003 120.858 180.003 120.137Z" fill="black"/>
<path d="M480.093 722.035H599.926V540.294H779.677V419.133H599.926V237.392H480.093V419.133H300.342V540.294H480.093V722.035Z" fill="black"/>
</svg>
