<svg width="1344" height="1199" viewBox="0 0 1344 1199" fill="none" xmlns="http://www.w3.org/2000/svg">
<path d="M321.101 631.561L70.9847 627.727C61.0344 627.574 51.5525 623.466 44.6247 616.305C37.697 609.145 33.8909 599.519 34.0438 589.545C34.1967 579.572 38.2961 570.067 45.44 563.122C52.584 556.178 62.1875 552.362 72.1377 552.514L302.182 556.041L393.135 423.727C396.64 418.629 401.347 414.477 406.836 411.64C412.326 408.803 418.43 407.368 424.606 407.463C430.782 407.557 436.839 409.179 442.239 412.183C447.64 415.187 452.217 419.481 455.564 424.684L620.55 681.189L690.968 578.753C694.473 573.654 699.179 569.501 704.669 566.663C710.159 563.825 716.263 562.39 722.439 562.484L872.509 564.785C882.459 564.937 891.941 569.046 898.869 576.206C905.797 583.366 909.602 592.992 909.45 602.966C909.297 612.94 905.197 622.444 898.053 629.389C890.909 636.334 881.306 640.149 871.356 639.997L741.358 638.004L650.405 770.318C646.9 775.416 642.193 779.568 636.703 782.405C631.213 785.242 625.11 786.677 618.934 786.582C612.758 786.488 606.701 784.866 601.301 781.862C595.9 778.858 591.323 774.564 587.976 769.361L422.99 512.856L352.572 615.292C349.067 620.391 344.361 624.544 338.871 627.382C333.381 630.22 327.277 631.655 321.101 631.561ZM981.011 14.7631C921.805 13.7517 863.254 27.3215 810.499 54.2816C757.743 81.2417 712.393 120.768 678.431 169.392C635.811 104.415 573.533 54.8446 500.737 27.9562C427.942 1.06779 348.464 -1.72257 273.967 19.9947C199.469 41.712 133.877 86.7932 86.8172 148.622C39.7571 210.45 13.7074 285.77 12.4913 363.526C12.3535 372.52 12.4759 381.668 12.8502 390.708C13.0119 395.673 14.1533 400.557 16.2084 405.077C18.2636 409.597 21.1917 413.664 24.8239 417.044C28.456 420.423 32.7201 423.048 37.37 424.766C42.0199 426.485 46.9633 427.263 51.915 427.056C56.8666 426.848 61.7283 425.66 66.2193 423.559C70.7103 421.458 74.7417 418.486 78.0805 414.814C81.4194 411.143 83.9997 406.845 85.6723 402.169C87.3449 397.493 88.0768 392.53 87.8256 387.569C87.5099 379.943 87.41 372.308 87.5261 364.676C88.5612 298.038 112.589 233.814 155.524 182.924C198.46 132.033 257.653 97.6175 323.039 85.5272C388.426 73.437 455.971 84.4187 514.189 116.605C572.408 148.792 617.707 200.197 642.385 262.08C645.134 268.968 649.853 274.887 655.95 279.093C662.046 283.298 669.247 285.603 676.647 285.716C684.047 285.83 691.316 283.747 697.538 279.73C703.761 275.714 708.659 269.942 711.617 263.142C738.181 202.044 785.035 152.052 844.213 121.665C903.391 91.278 971.24 82.3719 1036.23 96.4608C1101.21 110.55 1159.32 146.764 1200.68 198.947C1242.03 251.129 1264.08 316.059 1263.07 382.698C1257.56 742.024 766.308 1047.53 664.034 1107.26C604.357 1069.98 410.107 941.982 263.8 768.93C260.614 765.162 256.719 762.06 252.337 759.801C247.956 757.542 243.173 756.17 238.262 755.764C233.351 755.357 228.408 755.925 223.716 757.433C219.024 758.941 214.674 761.362 210.914 764.555C207.155 767.749 204.06 771.653 201.806 776.045C199.552 780.438 198.183 785.232 197.777 790.154C197.372 795.077 197.937 800.031 199.442 804.734C200.946 809.438 203.36 813.798 206.546 817.566C389.226 1033.64 634.207 1177.39 644.547 1183.41C650.1 1186.64 656.387 1188.39 662.807 1188.49C669.227 1188.58 675.565 1187.03 681.214 1183.97C796.258 1118.78 904.467 1042.15 1004.21 955.24C1222.88 763.961 1335.23 571.715 1338.11 383.848C1339.47 287.467 1302.65 194.48 1235.7 125.288C1168.76 56.0949 1077.16 16.3466 981.011 14.7631Z" fill="black"/>
</svg>
