<svg width="89" height="16" viewBox="0 0 89 16" fill="none" xmlns="http://www.w3.org/2000/svg">
<path d="M10.7493 0.999999V6.78H3.5093V0.999999H0.909297V15H3.5093V9H10.7493V15H13.3493V0.999999H10.7493ZM26.9007 9.72C26.9007 6.38 24.6207 4.2 21.5007 4.2C18.3207 4.2 15.9807 6.48 15.9807 9.66C15.9807 12.84 18.3007 15.14 21.8807 15.14C23.7207 15.14 25.2207 14.54 26.1807 13.4L24.8407 11.86C24.0807 12.64 23.1407 13.02 21.9407 13.02C20.0807 13.02 18.7807 12.02 18.4807 10.46H26.8607C26.8807 10.22 26.9007 9.92 26.9007 9.72ZM21.5007 6.2C23.1407 6.2 24.3207 7.26 24.5207 8.8H18.4607C18.7007 7.24 19.8807 6.2 21.5007 6.2ZM33.0891 4.2C31.3691 4.2 29.7091 4.64 28.5691 5.52L29.5491 7.34C30.3491 6.68 31.5891 6.28 32.7891 6.28C34.5691 6.28 35.4491 7.14 35.4491 8.6V8.76H32.6891C29.4491 8.76 28.2491 10.16 28.2491 11.94C28.2491 13.8 29.7891 15.14 32.2291 15.14C33.8291 15.14 34.9891 14.62 35.5891 13.7V15H37.9491V8.74C37.9491 5.66 36.1691 4.2 33.0891 4.2ZM32.7491 13.32C31.4691 13.32 30.7091 12.74 30.7091 11.84C30.7091 11.06 31.1691 10.42 32.8691 10.42H35.4491V11.66C35.0291 12.76 33.9691 13.32 32.7491 13.32ZM43.5376 5.88V4.32H41.1576V15H43.6576V9.82C43.6576 7.64 44.8576 6.52 46.7576 6.52C46.9376 6.52 47.1176 6.54 47.3376 6.58V4.2C45.5576 4.2 44.2576 4.76 43.5376 5.88ZM55.569 12.64C55.189 12.94 54.689 13.08 54.169 13.08C53.209 13.08 52.689 12.52 52.689 11.48V6.4H55.549V4.4H52.689V1.96H50.189V4.4H48.429V6.4H50.189V11.54C50.189 13.9 51.529 15.14 53.869 15.14C54.769 15.14 55.669 14.9 56.269 14.42L55.569 12.64Z" fill="#F88A8A"/>
<path d="M68.1255 12.2C67.2255 12.72 66.2455 12.92 65.2455 12.92C62.2855 12.92 60.1855 10.84 60.1855 8C60.1855 5.1 62.2855 3.08 65.2655 3.08C66.7655 3.08 68.0255 3.58 69.1255 4.68L70.7655 3.08C69.4455 1.58 67.4855 0.799999 65.1455 0.799999C60.7655 0.799999 57.5655 3.82 57.5655 8C57.5655 12.18 60.7655 15.2 65.1055 15.2C67.0855 15.2 69.1255 14.6 70.5855 13.42V7.84H68.1255V12.2ZM80.5548 15.2C84.8948 15.2 88.0948 12.16 88.0948 8C88.0948 3.84 84.8948 0.799999 80.5548 0.799999C76.2148 0.799999 73.0148 3.86 73.0148 8C73.0148 12.14 76.2148 15.2 80.5548 15.2ZM80.5548 12.92C77.7348 12.92 75.6348 10.86 75.6348 8C75.6348 5.14 77.7348 3.08 80.5548 3.08C83.3748 3.08 85.4748 5.14 85.4748 8C85.4748 10.86 83.3748 12.92 80.5548 12.92Z" fill="#070707"/>
</svg>
