<svg width="24" height="36" viewBox="0 0 24 36" fill="none" xmlns="http://www.w3.org/2000/svg">
<path d="M1.25411 32.1111C1.15211 32.1111 1.06511 32.0811 0.993115 32.0211C0.927115 31.9551 0.894115 31.8711 0.894115 31.7691V26.0991C0.894115 25.9851 0.927115 25.8951 0.993115 25.8291C1.05911 25.7571 1.14911 25.7211 1.26311 25.7211C1.37711 25.7211 1.46711 25.7571 1.53311 25.8291C1.59911 25.8951 1.63211 25.9851 1.63211 26.0991V31.4811H4.53911C4.64711 31.4811 4.73111 31.5081 4.79111 31.5621C4.85111 31.6161 4.88111 31.6941 4.88111 31.7961C4.88111 31.8981 4.85111 31.9761 4.79111 32.0301C4.73111 32.0841 4.64711 32.1111 4.53911 32.1111H1.25411ZM9.03068 31.0941C9.09668 31.0941 9.15368 31.1211 9.20168 31.1751C9.24968 31.2291 9.27368 31.2981 9.27368 31.3821C9.27368 31.5321 9.16868 31.6701 8.95868 31.7961C8.74268 31.9221 8.51468 32.0181 8.27468 32.0841C8.03468 32.1441 7.80068 32.1741 7.57268 32.1741C6.89468 32.1741 6.35768 31.9731 5.96168 31.5711C5.57168 31.1691 5.37668 30.6141 5.37668 29.9061C5.37668 29.4561 5.46368 29.0601 5.63768 28.7181C5.81168 28.3701 6.05468 28.1001 6.36668 27.9081C6.68468 27.7161 7.04468 27.6201 7.44668 27.6201C8.01668 27.6201 8.46968 27.8061 8.80568 28.1781C9.14168 28.5501 9.30968 29.0541 9.30968 29.6901C9.30968 29.8101 9.28568 29.8971 9.23768 29.9511C9.18968 30.0051 9.11168 30.0321 9.00368 30.0321H6.10568C6.15968 31.0641 6.64868 31.5801 7.57268 31.5801C7.80668 31.5801 8.00768 31.5501 8.17568 31.4901C8.34368 31.4241 8.52368 31.3371 8.71568 31.2291C8.87168 31.1391 8.97668 31.0941 9.03068 31.0941ZM7.45568 28.1871C7.07168 28.1871 6.76268 28.3071 6.52868 28.5471C6.30068 28.7871 6.16568 29.1261 6.12368 29.5641H8.67068C8.65868 29.1201 8.54768 28.7811 8.33768 28.5471C8.12768 28.3071 7.83368 28.1871 7.45568 28.1871ZM12.1748 27.6201C13.2728 27.6201 13.8218 28.1961 13.8218 29.3481V31.7961C13.8218 31.9041 13.7888 31.9911 13.7228 32.0571C13.6628 32.1231 13.5788 32.1561 13.4708 32.1561C13.3628 32.1561 13.2758 32.1231 13.2098 32.0571C13.1438 31.9911 13.1108 31.9041 13.1108 31.7961V31.3641C12.9968 31.6221 12.8228 31.8231 12.5888 31.9671C12.3548 32.1051 12.0848 32.1741 11.7788 32.1741C11.4968 32.1741 11.2358 32.1171 10.9958 32.0031C10.7618 31.8891 10.5758 31.7301 10.4378 31.5261C10.2998 31.3221 10.2308 31.0971 10.2308 30.8511C10.2308 30.5211 10.3148 30.2661 10.4828 30.0861C10.6508 29.9001 10.9268 29.7681 11.3108 29.6901C11.6948 29.6061 12.2288 29.5641 12.9128 29.5641H13.1108V29.2671C13.1108 28.9071 13.0358 28.6431 12.8858 28.4751C12.7418 28.3071 12.5048 28.2231 12.1748 28.2231C11.7668 28.2231 11.3528 28.3341 10.9328 28.5561C10.7708 28.6581 10.6568 28.7091 10.5908 28.7091C10.5188 28.7091 10.4588 28.6821 10.4108 28.6281C10.3628 28.5741 10.3388 28.5051 10.3388 28.4211C10.3388 28.3371 10.3628 28.2651 10.4108 28.2051C10.4648 28.1391 10.5488 28.0731 10.6628 28.0071C10.8728 27.8871 11.1098 27.7941 11.3738 27.7281C11.6438 27.6561 11.9108 27.6201 12.1748 27.6201ZM11.8778 31.5981C12.2378 31.5981 12.5318 31.4781 12.7598 31.2381C12.9938 30.9921 13.1108 30.6771 13.1108 30.2931V30.0321H12.9488C12.4208 30.0321 12.0188 30.0561 11.7428 30.1041C11.4668 30.1461 11.2688 30.2211 11.1488 30.3291C11.0348 30.4311 10.9778 30.5841 10.9778 30.7881C10.9778 31.0221 11.0618 31.2171 11.2298 31.3731C11.4038 31.5231 11.6198 31.5981 11.8778 31.5981ZM17.3252 27.6381C17.5772 27.6201 17.7032 27.7221 17.7032 27.9441C17.7032 28.0401 17.6762 28.1181 17.6222 28.1781C17.5682 28.2321 17.4752 28.2651 17.3432 28.2771L17.0732 28.3041C16.6712 28.3401 16.3712 28.4841 16.1732 28.7361C15.9812 28.9821 15.8852 29.2731 15.8852 29.6091V31.7961C15.8852 31.9161 15.8522 32.0061 15.7862 32.0661C15.7202 32.1261 15.6332 32.1561 15.5252 32.1561C15.4172 32.1561 15.3272 32.1261 15.2552 32.0661C15.1892 32.0001 15.1562 31.9101 15.1562 31.7961V27.9981C15.1562 27.8841 15.1922 27.7971 15.2642 27.7371C15.3362 27.6711 15.4232 27.6381 15.5252 27.6381C15.6212 27.6381 15.7022 27.6711 15.7682 27.7371C15.8342 27.7971 15.8672 27.8811 15.8672 27.9891V28.4931C15.9932 28.2291 16.1702 28.0281 16.3982 27.8901C16.6322 27.7521 16.8992 27.6711 17.1992 27.6471L17.3252 27.6381ZM20.5341 27.6201C21.5841 27.6201 22.1091 28.1991 22.1091 29.3571V31.7961C22.1091 31.9101 22.0761 32.0001 22.0101 32.0661C21.9501 32.1261 21.8631 32.1561 21.7491 32.1561C21.6351 32.1561 21.5451 32.1261 21.4791 32.0661C21.4131 32.0001 21.3801 31.9101 21.3801 31.7961V29.4021C21.3801 28.9941 21.2991 28.6971 21.1371 28.5111C20.9811 28.3251 20.7291 28.2321 20.3811 28.2321C19.9791 28.2321 19.6581 28.3551 19.4181 28.6011C19.1781 28.8471 19.0581 29.1801 19.0581 29.6001V31.7961C19.0581 31.9101 19.0251 32.0001 18.9591 32.0661C18.8991 32.1261 18.8121 32.1561 18.6981 32.1561C18.5841 32.1561 18.4941 32.1261 18.4281 32.0661C18.3621 32.0001 18.3291 31.9101 18.3291 31.7961V27.9981C18.3291 27.8901 18.3621 27.8031 18.4281 27.7371C18.4941 27.6711 18.5841 27.6381 18.6981 27.6381C18.8061 27.6381 18.8901 27.6711 18.9501 27.7371C19.0161 27.8031 19.0491 27.8871 19.0491 27.9891V28.4481C19.1931 28.1781 19.3941 27.9741 19.6521 27.8361C19.9101 27.6921 20.2041 27.6201 20.5341 27.6201Z" fill="black"/>
<path d="M0.111115 8.29629V21.8765C0.111115 24.5938 2.32593 25.5802 3.81482 25.5802H22.3333V23.1111H3.82963C3.25926 23.0963 2.58025 22.8716 2.58025 21.8765C2.58025 21.7518 2.59136 21.6407 2.60988 21.5395C2.74815 20.8284 3.33087 20.6543 3.82963 20.642H22.3333V3.35802C22.3333 1.99629 21.2259 0.888885 19.8642 0.888885H3.81482C2.32593 0.888885 0.111115 1.87531 0.111115 4.59259V8.29629ZM3.81482 3.35802H19.8642V18.1728H2.58025V4.59259C2.58025 3.59753 3.25926 3.37284 3.81482 3.35802Z" fill="black"/>
<path d="M9.98766 15.7037H12.4568V12H16.1605V9.53088H12.4568V5.82718H9.98766V9.53088H6.28394V12H9.98766V15.7037Z" fill="black"/>
</svg>
