<svg width="33" height="34" viewBox="0 0 33 34" fill="none" xmlns="http://www.w3.org/2000/svg">
<path d="M11.1377 12.0719L6.35682 11.9987C6.16663 11.9957 5.98538 11.9172 5.85296 11.7803C5.72054 11.6435 5.64779 11.4595 5.65071 11.2688C5.65364 11.0782 5.73199 10.8965 5.86855 10.7638C6.0051 10.631 6.18867 10.5581 6.37886 10.561L10.776 10.6284L12.5145 8.09932C12.5815 8.00187 12.6715 7.92251 12.7764 7.86828C12.8814 7.81405 12.9981 7.78662 13.1161 7.78843C13.2341 7.79024 13.3499 7.82123 13.4532 7.87866C13.5564 7.93608 13.6439 8.01816 13.7078 8.11761L16.8615 13.0206L18.2075 11.0625C18.2745 10.9651 18.3644 10.8857 18.4694 10.8315C18.5743 10.7772 18.691 10.7498 18.809 10.7516L21.6775 10.7956C21.8677 10.7985 22.049 10.877 22.1814 11.0139C22.3138 11.1507 22.3865 11.3347 22.3836 11.5254C22.3807 11.716 22.3023 11.8977 22.1658 12.0304C22.0292 12.1632 21.8457 12.2361 21.6555 12.2332L19.1706 12.1951L17.4321 14.7242C17.3651 14.8217 17.2752 14.901 17.1702 14.9552C17.0653 15.0095 16.9486 15.0369 16.8306 15.0351C16.7125 15.0333 16.5967 15.0023 16.4935 14.9449C16.3903 14.8874 16.3028 14.8054 16.2388 14.7059L13.0852 9.80296L11.7392 11.761C11.6722 11.8584 11.5823 11.9378 11.4773 11.9921C11.3724 12.0463 11.2557 12.0737 11.1377 12.0719ZM23.7515 0.282189C22.6198 0.262857 21.5006 0.522235 20.4922 1.03756C19.4838 1.55289 18.617 2.30842 17.9678 3.23784C17.1532 1.99584 15.9628 1.04833 14.5713 0.534368C13.1799 0.0204102 11.6607 -0.0329259 10.2367 0.382188C8.81274 0.797302 7.55898 1.659 6.65945 2.84082C5.75992 4.02264 5.26199 5.46233 5.23875 6.9486C5.23611 7.12051 5.23845 7.29538 5.24561 7.46817C5.2487 7.56307 5.27052 7.65642 5.3098 7.74283C5.34908 7.82923 5.40505 7.90697 5.47448 7.97157C5.54391 8.03617 5.62541 8.08634 5.71429 8.11918C5.80317 8.15203 5.89766 8.1669 5.99231 8.16294C6.08696 8.15898 6.17989 8.13626 6.26573 8.0961C6.35158 8.05594 6.42863 7.99913 6.49245 7.92895C6.55627 7.85878 6.60559 7.77663 6.63756 7.68724C6.66954 7.59786 6.68352 7.50301 6.67872 7.40818C6.67269 7.2624 6.67078 7.11647 6.673 6.97058C6.69279 5.69684 7.15206 4.46923 7.97275 3.49649C8.79344 2.52375 9.92488 1.86591 11.1747 1.63481C12.4245 1.40371 13.7156 1.61362 14.8284 2.22885C15.9413 2.84408 16.8071 3.82666 17.2788 5.00953C17.3314 5.14118 17.4216 5.25432 17.5381 5.33471C17.6546 5.4151 17.7923 5.45915 17.9337 5.46131C18.0752 5.46348 18.2141 5.42367 18.3331 5.34689C18.452 5.27012 18.5456 5.1598 18.6022 5.02981C19.1099 3.86196 20.0055 2.90639 21.1367 2.32556C22.2678 1.74473 23.5647 1.57449 24.8069 1.8438C26.049 2.1131 27.1598 2.80531 27.9503 3.80276C28.7407 4.8002 29.1622 6.0413 29.1429 7.31506C29.0376 14.1834 19.6475 20.023 17.6926 21.1646C16.5519 20.4521 12.839 18.0055 10.0424 14.6977C9.98149 14.6257 9.90704 14.5664 9.82328 14.5232C9.73952 14.48 9.6481 14.4538 9.55423 14.446C9.46036 14.4382 9.36589 14.4491 9.2762 14.4779C9.1865 14.5068 9.10336 14.553 9.0315 14.6141C8.95964 14.6751 8.90048 14.7497 8.8574 14.8337C8.81431 14.9176 8.78814 15.0093 8.78039 15.1034C8.77264 15.1975 8.78345 15.2922 8.81221 15.3821C8.84097 15.472 8.88711 15.5553 8.948 15.6273C12.4398 19.7574 17.1225 22.5051 17.3202 22.6202C17.4263 22.682 17.5465 22.7154 17.6692 22.7173C17.7919 22.7192 17.9131 22.6894 18.021 22.631C20.22 21.3848 22.2884 19.9201 24.1949 18.2589C28.3747 14.6027 30.5221 10.928 30.5772 7.33705C30.6033 5.49478 29.8994 3.71739 28.6197 2.39481C27.3401 1.07222 25.5893 0.312457 23.7515 0.282189Z" fill="black"/>
<path d="M7.39554 30.2222H6.69154V25.2622L4.87554 30.2222H4.10754L2.25954 25.2942V30.2222H1.55554V24.6542H2.78754L4.50754 29.2382L6.18754 24.6542H7.39554V30.2222ZM10.9593 30.3182C10.3513 30.3182 9.87663 30.1209 9.53529 29.7262C9.19396 29.3262 9.02329 28.7956 9.02329 28.1342C9.02329 27.4729 9.19396 26.9449 9.53529 26.5502C9.87663 26.1502 10.3513 25.9502 10.9593 25.9502C11.5673 25.9502 12.042 26.1502 12.3833 26.5502C12.7246 26.9449 12.8953 27.4729 12.8953 28.1342C12.8953 28.7956 12.7246 29.3262 12.3833 29.7262C12.042 30.1209 11.5673 30.3182 10.9593 30.3182ZM10.9593 29.7102C11.3486 29.7102 11.642 29.5662 11.8393 29.2782C12.0366 28.9902 12.1353 28.6089 12.1353 28.1342C12.1353 27.6596 12.0366 27.2782 11.8393 26.9902C11.642 26.7022 11.3486 26.5582 10.9593 26.5582C10.57 26.5582 10.2766 26.7022 10.0793 26.9902C9.88729 27.2782 9.79129 27.6596 9.79129 28.1342C9.79129 28.6089 9.88729 28.9902 10.0793 29.2782C10.2766 29.5662 10.57 29.7102 10.9593 29.7102ZM16.5485 25.9502C16.9431 25.9502 17.2418 26.0729 17.4445 26.3182C17.6471 26.5582 17.7485 26.8942 17.7485 27.3262V30.2222H17.0445V27.4222C17.0445 27.1556 16.9885 26.9502 16.8765 26.8062C16.7645 26.6569 16.5938 26.5822 16.3645 26.5822C16.1031 26.5822 15.8818 26.6249 15.7005 26.7102C15.5245 26.7956 15.3271 26.9342 15.1085 27.1262V30.2222H14.4045V26.9742L14.2285 26.0462H14.9325L15.0445 26.6302C15.2951 26.3902 15.5271 26.2169 15.7405 26.1102C15.9591 26.0036 16.2285 25.9502 16.5485 25.9502ZM19.7537 25.1022C19.6043 25.1022 19.4817 25.0542 19.3857 24.9582C19.295 24.8622 19.2497 24.7396 19.2497 24.5902C19.2497 24.4409 19.295 24.3182 19.3857 24.2222C19.4817 24.1262 19.6043 24.0782 19.7537 24.0782C19.903 24.0782 20.023 24.1262 20.1137 24.2222C20.2097 24.3182 20.2577 24.4409 20.2577 24.5902C20.2577 24.7396 20.2097 24.8622 20.1137 24.9582C20.023 25.0542 19.903 25.1022 19.7537 25.1022ZM20.1057 26.0462V30.2222H19.4017V26.0462H20.1057ZM22.5799 26.0462H23.7319V26.6542H22.5799V29.0462C22.5799 29.2436 22.6225 29.4036 22.7079 29.5262C22.7985 29.6436 22.9292 29.7022 23.0999 29.7022C23.2172 29.7022 23.3212 29.6916 23.4119 29.6702C23.5079 29.6436 23.6145 29.6036 23.7319 29.5502V30.1742C23.6092 30.2329 23.4919 30.2702 23.3799 30.2862C23.2679 30.3076 23.1319 30.3182 22.9719 30.3182C22.6305 30.3182 22.3612 30.2089 22.1639 29.9902C21.9719 29.7716 21.8759 29.4809 21.8759 29.1182V26.6542H21.0759V26.0462H21.8759V24.9262L22.5799 24.5582V26.0462ZM26.639 30.3182C26.031 30.3182 25.5563 30.1209 25.215 29.7262C24.8736 29.3262 24.703 28.7956 24.703 28.1342C24.703 27.4729 24.8736 26.9449 25.215 26.5502C25.5563 26.1502 26.031 25.9502 26.639 25.9502C27.247 25.9502 27.7216 26.1502 28.063 26.5502C28.4043 26.9449 28.575 27.4729 28.575 28.1342C28.575 28.7956 28.4043 29.3262 28.063 29.7262C27.7216 30.1209 27.247 30.3182 26.639 30.3182ZM26.639 29.7102C27.0283 29.7102 27.3216 29.5662 27.519 29.2782C27.7163 28.9902 27.815 28.6089 27.815 28.1342C27.815 27.6596 27.7163 27.2782 27.519 26.9902C27.3216 26.7022 27.0283 26.5582 26.639 26.5582C26.2496 26.5582 25.9563 26.7022 25.759 26.9902C25.567 27.2782 25.471 27.6596 25.471 28.1342C25.471 28.6089 25.567 28.9902 25.759 29.2782C25.9563 29.5662 26.2496 29.7102 26.639 29.7102ZM32.0922 25.9502V26.7262H31.9722C31.7215 26.7262 31.4948 26.7716 31.2922 26.8622C31.0948 26.9529 30.9295 27.0836 30.7962 27.2542V30.2222H30.0922V26.9742L29.9162 26.0462H30.6202L30.7642 26.7902C30.9828 26.4702 31.1668 26.2516 31.3162 26.1342C31.4708 26.0116 31.6468 25.9502 31.8442 25.9502H32.0922Z" fill="black"/>
</svg>
