<svg width="130" height="132" viewBox="0 0 130 132" fill="none" xmlns="http://www.w3.org/2000/svg">
<path d="M102.742 14.169C119.254 25.9547 130 45.2309 130 67.0475C130 102.876 100.96 131.921 65.1311 132C29.3549 132.078 0.0524672 102.928 4.78369e-05 67.1523C-0.0261618 45.3357 10.7198 26.0071 27.2057 14.1952C30.2722 12.0214 34.5444 12.9381 36.3791 16.2119L40.5202 23.5714C42.0666 26.3214 41.3327 29.8047 38.7904 31.6904C27.9133 39.7571 20.9678 52.538 20.9678 67.0213C20.9416 91.1951 40.494 111.047 65 111.047C89.0081 111.047 109.19 91.6142 109.032 66.7594C108.954 53.1928 102.558 40.0976 91.1835 31.6642C88.6411 29.7785 87.9335 26.2952 89.4799 23.5714L93.621 16.2119C95.4557 12.9643 99.7016 11.9952 102.742 14.169ZM75.4839 69.1428V6.28571C75.4839 2.80238 72.6795 0 69.1936 0H60.8065C57.3206 0 54.5162 2.80238 54.5162 6.28571V69.1428C54.5162 72.6261 57.3206 75.4285 60.8065 75.4285H69.1936C72.6795 75.4285 75.4839 72.6261 75.4839 69.1428Z" fill="#FE7575"/>
</svg>
